<svg xmlns="http://www.w3.org/2000/svg" xmlns:xlink="http://www.w3.org/1999/xlink" width="2725.06" height="2687.33" viewBox="0 0 2725.06 2687.33"><defs><style>.cls-1{fill:url(#linear-gradient);}.cls-2{fill:url(#linear-gradient-2);}.cls-3{isolation:isolate;}.cls-4{clip-path:url(#clip-path);}.cls-5{opacity:0.8;}.cls-12,.cls-15,.cls-16,.cls-39,.cls-5{mix-blend-mode:soft-light;}.cls-16,.cls-39,.cls-6{fill:#fff;}.cls-7{clip-path:url(#clip-path-2);}.cls-8{fill:#d8dee8;}.cls-9{fill:url(#linear-gradient-5);}.cls-10{fill:url(#linear-gradient-6);}.cls-11{fill:url(#linear-gradient-7);}.cls-13{fill:url(#linear-gradient-8);}.cls-14{fill:url(#linear-gradient-9);}.cls-15,.cls-16{opacity:0.5;}.cls-17{fill:url(#linear-gradient-10);}.cls-18{fill:url(#linear-gradient-11);}.cls-19{fill:url(#linear-gradient-12);}.cls-20{fill:url(#linear-gradient-13);}.cls-21{fill:url(#linear-gradient-14);}.cls-22{fill:url(#linear-gradient-15);}.cls-23{opacity:0.3;fill:url(#linear-gradient-16);}.cls-23,.cls-35,.cls-36{mix-blend-mode:multiply;}.cls-24{fill:url(#linear-gradient-17);}.cls-25{fill:url(#linear-gradient-18);}.cls-26{fill:url(#linear-gradient-19);}.cls-27{fill:url(#linear-gradient-20);}.cls-28{fill:url(#linear-gradient-21);}.cls-29{fill:url(#linear-gradient-22);}.cls-30{fill:url(#linear-gradient-23);}.cls-31{fill:url(#linear-gradient-24);}.cls-32{fill:url(#linear-gradient-25);}.cls-33{fill:url(#linear-gradient-26);}.cls-34{fill:url(#linear-gradient-27);}.cls-35,.cls-36{opacity:0.1;}.cls-35{fill:url(#linear-gradient-28);}.cls-36{fill:url(#linear-gradient-29);}.cls-37{fill:url(#linear-gradient-30);}.cls-38{fill:url(#linear-gradient-31);}.cls-39{opacity:0.4;}</style><linearGradient id="linear-gradient" x1="1796.95" y1="1927.41" x2="2527.34" y2="-45.22" gradientUnits="userSpaceOnUse"><stop offset="0" stop-color="#e38ddd"/><stop offset="1" stop-color="#9571f6"/></linearGradient><linearGradient id="linear-gradient-2" x1="1256.26" y1="1732.66" x2="2672.98" y2="1732.66" gradientUnits="userSpaceOnUse"><stop offset="0" stop-color="#ff9085"/><stop offset="1" stop-color="#fb6fbb"/></linearGradient><clipPath id="clip-path"><path class="cls-1" d="M2394.53,136.35c-32.09-26.55-80.77-41-121.92-43.93-291.69-20.66-334.26,589-289.55,725.3s15.74,181-214,252.3-119.52,208.55-91.52,288.82,83.45,148.07-84,227.83-109.27,129.18-109.27,129.18S1793.1,2031.76,1776,1930.62s13.85-253.87,290.75-265.47c119.27-5,301.91-61.89,342.35-189.6,9.42-29.73,16-75.16,8.81-105.93-9.94-42.7-38-76.35-53.52-116.53-36.27-93.65,54.68-162.23,107-224.83,27.33-32.68,54.64-66.19,75.57-103.45,43.44-77.36,27.18-160.32-20.13-231.63-22.68-34.19-54.21-70.47-64.11-111.26-10.62-43.81-1.36-103.67,1.17-148.74,2-35.35,5.34-70.56,3.35-106C2463.61,261.27,2448.18,180.74,2394.53,136.35Z"/></clipPath><clipPath id="clip-path-2"><path class="cls-2" d="M2650.54,1034.38c-21.22-35.84-62.13-65.92-99.87-82.59-267.49-118.15-513.85,441.19-517.89,584.54s-46.44,175.65-286.74,165-183,155.8-183.84,240.82,28.42,167.57-156.16,186-146.54,84.58-146.54,84.58,183.73,401.79,201.9,300.84,98.93-234.21,363.42-151.43c113.93,35.66,305,43.92,386.32-62.57,18.92-24.8,40.46-65.32,44.13-96.71,5.1-43.54-9.89-84.68-10.94-127.77-2.43-100.39,106.36-134.15,176.79-175.34,36.78-21.51,73.82-43.81,106.12-71.79,67.06-58.09,79.82-141.66,59.43-224.77-9.77-39.85-27.17-84.66-22.68-126.39,4.83-44.82,33.8-98,51.43-139.57,13.82-32.59,28.9-64.59,39-98.61C2673.27,1175.3,2686,1094.3,2650.54,1034.38Z"/></clipPath><linearGradient id="linear-gradient-5" x1="740.98" y1="1398.68" x2="322.8" y2="1444.3" gradientTransform="matrix(-1, 0, 0, 1, 2360.81, 0)" gradientUnits="userSpaceOnUse"><stop offset="0" stop-color="#444b8c"/><stop offset="1" stop-color="#26264f"/></linearGradient><linearGradient id="linear-gradient-6" x1="1109.44" y1="344.57" x2="75.4" y2="3864.87" xlink:href="#linear-gradient-5"/><linearGradient id="linear-gradient-7" x1="721.96" y1="257.86" x2="-493.32" y2="3549.23" gradientTransform="matrix(-1, 0, 0, 1, 2360.81, 0)" gradientUnits="userSpaceOnUse"><stop offset="0" stop-color="#ffc444"/><stop offset="1" stop-color="#f36f56"/></linearGradient><linearGradient id="linear-gradient-8" x1="7963.53" y1="7724.33" x2="7132.27" y2="8508.18" gradientTransform="translate(-1015.12 17140.01) rotate(180)" gradientUnits="userSpaceOnUse"><stop offset="0" stop-color="#311944"/><stop offset="1" stop-color="#893976"/></linearGradient><linearGradient id="linear-gradient-9" x1="176.68" y1="768.52" x2="842.79" y2="164.04" xlink:href="#linear-gradient-2"/><linearGradient id="linear-gradient-10" x1="-1112.44" y1="1294.13" x2="-980.44" y2="1428.49" gradientTransform="matrix(-1, 0, 0, 1, -260.87, 0)" xlink:href="#linear-gradient-7"/><linearGradient id="linear-gradient-11" x1="-785.25" y1="2570.37" x2="-786.36" y2="2272.3" gradientTransform="matrix(-1, 0, 0, 1, -260.87, 0)" gradientUnits="userSpaceOnUse"><stop offset="0" stop-color="#aa80f9"/><stop offset="1" stop-color="#6165d7"/></linearGradient><linearGradient id="linear-gradient-12" x1="-3853.76" y1="2875.03" x2="-3851.92" y2="2720.37" gradientTransform="matrix(-1, 0.08, 0.08, 1, -3576.3, 108.23)" xlink:href="#linear-gradient-7"/><linearGradient id="linear-gradient-13" x1="-609.52" y1="2569.71" x2="-610.63" y2="2271.64" xlink:href="#linear-gradient-11"/><linearGradient id="linear-gradient-14" x1="-3674.92" y1="2877.16" x2="-3673.07" y2="2722.49" gradientTransform="matrix(-1, 0.08, 0.08, 1, -3576.3, 108.23)" xlink:href="#linear-gradient-7"/><linearGradient id="linear-gradient-15" x1="-750.33" y1="1890.08" x2="-641.08" y2="2448.64" gradientTransform="matrix(-1, 0, 0, 1, -260.87, 0)" xlink:href="#linear-gradient-8"/><linearGradient id="linear-gradient-16" x1="-3942.92" y1="2377.62" x2="-3778.25" y2="2377.62" gradientTransform="matrix(-1, 0.08, 0.08, 1, -3576.3, 108.23)" xlink:href="#linear-gradient-8"/><linearGradient id="linear-gradient-17" x1="-3849.96" y1="2401.14" x2="-3599.97" y2="2401.14" gradientTransform="matrix(-1, 0.08, 0.08, 1, -3576.3, 108.23)" xlink:href="#linear-gradient-8"/><linearGradient id="linear-gradient-18" x1="-910.89" y1="1371.63" x2="-726.53" y2="2555.61" xlink:href="#linear-gradient-11"/><linearGradient id="linear-gradient-19" x1="-3617.18" y1="2861.16" x2="-3432.83" y2="4045.13" gradientTransform="matrix(-1, 0.08, 0.08, 1, -3576.3, 108.23)" xlink:href="#linear-gradient-11"/><linearGradient id="linear-gradient-20" x1="-3347.56" y1="2430.81" x2="-3905.46" y2="1629.86" gradientTransform="matrix(-1, 0.08, 0.08, 1, -3576.3, 108.23)" xlink:href="#linear-gradient-11"/><linearGradient id="linear-gradient-21" x1="-390.09" y1="1680.95" x2="-493.89" y2="1821.16" gradientTransform="matrix(-1, 0, 0, 1, -260.87, 0)" xlink:href="#linear-gradient-7"/><linearGradient id="linear-gradient-22" x1="-3401.33" y1="2827.55" x2="-3216.97" y2="4011.52" gradientTransform="matrix(-1, 0.08, 0.08, 1, -3576.3, 108.23)" xlink:href="#linear-gradient-11"/><linearGradient id="linear-gradient-23" x1="-5080.17" y1="4699.76" x2="-5080.17" y2="4540.27" gradientTransform="matrix(-0.78, 0.63, 0.63, 0.78, -6480.42, 850.84)" xlink:href="#linear-gradient-7"/><linearGradient id="linear-gradient-24" x1="-3817.66" y1="1487.47" x2="-3884.37" y2="1318.04" gradientTransform="matrix(-1, 0.08, 0.08, 1, -3576.3, 108.23)" gradientUnits="userSpaceOnUse"><stop offset="0" stop-color="#444b8c"/><stop offset="1" stop-color="#3e4177"/></linearGradient><linearGradient id="linear-gradient-25" x1="-5192.9" y1="4653.79" x2="-5118.34" y2="4508.8" gradientTransform="matrix(-0.78, 0.63, 0.63, 0.78, -6480.42, 850.84)" xlink:href="#linear-gradient-7"/><linearGradient id="linear-gradient-26" x1="758.29" y1="1430.8" x2="2101.34" y2="1430.8" gradientTransform="matrix(1, 0, 0, 1, 0, 0)" xlink:href="#linear-gradient-8"/><linearGradient id="linear-gradient-27" x1="1574.82" y1="4072.33" x2="1414.68" y2="1298.42" gradientUnits="userSpaceOnUse"><stop offset="0" stop-color="#f36f56"/><stop offset="1" stop-color="#ffc444"/></linearGradient><linearGradient id="linear-gradient-28" x1="939.46" y1="1284.74" x2="1905.77" y2="1284.74" xlink:href="#linear-gradient-27"/><linearGradient id="linear-gradient-29" x1="905.3" y1="1538.26" x2="1870.86" y2="1538.26" xlink:href="#linear-gradient-27"/><linearGradient id="linear-gradient-30" x1="1379.9" y1="1631.86" x2="1164.05" y2="3000.65" xlink:href="#linear-gradient-27"/><linearGradient id="linear-gradient-31" x1="1450.9" y1="206.71" x2="1497" y2="1579.39" xlink:href="#linear-gradient-27"/></defs><title>account</title><g class="cls-3"><g id="Illustration"><path class="cls-1" d="M2394.53,136.35c-32.09-26.55-80.77-41-121.92-43.93-291.69-20.66-334.26,589-289.55,725.3s15.74,181-214,252.3-119.52,208.55-91.52,288.82,83.45,148.07-84,227.83-109.27,129.18-109.27,129.18S1793.1,2031.76,1776,1930.62s13.85-253.87,290.75-265.47c119.27-5,301.91-61.89,342.35-189.6,9.42-29.73,16-75.16,8.81-105.93-9.94-42.7-38-76.35-53.52-116.53-36.27-93.65,54.68-162.23,107-224.83,27.33-32.68,54.64-66.19,75.57-103.45,43.44-77.36,27.18-160.32-20.13-231.63-22.68-34.19-54.21-70.47-64.11-111.26-10.62-43.81-1.36-103.67,1.17-148.74,2-35.35,5.34-70.56,3.35-106C2463.61,261.27,2448.18,180.74,2394.53,136.35Z"/><g class="cls-4"><g class="cls-5"><path class="cls-6" d="M1460,1893.16a4.32,4.32,0,0,1-3.45-7.89c1.3-.67,131.32-69.07,276.36-181.7,133.64-103.79,307.76-267.45,378.25-457.69C2170,1087,2223.7,824.31,2258.45,525.21c31.15-268.21,36.07-466.57,22.83-503.4a4.31,4.31,0,0,1,8.12-2.91c15.49,43.07,5.66,265.91-22.38,507.3-34.83,299.76-88.7,563.16-147.8,722.67-71.22,192.2-246.59,357.11-381.17,461.6-145.64,113.09-276.23,181.77-277.53,182.45A5.38,5.38,0,0,1,1460,1893.16Z"/><path class="cls-6" d="M2258,577.2c-2.23.8-4.5.18-5.32-2.05-1.08-2.95-109.82-295.5-250-361.55a4.15,4.15,0,0,1-2-5.61,4.32,4.32,0,0,1,5.77-2c143.43,67.56,249.91,354,254.38,366.16.82,2.23-.5,4.23-2.74,5Z"/><path class="cls-6" d="M2205,916.47a4.32,4.32,0,0,1-4.21-7.39c.8-.66,80.86-66.33,179.64-121.44,133.47-74.47,235.76-95.25,304-61.78a4.31,4.31,0,0,1-3.8,7.74c-157.06-77-471.23,179.54-474.38,182.14A4.7,4.7,0,0,1,2205,916.47Z"/><path class="cls-6" d="M1856.39,1609.94a4.32,4.32,0,0,1-5.77-4c0-1.26-2.24-126.78-28.52-259-24.08-121.26-73.82-273.15-174-308.15a4.32,4.32,0,0,1,2.84-8.15c83.52,29.19,144,135.08,179.63,314.73,26.41,133,28.63,259.2,28.65,260.46A4.32,4.32,0,0,1,1856.39,1609.94Z"/><path class="cls-6" d="M2034.61,1407.15a4.31,4.31,0,0,1-4-7.53c13.89-10.26,341.53-251.14,469.3-228.13a4.31,4.31,0,0,1-1.53,8.49c-124.15-22.35-459.27,224.09-462.64,226.58A4.25,4.25,0,0,1,2034.61,1407.15Z"/></g></g><path class="cls-2" d="M2650.54,1034.38c-21.22-35.84-62.13-65.92-99.87-82.59-267.49-118.15-513.85,441.19-517.89,584.54s-46.44,175.65-286.74,165-183,155.8-183.84,240.82,28.42,167.57-156.16,186-146.54,84.58-146.54,84.58,183.73,401.79,201.9,300.84,98.93-234.21,363.42-151.43c113.93,35.66,305,43.92,386.32-62.57,18.92-24.8,40.46-65.32,44.13-96.71,5.1-43.54-9.89-84.68-10.94-127.77-2.43-100.39,106.36-134.15,176.79-175.34,36.78-21.51,73.82-43.81,106.12-71.79,67.06-58.09,79.82-141.66,59.43-224.77-9.77-39.85-27.17-84.66-22.68-126.39,4.83-44.82,33.8-98,51.43-139.57,13.82-32.59,28.9-64.59,39-98.61C2673.27,1175.3,2686,1094.3,2650.54,1034.38Z"/><g class="cls-7"><g class="cls-5"><path class="cls-6" d="M1176.65,2371.32a4.31,4.31,0,0,1-.58-8.58c1.45-.2,146.94-20.56,321.54-77.48,160.88-52.44,380.1-147.53,510.81-302.7C2117.59,1853,2257,1624,2390.9,1354.25c120.07-241.84,191.83-426.84,191.83-466a4.31,4.31,0,1,1,8.62,0c0,45.77-84.65,252.14-192.72,469.81-134.2,270.29-274,499.92-383.61,630-132,156.76-352.88,252.6-514.88,305.39-175.31,57.13-321.44,77.57-322.9,77.77A4,4,0,0,1,1176.65,2371.32Z"/><path class="cls-6" d="M2372.86,1403.9a4.21,4.21,0,0,1-4.31-4.17c0-3.14-3.35-315.45-113-425.06a4.27,4.27,0,0,1,0-6.07,4.31,4.31,0,0,1,6.1,0c112.11,112.11,115.39,418.07,115.47,431.05a4.2,4.2,0,0,1-4.28,4.23Z"/><path class="cls-6" d="M2208.16,1704.33a4.32,4.32,0,0,1-1.45-8.38c1-.35,98.53-35.06,210.14-53.49,150.79-24.91,254.08-9.86,307,44.74a4.31,4.31,0,1,1-6.19,6c-121.74-125.6-504.18,9.49-508,10.87A4.13,4.13,0,0,1,2208.16,1704.33Z"/><path class="cls-6" d="M1645.52,2239a4.51,4.51,0,0,1-1.4-.23,4.31,4.31,0,0,1-2.68-5.48c.4-1.19,40.79-120.06,60.81-253.4,18.37-122.26,23-282-59.45-348.85a4.31,4.31,0,0,1,5.43-6.7c68.72,55.73,89.76,175.82,62.54,357-20.16,134.09-60.77,253.6-61.17,254.79A4.33,4.33,0,0,1,1645.52,2239Z"/><path class="cls-6" d="M1881.85,2108.43a4.31,4.31,0,0,1-1.24-8.44c16.54-5,406.36-120.77,518.81-55.89a4.32,4.32,0,0,1-4.31,7.48c-109.27-63-508,55.46-512,56.67A4.48,4.48,0,0,1,1881.85,2108.43Z"/></g></g><path class="cls-8" d="M1753.86,26.74l-3.08,22.06a173.45,173.45,0,0,0-30.08,4l-8.34-20.58A10.94,10.94,0,0,0,1698,26.26l-35.37,14.57a11.16,11.16,0,0,0-6.15,14.42l8.38,20.84a178.26,178.26,0,0,0-24.21,18.48l-17.78-13.78a11.12,11.12,0,0,0-15.55,2l-23.76,30.4a11.07,11.07,0,0,0,1.8,15.58l17.83,13.87a177.59,177.59,0,0,0-12,28.16l-22.63-3a11.38,11.38,0,0,0-12.64,9.64l-5.69,38.34a11,11,0,0,0,9.38,12.58l22.7,3a176.21,176.21,0,0,0,3.41,30.45l-21.3,8.88a11.51,11.51,0,0,0-6.3,14.75l14.19,36.06a11,11,0,0,0,14.54,6.1l21.31-8.93a175.46,175.46,0,0,0,18.25,24.58l-14.19,18.44a11.43,11.43,0,0,0,1.84,15.95l30.44,23.88a11.18,11.18,0,0,0,15.78-2.15l14-18.32A170.16,170.16,0,0,0,1702.69,393l-3.19,22.87a11.21,11.21,0,0,0,9.54,12.79l38.43,5a11.41,11.41,0,0,0,12.68-9.88l3.1-22.69a172,172,0,0,0,30.72-4.05l8.43,21a11.07,11.07,0,0,0,14.62,6.14L1852.87,409a11.52,11.52,0,0,0,6.1-14.9l-8.43-20.81a179.49,179.49,0,0,0,24.64-19.15l17.51,13.61a11.08,11.08,0,0,0,15.68-2.13l23.47-31.12a11.4,11.4,0,0,0-2.07-15.85l-17.36-13.45a178.23,178.23,0,0,0,11.78-28.95l21.71,2.85a11.15,11.15,0,0,0,12.46-9.71l4.92-38.45a11.19,11.19,0,0,0-9.57-12.55l-21.64-2.84a176.48,176.48,0,0,0-4-30.74l20.07-8.41a11.16,11.16,0,0,0,6-14.56l-14.66-35.44a11,11,0,0,0-14.43-6l-20.19,8.41a174.42,174.42,0,0,0-18.63-24.29l13.34-17.41a11.07,11.07,0,0,0-2-15.49l-30.16-23.17a11,11,0,0,0-15.45,2L1838.49,68a172.13,172.13,0,0,0-28.11-11.51l3-21.89A10.94,10.94,0,0,0,1804,22.22l-37.67-4.95A11.11,11.11,0,0,0,1753.86,26.74Zm-132.81,178.7c10.88-75.76,80.42-128.87,155.36-119s127.59,79,117.52,154.83c-10.12,76.33-79.8,130.49-155.57,120.55S1610.09,281.66,1621.05,205.44Z"/><path class="cls-8" d="M1176.23,14.79l-4.76,34.11A267.69,267.69,0,0,0,1125,55.06l-12.89-31.82a16.91,16.91,0,0,0-22.18-9.2L1035.2,36.57a17.24,17.24,0,0,0-9.51,22.29l13,32.22a276.08,276.08,0,0,0-37.42,28.58l-27.5-21.31a17.19,17.19,0,0,0-24,3.17l-36.74,47a17.11,17.11,0,0,0,2.79,24.08l27.57,21.44a274,274,0,0,0-18.5,43.55l-35-4.59a17.58,17.58,0,0,0-19.54,14.89l-8.8,59.29A17,17,0,0,0,876,326.64l35.09,4.6a272.54,272.54,0,0,0,5.28,47.07L883.42,392a17.79,17.79,0,0,0-9.74,22.81l21.94,55.75A17,17,0,0,0,918.09,480L951,466.23a271.58,271.58,0,0,0,28.22,38l-22,28.5a17.67,17.67,0,0,0,2.85,24.66l47.07,36.93a17.27,17.27,0,0,0,24.39-3.33l21.69-28.32a265.58,265.58,0,0,0,43.81,18.42l-4.94,35.34a17.36,17.36,0,0,0,14.76,19.79l59.42,7.79A17.65,17.65,0,0,0,1186,628.75l4.79-35.08a267.14,267.14,0,0,0,47.49-6.27l13,32.41a17.12,17.12,0,0,0,22.62,9.49l55.42-23.48a17.81,17.81,0,0,0,9.44-23l-13-32.18A276.63,276.63,0,0,0,1363.81,521l27.08,21a17.12,17.12,0,0,0,24.24-3.3l36.29-48.11a17.63,17.63,0,0,0-3.2-24.51l-26.84-20.8a274.28,274.28,0,0,0,18.21-44.76l33.56,4.4a17.24,17.24,0,0,0,19.27-15l7.62-59.44a17.3,17.3,0,0,0-14.81-19.4l-33.46-4.39a271.57,271.57,0,0,0-6.17-47.54l31-13a17.25,17.25,0,0,0,9.22-22.51l-22.67-54.79a17.05,17.05,0,0,0-22.32-9.26l-31.21,13a270.23,270.23,0,0,0-28.8-37.56l20.62-26.92a17.1,17.1,0,0,0-3.13-24l-46.62-35.82a17,17,0,0,0-23.89,3.16l-20.75,26.95a264.81,264.81,0,0,0-43.46-17.78l4.63-33.85A16.9,16.9,0,0,0,1253.7,7.79L1195.45.15A17.18,17.18,0,0,0,1176.23,14.79ZM970.88,291.07c16.84-117.13,124.35-199.25,240.23-184s197.27,122.09,181.7,239.4c-15.65,118-123.39,201.75-240.54,186.38S954,408.92,970.88,291.07Z"/><path class="cls-9" d="M1120.5,345.09,865.74,2462.63c-3.82,31.75,18.06,60.21,48.72,63.25l1061.12,116.49c65,4.05,100.59-29.16,104.6-62.92l267.47-2251.3c4-33.57-27.9-64-93.18-64L1183.7,286.72C1152.7,287.24,1124.3,313.51,1120.5,345.09Z"/><path class="cls-10" d="M1072.75,341.44,816.58,2469.57c-3.84,31.91,18.12,60.52,48.89,63.58l1100.08,109.53c34.49,3.43,66.1-21.52,70.13-55.45l269-2262.93c4-33.75-21.32-60.87-56.18-60.28L1136.19,282.78C1105.08,283.31,1076.57,309.7,1072.75,341.44Z"/><path class="cls-8" d="M1093.62,458.83,856.19,2432c-3.59,29.81,17,56.49,45.78,59.29l1034.59,100.57c32.06,3.11,61.44-20.18,65.2-51.76L2250.33,449.7c3.73-31.42-19.78-56.84-52.17-56.5L1153,404.33C1123.85,404.64,1097.19,429.16,1093.62,458.83Z"/><path class="cls-11" d="M1648.42,340c-1.35,11.33,6.78,20.4,18.17,20.26s21.77-9.47,23.13-20.82-6.8-20.42-18.21-20.25S1649.78,328.65,1648.42,340Z"/><g class="cls-12"><path class="cls-6" d="M1272.49,1783.36C1484.3,1391.77,1800.7,1274.56,1896,871c51.49-218.15,16.41-426.95-42.68-600.29L2248.47,264c34.86-.59,60.2,26.53,56.18,60.28l-269,2262.93c-4,33.93-35.64,58.88-70.13,55.45l-864.77-86.1C1094.38,2205.7,1178.08,1957.92,1272.49,1783.36Z"/></g><path class="cls-13" d="M28.32,566c0-208.08,181.51-376.73,399.33-376.71,211.38,0,378.2,159.8,378.2,356.87S639,911.54,427.65,922.35C209.83,933.49,28.32,774.1,28.32,566Z"/><path class="cls-14" d="M51.8,549.43c0-208.08,176.26-376.74,387.78-376.71,205.26,0,367.26,159.8,367.26,356.87S644.84,895,439.58,905.76C228.06,916.9,51.8,757.5,51.8,549.43Z"/><g class="cls-15"><path class="cls-6" d="M112.15,547.84c0-174.82,148.08-316.51,325.79-316.49,172.45,0,308.55,134.26,308.55,299.83s-136.1,307-308.55,316C260.23,856.58,112.15,722.66,112.15,547.84Z"/></g><path class="cls-16" d="M425.7,258.21c172.46,0,308.56,134.26,308.56,299.83a303,303,0,0,1-21.82,112.52,304.45,304.45,0,0,0,34-139.38c0-165.57-136.1-299.81-308.55-299.83-137.06,0-256.42,84.3-303.89,203.06C187.81,330,299.22,258.2,425.7,258.21Z"/><path class="cls-6" d="M290.59,505.05V657.63c0,44.12,37.12,78.91,82.76,77.72l113.17-3c45.09-1.18,81.53-37.52,81.53-81.17v-151ZM394.82,662.79l21-63.73a27.5,27.5,0,0,1-15.11-24.48c0-15.66,13.13-28.61,29.31-28.91s29.26,12.11,29.26,27.74a28.88,28.88,0,0,1-15.07,25.06l20.95,62.68Z"/><path class="cls-6" d="M535.88,487c-12,.2-21.75-9.09-21.75-20.75,0-44.85-37.65-80.85-84.08-80.26-46.59.6-84.62,37.81-84.62,82.94,0,11.74-9.87,21.43-22.06,21.63s-22.1-9.16-22.1-20.92c0-68.69,57.93-125.23,128.78-126,70.48-.8,127.54,53.91,127.54,121.93C557.59,477.24,547.87,486.84,535.88,487Z"/><path class="cls-17" d="M798,1357.31s-7.7-28.87-2.25-36.24,38.81-36.88,35.6-27.26a61.9,61.9,0,0,1-8,16s18,8.34,6.42,20.85-15.4,15.39-16,26.62S805.69,1372.38,798,1357.31Z"/><path class="cls-18" d="M477.63,2603.08s-4.08,25-3.56,33.84,99.1,13.43,100.1,6.77-16.3-17.24-28.47-21-47.79-13.7-47.79-13.7Z"/><path class="cls-19" d="M501.56,2578.19l-3.15,31S487,2616.8,476.87,2611l-5-33.79Z"/><path class="cls-20" d="M301.75,2643.54s-4.08,25-3.56,33.85,99.1,13.42,100.09,6.77-16.29-17.24-28.46-21-47.79-13.7-47.79-13.7Z"/><path class="cls-21" d="M325.68,2618.66l-3.15,31s-11.45,7.57-21.54,1.73l-5.05-33.78Z"/><path class="cls-22" d="M483.67,1767.94l34.19,69.3c9.16,131.83,13.71,275.19,10.79,428.5-2.18,114.06-8.27,222.11-17,323.53l-46.35-2.13c-22.34-44.33-48.71-111.51-51.14-194.43-2.53-86.49,23.69-98,22-180.79C434,2104.58,389,2075.94,365,1946.83c-9.17-49.37-15.34-113.86-8-192.11Z"/><path class="cls-23" d="M357,1754.72l68.4,7.14c41,71.43,52.51,145.77,45.31,178.66-10.19,46.52-37.15,61.43-35.67,108.14,1.47,46.22,28.7,58.21,46,112.69,12,37.71,8.81,72.39,2,140.22-13.7,136.61-46.69,178.39-19,223.18,7.85,12.72,22,27.88,49.71,39.45-.68,8.38-1.34,16.78-2.06,25.07l-46.35-2.12c-22.34-44.35-48.71-111.52-51.14-194.44-2.53-86.49,23.69-98,22-180.79C434,2104.58,389,2076,365,1946.83,355.84,1897.46,349.67,1833,357,1754.72Z"/><path class="cls-24" d="M422.37,1809.53c-21.39,116.63-40.28,241.47-55,373.85-17.79,159.85-27.29,310.55-31,450.46l-50.87,1.45c-66.82-132.19-70.9-221.82-61.27-280.17,3.71-22.48,13.8-66.57,16.1-132.46,1.6-45.93-1.33-80.89-5-122.91-8-92.13-17.76-112.24-19.16-182.71-1.31-66.14-1.58-99.6,17.29-119.14C283.15,1746.44,412.55,1805,422.37,1809.53Z"/><path class="cls-25" d="M789.11,1352.86,823,1350.5c26.6,107.5,7.52,211.79-52.53,250.14-93.81,59.92-268.16-53-305.94-175.89-16.58-54-12.81-131.83,20.34-147,9.2-4.2,23.47-4.85,54.4,12.52,92.37,51.86,94.8,149.87,141.76,158.18C701.86,1452.18,735.57,1438.86,789.11,1352.86Z"/><path class="cls-26" d="M530.83,1860.89c16.25-27-4.16-53-8.8-104-5.27-57.89,17-67.53,39.09-163.46,14.66-63.8,28.74-125.05,11.94-196.75-8-34.36-21.71-92.64-69.95-120.79-24.89-14.53-58.87-13.08-125.83-9.57-82.79,4.33-124.19,6.49-155.06,22.75-4.52,2.38-98.45,53.47-104.91,136.74-6.58,84.76,85.72,96.15,98,209.18,5.53,50.74-4.32,128.78-10.71,179.39-6.14,48.6-10.36,61.05-.77,75.76,23.12,35.47,93.89,25.36,235.43,5.15C494.81,1887.33,518.71,1881,530.83,1860.89Z"/><path class="cls-27" d="M315.48,1616.78c-6,22-27.51,38.48-42.5,92.07-3.23,11.57-26.27,94,3.61,114.23,17.27,11.71,32.77-10.48,74.66-13.38,72.61-5,107.19,56,154.62,39.34,8.23-2.9,19.09-9.06,29.94-23.22,2.16,12.76,1.79,23.85-5,35.07-12.12,20.12-36,26.44-91.54,34.37-141.54,20.21-212.31,30.32-235.43-5.15-9.59-14.71-5.37-27.16.77-75.76,6.39-50.61,16.24-128.65,10.71-179.39-12.31-113-104.61-124.42-98-209.18,1.76-22.66,10.09-42.83,21.24-60.39C255.64,1412.77,334.29,1547.55,315.48,1616.78Z"/><path class="cls-28" d="M167.58,1783.5l23.43,15c4.2-4.86,13.94-14.66,29.15-18,17.13-3.77,36.8,1.63,37.25,7.1.37,4.38-11.6,8.8-13.46,9.48-14.94,5.52-26,.94-32.08,7-2.13,2.12-4.8,6.07-10.92,9.73a32.17,32.17,0,0,1-4.18,2.16c-10,3.88-27.09-13.49-28.57-15Z"/><path class="cls-29" d="M236.79,1476.24c17-40.59,28.69-102.74,1.93-195C62.34,1350.71-27.62,1515.47,7.51,1646.07c29,107.67,134.29,160.12,157.79,171.15q8.19-18.67,16.4-37.33c-27.23-30.33-57.92-75.17-53.58-126.33C134.14,1582.62,202.48,1558.41,236.79,1476.24Z"/><path class="cls-30" d="M373,1182.79s-1.39,30.85-11,54c-8.66,20.89-54.18,34-63.41,38.68s17.29,18.28,43.92,21,102.67-3.37,116.38-13.46-11-9.34-30-16.32-30-44.15-26.64-61S373,1182.79,373,1182.79Z"/><path class="cls-31" d="M415.06,1171.6c13.82-13.58,15.75-15.16,17.26-19.85,6-18.84-8.57-44.63-27.73-51-1-.33-13.85-4.44-18.75,1.13-4.17,4.74,2,11.27-.95,20.4-2.73,8.54-10.14,9.18-23.86,20.38-11.31,9.22-18.33,15-19.95,23-3.35,16.63,16.79,40.73,34.61,40.08C382.1,1205.55,383.84,1202.28,415.06,1171.6Z"/><path class="cls-32" d="M377.43,1208.35s14.69,16.63,37.07,11.14c20-4.92,14.92-50.9.26-58.25-4.89-2.45-13.78-2.24-20.46,1-3.95,1.9-5.05,3.88-11.56,6.86-6,2.75-7.91,2.37-9.52,4.31-2,2.42-2.89,7.63,3.44,20.21-4.57-3.22-9.47-3.9-12.49-1.76a7,7,0,0,0-2.23,3.1C360,1200.64,366,1206.43,377.43,1208.35Z"/><path class="cls-33" d="M2052.7,585.81l5.17,27.91h0l-106.44.25-923.59,2.19c-23.76.05-45.62,19.69-48.87,43.87L758.49,2133.56c-3.28,24.39,34.68,61.62,58.3,63.44l409.75,31.49v-.5l612.93,47h0l1.48.62c26.18,2,50.18-17,53.58-42.73,0,0,0,.11,0,.1L2101,659.75C2104.39,634.23,2079,585.74,2052.7,585.81Z"/><path class="cls-34" d="M1873.67,2202.24c-3.38,25.77-27.39,45-53.56,43L794.87,2166.54c-23.6-1.82-40-23.06-36.75-47.45L958.54,629.89c3.26-24.17,25.1-43.81,48.85-43.88l1031-2.83c26.31-.07,45,20.56,41.63,46.08Z"/><path class="cls-6" d="M1887.29,1383.26c-1.68,12.77-13.6,22.28-26.63,21.81l-902.33-32.93c-11.91-.44-20.29-10.24-18.65-22.43l17.74-131.49c1.63-12.18,12.5-20.42,24.43-20.09L1885,1223.21c13,.36,22.27,9.57,20.6,22.32Z"/><path class="cls-6" d="M1852.34,1650.44c-1.68,12.78-13.61,23.7-26.63,23L924.06,1629c-11.9-.59-20.18-12-18.54-24.18l17.88-134c1.64-12.19,12.61-22.64,24.52-22.16l902.2,36.39c13,.52,22.23,12.3,20.55,25.08Z"/><path class="cls-35" d="M1905.64,1245a24.6,24.6,0,0,0-6.89-1.14l-903.14-25.07c-11.91-.34-22.79,7.92-24.41,20.08l-17.77,131.49c0,.35-.07.66-.1,1-9.16-2.58-15.05-11.26-13.67-21.66l17.77-131.49c1.62-12.16,12.49-20.42,24.41-20.07L1885,1223.2C1897.79,1223.58,1907,1232.5,1905.64,1245Z"/><path class="cls-36" d="M1870.86,1507.09a21.16,21.16,0,0,0-7-1.48l-902.18-36.4c-11.92-.48-22.9,10-24.52,22.18l-17.9,134a19.87,19.87,0,0,0-.18,2.55c-9.15-3-15-12.81-13.6-23.21l17.91-134c1.62-12.19,12.6-22.66,24.51-22.18L1850.1,1485A21.82,21.82,0,0,1,1870.86,1507.09Z"/><path class="cls-37" d="M1612.55,1867c2.66-20.17-11.6-38.75-31.87-39.92l-466.75-26.8c-19.33-1.11-37.19,15.17-39.82,34.81l-19.26,145.18c-2.63,19.67,10.78,38.49,30.1,39.81L1551.46,2052c20.26,1.38,38.92-15.72,41.59-35.92Z"/><path class="cls-38" d="M1647.79,888.85c-6.14,46.42-30,88.31-63.88,119.12-36.53,33.22-84.65,53.44-134.69,52.48-49.79-1-91.7-22.72-118.61-56.69-24.82-31.31-37-73-30.89-118.66,12.67-94.93,99.89-171.67,195.6-171.45C1591.94,713.88,1660.58,792.3,1647.79,888.85Z"/><path class="cls-6" d="M1554.72,836.1c-5.52,41.59-43.9,74.9-85.57,74.4-41.5-.49-70.56-34.36-65.06-75.64s43.48-74.56,85-74.37C1530.79,760.68,1560.24,794.53,1554.72,836.1Z"/><path class="cls-6" d="M1583.91,1008c-36.53,33.22-84.65,53.44-134.69,52.48-49.79-1-91.7-22.72-118.61-56.69,30.8-42.91,81.6-71.45,135.55-70.74C1520.4,933.72,1564.12,963.78,1583.91,1008Z"/><path class="cls-39" d="M2080,629.26l-206.37,1573c-3.38,25.76-28.92,44.91-55.07,42.91l-615.77-47.29a327.8,327.8,0,0,1-70.53-109,336.52,336.52,0,0,1-18.73-68c-11.43-66.42-7-141.92,9.67-216a712.91,712.91,0,0,1,58.65-164.19c20.57-40.63,44.78-77.78,71.81-109,19.46-22.47,40.5-44.3,62.71-65.71,26.76-25.84,55.22-51.07,84.56-76,68.39-58.27,141.62-115.24,209.42-175.4,156.45-138.79,283.36-293.85,252.83-515.11-1-7-10.51-60.34-22.69-115.67l196.36-.54C2063.19,583.11,2083.39,603.74,2080,629.26Z"/></g></g></svg>