<?xml version="1.0" encoding="utf-8"?>
<!-- Generator: Adobe Illustrator 24.0.2, SVG Export Plug-In . SVG Version: 6.00 Build 0)  -->
<svg version="1.1" id="Layer_1" xmlns="http://www.w3.org/2000/svg" xmlns:xlink="http://www.w3.org/1999/xlink" x="0px" y="0px"
	 viewBox="0 0 512 512" style="enable-background:new 0 0 512 512;" xml:space="preserve">
<style type="text/css">
	.st0{fill:#3E4852;}
	.st1{fill:#5B56D6;}
	.st2{fill:#E2E6E7;}
	.st3{fill:#D7DEE8;}
	.st4{fill:#FBFCF7;}
	.st5{fill:#F37157;}
	.st6{fill:#EDEEF3;}
</style>
<path class="st0" d="M512,256c0,141.4-114.6,256-256,256S0,397.4,0,256S114.6,0,256,0S512,114.6,512,256z"/>
<path class="st1" d="M512,256c0,141.4-114.6,256-256,256S0,397.4,0,256S114.6,0,256,0S512,114.6,512,256z"/>
<path class="st2" d="M491,287.9c-2-37.1-101.9-79.2-101.9-117H122.9c0,37.8-99.9,79.9-101.9,117C19,325,46,407,256,407
	S493,325,491,287.9z"/>
<path class="st3" d="M373.8,362H138.2c-36.5,0-68.3,22.3-81.7,54.5C103.5,474.7,175.4,512,256,512s152.5-37.3,199.5-95.5
	C442.1,384.2,410.3,362,373.8,362z"/>
<path class="st3" d="M256,170.9H122.9c0,37.8-99.9,79.9-101.9,117C19,325,46,407,256,407V170.9z"/>
<path class="st4" d="M489.8,360.5C478.2,301,389.1,227.8,389.1,170.9v-37.8C389.1,59.7,329.5,0.1,256,0.1S122.9,59.7,122.9,133.2
	v37.8c0,56.8-89.2,130.1-100.7,189.5c8.7,19.5,19.8,37.7,32.9,54.3C74.3,418,99.8,419,127,437c28.8,19,34.8,43,47.9,61.9
	c25.5,8.5,52.8,13.1,81.1,13.1s55.6-4.6,81.1-13.1C350.2,480,356.2,456,385,437c27.2-17.9,52.7-19,71.8-22.2
	C469.9,398.2,481,380,489.8,360.5z"/>
<path class="st1" d="M226,165c0-21.4-12.8-38.8-28.5-38.8S169,143.6,169,165s12.8,38.8,28.5,38.8S226,186.5,226,165z"/>
<path class="st1" d="M256,287.9c31.7,0,57.6-24.4,60.1-55.4c0.2-2.6-1.9-4.8-4.5-4.8H200.5c-2.6,0-4.7,2.2-4.5,4.8
	C198.4,263.5,224.3,287.9,256,287.9z"/>
<path class="st5" d="M295.2,273.4c-10.3-9.5-24.1-15.3-39.2-15.3s-28.9,5.8-39.2,15.3c10.5,9,24.2,14.5,39.2,14.5
	S284.7,282.4,295.2,273.4z"/>
<path class="st6" d="M247.2,336c-54.5-16.6-94.2-67.3-94.2-127.3v-75.5C152.9,64.8,204.6,8.4,271,1c-4.9-0.6-9.9-0.8-15-0.8
	c-73.5,0-133.1,59.6-133.1,133.1v37.8c0,56.8-89.2,130.1-100.7,189.5c8.7,19.5,19.8,37.7,32.9,54.3C74.3,418,99.8,419,127,437
	c28.8,19,34.8,43,47.9,61.9c25.5,8.5,52.8,13.1,81.1,13.1V348C256,342.5,252.4,337.6,247.2,336z"/>
<path class="st1" d="M344.6,165c0-21.4-12.8-38.8-28.5-38.8s-28.5,17.4-28.5,38.8s12.8,38.8,28.5,38.8S344.6,186.5,344.6,165z"/>
</svg>
