<?xml version="1.0" encoding="utf-8"?>
<!-- Generator: Adobe Illustrator 24.0.2, SVG Export Plug-In . SVG Version: 6.00 Build 0)  -->
<svg version="1.1" id="Illustration" xmlns="http://www.w3.org/2000/svg" xmlns:xlink="http://www.w3.org/1999/xlink" x="0px"
	 y="0px" viewBox="0 0 3710 3710" style="enable-background:new 0 0 3710 3710;" xml:space="preserve">
<style type="text/css">
	.st0{fill:#F4F7FA;}
	.st1{clip-path:url(#SVGID_3_);fill:url(#SVGID_4_);}
	.st2{opacity:0.5;clip-path:url(#SVGID_3_);}
	.st3{fill:#BEB8F2;}
	.st4{fill:url(#SVGID_5_);}
	.st5{opacity:0.5;clip-path:url(#SVGID_7_);}
	.st6{fill:#FCFDFE;}
	.st7{fill:url(#SVGID_8_);}
	.st8{opacity:0.5;clip-path:url(#SVGID_10_);}
	.st9{fill:url(#SVGID_11_);}
	.st10{fill:url(#SVGID_12_);}
	.st11{fill:url(#SVGID_13_);}
	.st12{fill:url(#SVGID_14_);}
	.st13{opacity:0.5;}
	.st14{fill:#FFFFFF;}
	.st15{opacity:0.63;}
	.st16{fill:url(#SVGID_15_);}
	.st17{fill:url(#SVGID_16_);}
	.st18{fill:url(#SVGID_17_);}
	.st19{fill:url(#SVGID_18_);}
	.st20{fill:url(#SVGID_19_);}
	.st21{opacity:0.3;fill:url(#SVGID_20_);}
	.st22{fill:url(#SVGID_21_);}
	.st23{fill:url(#SVGID_22_);}
	.st24{fill:url(#SVGID_23_);}
	.st25{fill:#26264F;}
	.st26{fill:url(#SVGID_24_);}
	.st27{fill:url(#SVGID_25_);}
	.st28{fill:url(#SVGID_26_);}
	.st29{opacity:0.25;fill:url(#SVGID_27_);}
	.st30{fill:#444B8C;}
	.st31{fill:url(#SVGID_28_);}
	.st32{fill:url(#SVGID_29_);}
	.st33{fill:url(#SVGID_30_);}
	.st34{fill:url(#SVGID_31_);}
	.st35{opacity:0.3;fill:url(#SVGID_32_);}
	.st36{fill:url(#SVGID_33_);}
	.st37{opacity:0.5;fill:#FFFFFF;}
	.st38{fill:url(#SVGID_34_);}
</style>
<path class="st0" d="M1661.7,455.3c-387.9,6.9-988,154.3-1160.7,533.3c-60.3,132.4-56.2,327-48.1,716.1
	c2.4,114.4,6.4,281.1,34.3,488c58.1,429.7,97.6,722.3,247.3,892.6c374.9,426.8,1729.3,414.5,2307.7-353.9
	c315.5-419.2,364-1015.5,75.5-1508.3C2800.1,680.5,2180.9,446.1,1661.7,455.3z"/>
<g>
	<g>
		<defs>
			<path id="SVGID_1_" d="M2004.3,3004l227.5,132.1c0,0,110.6-91.8,102.7-206.6c-16.1-234.1,190-231.9,276.5-243.9
				c130.4-18.1,237.5-90.9,131.2-211.4c-106.3-120.5,144.9-247.9,359.7-246.8c210.2,1.1,333.5-372-121.3-416.2
				c-271.6-26.4-370.1,220.6-449.6,333.5c-79.4,112.9-262,20-285.8,200.4c-20.4,154.1,25.3,301.7-99.2,343.4
				C2021.4,2730.5,1958.1,2821.6,2004.3,3004z"/>
		</defs>
		
			<linearGradient id="SVGID_2_" gradientUnits="userSpaceOnUse" x1="65.8122" y1="2679.489" x2="1571.5284" y2="2679.489" gradientTransform="matrix(0.9631 -0.269 0.269 0.9631 1122.8268 92.7938)">
			<stop  offset="0" style="stop-color:#FFC444"/>
			<stop  offset="0.9964" style="stop-color:#F36F56"/>
		</linearGradient>
		<use xlink:href="#SVGID_1_"  style="overflow:visible;fill:url(#SVGID_2_);"/>
		<clipPath id="SVGID_3_">
			<use xlink:href="#SVGID_1_"  style="overflow:visible;"/>
		</clipPath>
		<linearGradient id="SVGID_4_" gradientUnits="userSpaceOnUse" x1="3077.5112" y1="1779.1619" x2="2146.0769" y2="3052.6494">
			<stop  offset="0" style="stop-color:#FCB148"/>
			<stop  offset="5.207239e-02" style="stop-color:#FDBA46"/>
			<stop  offset="0.1424" style="stop-color:#FFC244"/>
			<stop  offset="0.3183" style="stop-color:#FFC444"/>
			<stop  offset="0.4849" style="stop-color:#FDB946"/>
			<stop  offset="0.7754" style="stop-color:#F99C4D"/>
			<stop  offset="0.8658" style="stop-color:#F8924F"/>
			<stop  offset="1" style="stop-color:#F8924F"/>
		</linearGradient>
		<path class="st1" d="M2004.3,3004l227.5,132.1c0,0,110.6-91.8,102.7-206.6c-16.1-234.1,190-231.9,276.5-243.9
			c130.4-18.1,222.6-85.8,148.9-207.3c-83.3-137.4,127.1-252.1,341.9-250.9c210.2,1.1,333.5-372-121.3-416.2
			c-271.6-26.4-370.1,220.6-449.6,333.5c-79.4,112.9-262,20-285.8,200.4c-20.4,154.1,25.3,301.7-99.2,343.4
			C2021.4,2730.5,1958.1,2821.6,2004.3,3004z"/>
		<g class="st2">
			<path class="st3" d="M2090.5,3082.3l5.2,1.9c1.2-3.2,118.8-326.9,332.1-612.7c196.6-263.2,517-547.2,927.1-405l1.8-5.2
				c-182.6-63.3-362.9-48.9-535.8,42.9c-138.2,73.3-271.9,195.8-397.6,364.1C2209.5,2754.7,2091.6,3079.1,2090.5,3082.3z"/>
			<path class="st3" d="M2750.3,2145.6l5.1,2.2c72.4-170.1,263.7-360.3,265.6-362.2l-3.9-4
				C3015.2,1783.5,2823.1,1974.5,2750.3,2145.6z"/>
			<path class="st3" d="M2867.2,2087.6c220.2-6.8,343.1,129.2,344.4,130.6l4.2-3.7c-1.2-1.4-125.8-139.4-348.7-132.5L2867.2,2087.6z
				"/>
			<path class="st3" d="M2298.5,2665.9c185.2-195.2,525.4-71.9,528.6-70.4l2.6-4.9c-3-1.8-348.5-125.5-535.3,71.5L2298.5,2665.9z"/>
			<path class="st3" d="M2352.8,2569.1l5.3,1.8c54.2-162.9-45.4-354.6-46.4-356.5l-4.9,2.6
				C2307.7,2218.9,2406.2,2408.4,2352.8,2569.1z"/>
			<path class="st3" d="M2115.3,3033.6c58.1-84.1,224.5-80.8,226.1-80.8l0.1-5.5c-7-0.2-171-3.4-230.9,83.2L2115.3,3033.6z"/>
			<path class="st3" d="M2142.1,2956.6l5.2,1.9c28.3-75.7-31.3-213-50.9-258.1c-2.8-6.4-5.2-11.9-5.4-12.9l-5.4,1.1
				c0.3,1.5,1.9,5.2,5.7,14C2110.7,2747.3,2169.6,2883,2142.1,2956.6z"/>
		</g>
	</g>
	<g>
		
			<linearGradient id="SVGID_5_" gradientUnits="userSpaceOnUse" x1="960.9199" y1="933.3851" x2="418.8773" y2="2143.7705" gradientTransform="matrix(0.9631 -0.269 0.269 0.9631 1122.8268 92.7938)">
			<stop  offset="0" style="stop-color:#FF9085"/>
			<stop  offset="1" style="stop-color:#FB6FBB"/>
		</linearGradient>
		<path class="st4" d="M2356.3,2383.1c64,58.4,57.8,142.3,43.9,202.2c-7.8,2.9-11.6,6.5-18.8,11.2c-65.1,41.8-101.8,45.8-172.5,76.9
			c-15.2,6.7-65.9,12.7-86.7,13.9l-38.9,1.5c0,0-129.7-151.6-52.1-234.4s-27.3-242.4-72.5-333.8c-27.7-56.1-22.4-90.7-29.3-112.9
			c-72.8-235.6-167.9-277.8-144.5-368.9c25.8-100.6,149.1-78,182.9-185.9c38.2-121.9-93.2-232.7-31.3-340c10.6-18.4,22-37,44.7-54
			c55.9-42,120.7-24.5,146.2-93c51.2-137.7,186.1-229.2,317.5-154.1c129.7,74.2,105.7,323.9-93.6,589.6
			c-120.2,205.1-106.3,248.5-51.8,346.7c38.1,68.8,187,230.1,110,343.8C2332.6,2205.6,2283.1,2316.3,2356.3,2383.1z"/>
		<g>
			<defs>
				<path id="SVGID_6_" d="M2376.8,2660.5l-285.3,32.4c0,0-138-155.8-60.4-238.6c77.6-82.9-27.3-242.4-72.4-333.8
					c-122.5-247.9,186.8-333.2,57.1-664.2c-34.5-88-132.2-244.4-79.2-343.6c60.4-113,158.2-58.9,190.9-147
					c51.2-137.7,186.1-229.2,317.5-154.1c129.7,74.2,105.7,323.9-93.6,589.6c-120.2,205.1-106.3,248.5-51.8,346.7
					c38.1,68.8,187,230.1,110,343.8c-77,113.7-126.5,224.4-53.3,291.2C2467.6,2484.8,2376.8,2660.5,2376.8,2660.5z"/>
			</defs>
			<clipPath id="SVGID_7_">
				<use xlink:href="#SVGID_6_"  style="overflow:visible;"/>
			</clipPath>
			<g class="st5">
				<path class="st6" d="M2247.7,2662.3l-5.5,1.3c-7.5-30.5-14.7-61.4-21.3-91.8c-48.9-224.9-73.4-446.4-72.7-658.5
					c0.6-179.7,19.2-355.1,55.2-521.4c29-133.7,69.5-262.2,120.2-382.1c35.7-84.2,76-163.3,120-235c7.7-12.5,16.2-24.9,24.5-36.9
					c11-16,22.5-32.5,31.8-49.4l5,2.3c-9.5,17.1-21,33.8-32.1,49.8c-8.2,11.9-16.8,24.3-24.3,36.6c-43.8,71.5-84,150.3-119.6,234.3
					c-50.6,119.5-91,247.7-119.9,381.1c-36,165.9-54.6,341-55.1,520.3c-0.7,211.7,23.8,432.9,72.6,657.4
					C2233.1,2601,2240.2,2631.9,2247.7,2662.3z"/>
				<path class="st6" d="M2174,1596.7l-5.7-0.3c22.2-226.4-202.1-548.7-204.4-552l4.8-3C1971,1044.7,2196.4,1368.5,2174,1596.7z"/>
				<path class="st6" d="M2171.4,2233.6l-5.7,0.3c-4.2-155,232.8-361.5,235.2-363.6l3.8,3.8
					C2402.3,1876.2,2167.2,2081,2171.4,2233.6z"/>
				<path class="st6" d="M2181.9,2321.2l-5.6,1.2c-22-98.7-108.9-220.9-244.8-344.2c-6.8-6.2-6.8-6.2-7.1-7.2l5.6-1.3l-2.8,0.6
					l2.3-1.5c0.4,0.5,3,2.8,6,5.5C2072.3,2098.3,2159.7,2221.5,2181.9,2321.2z"/>
				<path class="st6" d="M2234.9,2606.5l-5.7-0.3c10.5-111.4,158.2-207.3,159.7-208.2l3.1,4.3
					C2390.6,2403.2,2245.1,2497.6,2234.9,2606.5z"/>
				<path class="st6" d="M2239.8,2665.6c-52.2-74.4-129.6-136.8-236.4-190.6l2.8-4.7c107.6,54.2,185.6,117.1,238.4,192.3
					L2239.8,2665.6z"/>
				<path class="st6" d="M2300.2,1082.8l-5.6-0.6c19.9-125.4,9.6-260.7,6.3-305.2c-0.8-10.8-1.1-14.6-0.9-15.9l5.6,0.4
					c-0.1,1,0.4,7.2,1,15C2310,821.1,2320.2,956.8,2300.2,1082.8z"/>
				<path class="st6" d="M2235.6,1283.1l-5.1-2.2c54.9-108.2,295.3-192.3,305.5-195.8l1.9,5
					C2535.4,1091,2289.5,1176.9,2235.6,1283.1z"/>
			</g>
		</g>
	</g>
	<g>
		
			<linearGradient id="SVGID_8_" gradientUnits="userSpaceOnUse" x1="3872.7798" y1="1844.9836" x2="4866.8638" y2="3481.502" gradientTransform="matrix(-0.9821 0.1885 0.1885 0.9821 6215.2192 -1423.8668)">
			<stop  offset="0" style="stop-color:#AA80F9"/>
			<stop  offset="0.9964" style="stop-color:#6165D7"/>
		</linearGradient>
		<path class="st7" d="M2403.4,2861.8c-19.6,1.3-64,188.1-144.2,72.2c-20-29-57.1-135.3-200.1-112.9c-27.8,4.3-55.5,8.7-83.3,13
			c-35.7-57.4-58.7-118,20.4-157.9c122.8-61.9,81-278.8,29.4-348.4c-63.9-86.1-208.4-289.7-20.1-388.2
			c156.7-82.1,275.4-104.9,244.9-309.9c-30.4-205,60.7-354.2,258.3-379.8c208-26.9,322.8-317,508.9-263.3
			c324.3,93.6,151.6,591.7-177.9,789.9c-329.6,198.2-99.9,279.8-55.8,443.9c3.2,15.5,7,39.7,6.1,69.1
			c-5.7,181.3-181.2,246.3-283.5,413.5C2367.1,2931.2,2436.5,2859.6,2403.4,2861.8z"/>
		<g>
			<defs>
				<path id="SVGID_9_" d="M2449.2,2796.8l-448.1,83c-38-55-93.3-159.1-5-203.6c122.8-61.9,81-278.8,29.4-348.4
					c-63.9-86.1-208.4-289.7-20.1-388.2c156.7-82.1,275.4-104.9,244.9-309.9c-30.4-205,60.7-354.2,258.3-379.8
					c208-26.9,322.8-317,508.9-263.3c324.3,93.6,151.6,591.7-177.9,789.9c-329.6,198.2-99.9,279.8-55.8,443.9
					c60.2,224-274.8,238.3-342.1,343.9C2388.9,2647,2421.4,2740.9,2449.2,2796.8z"/>
			</defs>
			<clipPath id="SVGID_10_">
				<use xlink:href="#SVGID_9_"  style="overflow:visible;"/>
			</clipPath>
			<g class="st8">
				<path class="st6" d="M2225,2769.5l-9.9,0c6.4-681.9,363.2-1360.4,931.3-1770.6l6,7.4C2586.7,1414.7,2231.4,2090.4,2225,2769.5z"
					/>
				<path class="st6" d="M2262.2,2397.7l-9.7,1.8c-53.6-262.7-334-422.3-336.8-423.9l5.1-8
					C1923.7,1969.2,2207.8,2130.8,2262.2,2397.7z"/>
				<path class="st6" d="M2229.8,2644l-9.4-2.7c86.4-259.9,593-390.3,598.1-391.6l2.5,9C2816,2259.9,2314.5,2389.1,2229.8,2644z"/>
				<path class="st6" d="M2490.7,1763.3l-9.6-1.9c49.7-210.8-145.4-483.6-147.4-486.3l8.2-5.3
					C2343.8,1272.4,2541.3,1548.6,2490.7,1763.3z"/>
				<path class="st6" d="M2737.2,1396.1l-6.7-6.8c191.9-167.3,543.2-161.6,546.7-161.5l-0.3,9.3
					C3273.4,1237,2926.1,1231.4,2737.2,1396.1z"/>
			</g>
		</g>
	</g>
</g>
<g>
	<g>
		<linearGradient id="SVGID_11_" gradientUnits="userSpaceOnUse" x1="1437.9983" y1="1894.1477" x2="974.3206" y2="1944.7305">
			<stop  offset="0" style="stop-color:#444B8C"/>
			<stop  offset="0.9964" style="stop-color:#26264F"/>
		</linearGradient>
		<path class="st9" d="M1991.7,725.9l282.5,2347.9c4.2,35.2-20,66.8-54,70.1l-1176.6,129.2c-72.1,4.5-111.5-32.3-116-69.8L631,707.1
			c-4.4-37.2,30.9-70.9,103.3-70.9l1187.3,25C1956,661.8,1987.4,690.9,1991.7,725.9z"/>
		<linearGradient id="SVGID_12_" gradientUnits="userSpaceOnUse" x1="1846.5422" y1="725.3555" x2="700.0015" y2="4628.6621">
			<stop  offset="0" style="stop-color:#444B8C"/>
			<stop  offset="0.9964" style="stop-color:#26264F"/>
		</linearGradient>
		<path class="st10" d="M2044.6,721.9l284,2359.7c4.3,35.4-20.1,67.1-54.2,70.5l-1219.8,121.4c-38.2,3.8-73.3-23.9-77.8-61.5
			L678.7,702.9c-4.4-37.4,23.6-67.5,62.3-66.8l1233.3,20.8C2008.8,657.4,2040.4,686.7,2044.6,721.9z"/>
		<linearGradient id="SVGID_13_" gradientUnits="userSpaceOnUse" x1="1567.2821" y1="399.2916" x2="1426.9463" y2="4300.6484">
			<stop  offset="0" style="stop-color:#FF9085"/>
			<stop  offset="1" style="stop-color:#FB6FBB"/>
		</linearGradient>
		<path class="st11" d="M2021.5,852l263.3,2187.9c4,33.1-18.8,62.6-50.8,65.7l-1147.2,111.5c-35.6,3.5-68.1-22.4-72.3-57.4
			L738.9,841.9c-4.1-34.8,21.9-63,57.8-62.7l1158.9,12.3C1987.9,792,2017.5,819.2,2021.5,852z"/>
		<linearGradient id="SVGID_14_" gradientUnits="userSpaceOnUse" x1="1416.9064" y1="629.2139" x2="69.4092" y2="4278.6851">
			<stop  offset="0" style="stop-color:#311944"/>
			<stop  offset="1" style="stop-color:#893976"/>
		</linearGradient>
		<path class="st12" d="M1406.3,720.3c1.5,12.6-7.5,22.6-20.1,22.5c-12.7-0.2-24.1-10.5-25.6-23.1c-1.5-12.6,7.5-22.6,20.2-22.5
			C1393.3,697.4,1404.8,707.7,1406.3,720.3z"/>
		<g class="st13">
			<path class="st14" d="M1823.1,2320.7c-234.8-434.2-585.7-564.2-691.3-1011.7c-57.1-241.9-18.2-473.4,47.3-665.6L741,636
				c-38.7-0.7-66.7,29.4-62.3,66.8L976.9,3212c4.5,37.6,39.5,65.3,77.8,61.5l958.9-95.5C2020.6,2789,1927.8,2514.2,1823.1,2320.7z"
				/>
		</g>
	</g>
	<g class="st15">
		<path class="st14" d="M2013.2,2067.4l-930.6,37.2c-26.4,1.1-49.4-17.9-53.4-44l-0.7-4.7c-4.7-30.7,18.4-58.6,49.5-59.7l931.3-32.6
			c26.3-0.9,49.1,18,53.1,44l0,0.2C2067.1,2038.3,2044.1,2066.1,2013.2,2067.4z"/>
		<path class="st14" d="M2040.6,2244l-929.4,45c-26.5,1.3-49.8-17.7-53.8-44l-0.7-4.8c-4.7-30.5,18.2-58.3,49-59.7l930.1-40.4
			c26.5-1.1,49.5,17.8,53.5,44l0,0.2C2094.1,2214.8,2071.4,2242.6,2040.6,2244z"/>
		<path class="st14" d="M2068.1,2420.7l-928.2,52.8c-26.7,1.5-50.2-17.5-54.2-44l-0.7-4.9c-4.6-30.3,17.9-58.1,48.6-59.7l928.9-48.2
			c26.6-1.4,49.9,17.6,54,44l0.1,0.3C2121.1,2391.3,2098.6,2419,2068.1,2420.7z"/>
	</g>
</g>
<g>
	<linearGradient id="SVGID_15_" gradientUnits="userSpaceOnUse" x1="1323.4196" y1="1274.5852" x2="623.2094" y2="1499.3038">
		<stop  offset="0" style="stop-color:#FCB148"/>
		<stop  offset="5.207239e-02" style="stop-color:#FDBA46"/>
		<stop  offset="0.1424" style="stop-color:#FFC244"/>
		<stop  offset="0.3183" style="stop-color:#FFC444"/>
		<stop  offset="0.4849" style="stop-color:#FDB946"/>
		<stop  offset="0.7754" style="stop-color:#F99C4D"/>
		<stop  offset="0.8658" style="stop-color:#F8924F"/>
		<stop  offset="1" style="stop-color:#F8924F"/>
	</linearGradient>
	<path class="st16" d="M2129.5,1249.2c0,324.8-254,580.4-578.6,570.4c-337.9-10.4-622-302.2-622-651.3
		c0-349.2,284.1-602.7,622-567.5C1875.5,634.6,2129.5,924.3,2129.5,1249.2z"/>
	<linearGradient id="SVGID_16_" gradientUnits="userSpaceOnUse" x1="1889.8486" y1="577.5961" x2="1264.744" y2="1956.6936">
		<stop  offset="0" style="stop-color:#FFDB44"/>
		<stop  offset="1" style="stop-color:#FEEF06"/>
	</linearGradient>
	<path class="st17" d="M2217.2,1221.2c0,324.8-254,580.4-578.6,570.4c-337.9-10.4-622-302.2-622-651.3
		c0-349.2,284.2-602.7,622-567.5C1963.2,606.6,2217.2,896.3,2217.2,1221.2z"/>
	<linearGradient id="SVGID_17_" gradientUnits="userSpaceOnUse" x1="1774.8605" y1="2033.7722" x2="1654.2452" y2="1374.8552">
		<stop  offset="0" style="stop-color:#FCB148"/>
		<stop  offset="5.207239e-02" style="stop-color:#FDBA46"/>
		<stop  offset="0.1424" style="stop-color:#FFC244"/>
		<stop  offset="0.3183" style="stop-color:#FFC444"/>
		<stop  offset="0.4849" style="stop-color:#FDB946"/>
		<stop  offset="0.7754" style="stop-color:#F99C4D"/>
		<stop  offset="0.8658" style="stop-color:#F8924F"/>
		<stop  offset="1" style="stop-color:#F8924F"/>
	</linearGradient>
	<path class="st18" d="M2191.8,1219.5c0,310.5-243,554.4-553.2,544.4c-322.2-10.4-592.7-288.9-592.7-621.6s270.5-574.7,592.7-541.7
		C1948.7,632.3,2191.8,908.9,2191.8,1219.5z"/>
	<linearGradient id="SVGID_18_" gradientUnits="userSpaceOnUse" x1="1519.1332" y1="967.2424" x2="2016.2046" y2="2022.4303">
		<stop  offset="0" style="stop-color:#FCB148"/>
		<stop  offset="5.207239e-02" style="stop-color:#FDBA46"/>
		<stop  offset="0.1424" style="stop-color:#FFC244"/>
		<stop  offset="0.3183" style="stop-color:#FFC444"/>
		<stop  offset="0.4849" style="stop-color:#FDB946"/>
		<stop  offset="0.7754" style="stop-color:#F99C4D"/>
		<stop  offset="0.8658" style="stop-color:#F8924F"/>
		<stop  offset="1" style="stop-color:#F8924F"/>
	</linearGradient>
	<path class="st19" d="M2173.5,1218.2c0,300.3-235.2,535.8-534.9,525.8c-311-10.4-571.8-279.4-571.8-600.4s260.8-554.8,571.8-523.3
		C1938.3,650.7,2173.5,917.9,2173.5,1218.2z"/>
	<g>
		<linearGradient id="SVGID_19_" gradientUnits="userSpaceOnUse" x1="1499.3295" y1="740.1797" x2="1749.274" y2="1676.9281">
			<stop  offset="0" style="stop-color:#FFDB44"/>
			<stop  offset="1" style="stop-color:#FEEF06"/>
		</linearGradient>
		<path class="st20" d="M1635.5,722.5L1635.5,722.5c16,1.5,28.9,15.9,28.9,32.1v55.3c31.9,3.6,63.8,9.1,95.8,16.6
			c23.6,5.5,47,12.1,70.3,19.8c13.9,4.6,23.4,18.7,22,33.2l-6.8,69.3c-1.8,18.4-20,29.2-37.1,21.6c-15.3-6.8-31-12.7-47.1-17.6
			c-28.1-8.5-57.7-14-88.9-16.6l-8.2-0.7v158.3c83.2,23.3,144.3,54.6,183.8,94c39.3,39.2,58.9,88.1,58.9,146.7
			c0,63.4-21.6,114.2-65.1,152.5c-43.7,38.5-105,60.2-184.2,64.9v61c0,16.2-12.9,28.8-28.9,28.2l-0.5,0c-16-0.6-29-14.3-29-30.6
			v-60.2l-12.9-0.6c-37.1-1.7-72.7-5.5-106.7-11.4c-25.2-4.4-49.8-10-73.7-17c-14.5-4.2-24.5-18-23.1-32.9l8-89.1
			c1.7-19.3,21.1-30.5,39.4-23.3c21.4,8.4,43,15.5,64.9,21.3c34.1,9,68.7,14.8,103.7,17.3l0.5-176.1c-79.9-19.8-139.7-49-179-87.8
			c-39.5-39-59.3-88.8-59.3-149.4c0-62.7,21.5-111.2,64.3-145.1c42.6-33.8,103.1-50.6,181.2-50.6v-56.5
			C1606.6,732.9,1619.5,721,1635.5,722.5z M1606.6,933.9c-24.7,1.8-43.9,8.6-57.7,20.3c-13.8,11.8-20.7,27.6-20.7,47.5
			c0,18.8,6.4,34.6,19.2,47.2c12.7,12.6,32.5,22.7,59.3,30.2V933.9z M1657.7,1252.8v161.5c26.8,0.1,47.4-6.4,61.8-19.2
			c14.3-12.8,21.5-30.9,21.5-54.4c0-21.4-6.7-39.1-20-53.2C1707.7,1273.5,1686.6,1261.9,1657.7,1252.8z"/>
	</g>
	<linearGradient id="SVGID_20_" gradientUnits="userSpaceOnUse" x1="1372.8964" y1="1035.5289" x2="1868.9648" y2="2088.5879">
		<stop  offset="0" style="stop-color:#FCB148"/>
		<stop  offset="5.207239e-02" style="stop-color:#FDBA46"/>
		<stop  offset="0.1424" style="stop-color:#FFC244"/>
		<stop  offset="0.3183" style="stop-color:#FFC444"/>
		<stop  offset="0.4849" style="stop-color:#FDB946"/>
		<stop  offset="0.7754" style="stop-color:#F99C4D"/>
		<stop  offset="0.8658" style="stop-color:#F8924F"/>
		<stop  offset="1" style="stop-color:#F8924F"/>
	</linearGradient>
	<path class="st21" d="M1541.8,1291.8c18.1-178.5,182.1-254.1,160.7-418.3c-13.2-101.2-89.9-186.5-175.5-253.1
		c-259.5,27.2-460.2,242.1-460.2,523.2c0,321,260.8,589.9,571.8,600.4c30.2,1,59.7-0.6,88.4-4.3
		C1603.4,1616.8,1526.3,1445.1,1541.8,1291.8z"/>
</g>
<g>
	<g>
		<g>
			<linearGradient id="SVGID_21_" gradientUnits="userSpaceOnUse" x1="1864.3337" y1="1516.8774" x2="1866.6727" y2="1417.4727">
				<stop  offset="0" style="stop-color:#311944"/>
				<stop  offset="1" style="stop-color:#893976"/>
			</linearGradient>
			<path class="st22" d="M1881.2,1376.5c4.8-7.5,13.6-23.3,14.1-44.6c1.1-41.4-29.6-73.7-33.7-71.8c-2.2,1,0.6,13.1,2.2,18.5
				c3.3,11.2,6.8,12.3,6.5,17.4c-0.6,10.6-15.9,11-23.9,25c-5.8,10.1-6.3,24.5,0,35.9C1856.8,1375.8,1880.2,1376.5,1881.2,1376.5z"
				/>
			<linearGradient id="SVGID_22_" gradientUnits="userSpaceOnUse" x1="2547.4578" y1="2409.4504" x2="2562.6611" y2="2239.8774">
				<stop  offset="0" style="stop-color:#311944"/>
				<stop  offset="1" style="stop-color:#893976"/>
			</linearGradient>
			<polygon class="st23" points="2537.1,2275.6 2525.3,2235 2574.5,2198.5 2605.2,2187 2587.1,2243.9 			"/>
			<linearGradient id="SVGID_23_" gradientUnits="userSpaceOnUse" x1="2505.656" y1="3063.1536" x2="2519.6897" y2="3322.7756">
				<stop  offset="0" style="stop-color:#311944"/>
				<stop  offset="1" style="stop-color:#893976"/>
			</linearGradient>
			<path class="st24" d="M2476.1,3093.5c0,0,26.9,67.8,19.9,97.9c28.9-0.6,47.7-4.3,47.7-4.3s-11.6-30.9-13.9-46.2
				c-3.1-20.7-2.8-54.2-2.8-54.2L2476.1,3093.5z"/>
			<path class="st25" d="M2179,3252.1c1.7,2.1,4.8,6.5,5.1,12.5c0.1,3.2-0.6,5.9-1.5,8.3c-4.6,12.1-11.8,13.7-19.6,26.5
				c-4.8,7.8-3.9,10.2-8.2,13.7c-5.7,4.7-12.7,4.9-18.7,5c-10.2,0.1-24.8-0.2-43.3-2.4c9.7-12.5,20-25.1,30.9-37.9
				c4.8-5.6,9.6-11.1,14.4-16.4l28.4-9.6C2170.6,3251.8,2174.8,3252,2179,3252.1z"/>
			<linearGradient id="SVGID_24_" gradientUnits="userSpaceOnUse" x1="2124.0447" y1="3083.7813" x2="2138.0786" y2="3343.4028">
				<stop  offset="0" style="stop-color:#311944"/>
				<stop  offset="1" style="stop-color:#893976"/>
			</linearGradient>
			<path class="st26" d="M2155.4,3114c0,0-16.3,84.8,4.4,108.6c17.6,23.7-8.5,6.8-8.5,6.8l-31.2,27.2l-18.7,32.3
				c0,0,17.2-83,12.6-115.9c-4.6-32.9-6.9-55.2-6.9-55.2L2155.4,3114z"/>
			
				<linearGradient id="SVGID_25_" gradientUnits="userSpaceOnUse" x1="800.8647" y1="2658.147" x2="1287.4957" y2="2658.147" gradientTransform="matrix(1 0 0 1 1249.563 0)">
				<stop  offset="0" style="stop-color:#311944"/>
				<stop  offset="1" style="stop-color:#893976"/>
			</linearGradient>
			<path class="st27" d="M2094.1,2186.4c0,0-43.7,39.1-43.7,199.9c0,160.9,20.7,510.2,20.7,510.2l33.1,250.1c0,0,34.3,1.2,57.3-5.7
				c20.7-94.2,54.4-253.6,38.3-386.9c-6.9-144.8,57.5-326.3,57.5-326.3s55.2,183.8,94.2,275.8c39.1,91.9,113.4,379.9,120.3,400.6
				c45.7,4.1,65.2-7.9,65.2-7.9s-29.3-309.9-56.9-427.1c-27.6-117.2-25.3-399.9-71.2-480.3
				C2305.5,2147.3,2094.1,2186.4,2094.1,2186.4z"/>
			
				<linearGradient id="SVGID_26_" gradientUnits="userSpaceOnUse" x1="785.3993" y1="2295.3906" x2="1135.9896" y2="2884.2471" gradientTransform="matrix(1 0 0 1 1249.563 0)">
				<stop  offset="0" style="stop-color:#311944"/>
				<stop  offset="1" style="stop-color:#893976"/>
			</linearGradient>
			<path class="st28" d="M2094.1,2186.4c0,0-43.7,39.1-43.7,199.9c0,160.9,20.7,510.2,20.7,510.2l33.1,250.1c0,0,34.3,1.2,57.3-5.7
				c20.7-94.2,54.4-253.6,38.3-386.9c-6.9-144.8,57.5-326.3,57.5-326.3s55.2,183.8,94.2,275.8c39.1,91.9,113.4,379.9,120.3,400.6
				c45.7,4.1,65.2-7.9,65.2-7.9s-29.3-309.9-56.9-427.1c-27.6-117.2-25.3-399.9-71.2-480.3
				C2305.5,2147.3,2094.1,2186.4,2094.1,2186.4z"/>
			
				<linearGradient id="SVGID_27_" gradientUnits="userSpaceOnUse" x1="923.4173" y1="2213.218" x2="1274.0076" y2="2802.0747" gradientTransform="matrix(1 0 0 1 1249.563 0)">
				<stop  offset="0" style="stop-color:#311944"/>
				<stop  offset="1" style="stop-color:#893976"/>
			</linearGradient>
			<path class="st29" d="M2320.9,2481.1c13.6,88.5,40.8,136.2,108.9,197.4c54.5,40.8,13.6,129.3,34,197.4
				c6.8,20.4,27.2,40.8,34,61.3c25.3,50.7,1.7,112.6,13.2,166.3c17.9-2.5,26-7.4,26-7.4s-29.3-309.9-56.9-427.1
				c-27.6-117.2-25.3-399.9-71.2-480.3c-103.4-41.4-314.8-2.3-314.8-2.3s-43.7,39.1-43.7,199.9c0,13.1,0.1,27.4,0.4,42.6
				c45.3,40.1,138,49,195.2,4.6c3.5-2.6,7.1-4.2,10.9-5c0.2-0.5,0.3-0.9,0.3-0.9s0.1,0.3,0.2,0.8
				C2283.5,2423.7,2315,2457.5,2320.9,2481.1z"/>
			<g>
				<path class="st25" d="M2488.8,3217.1c0,0-6.7,0-6.2,8.7c0.6,8.7-3,38.5,31.1,39.9c34.1,1.4,39.4-2.4,40.5-2.4
					c1.1,0-9-28.5-9-28.5l-10.9-14l-29.4-3.1L2488.8,3217.1z"/>
				<path class="st30" d="M2564.5,3247.1c-0.7-7.2-4.8-18.5-8.8-27.7c-6-13.6-1.1-18.6-6.8-31c-2-4.3-3.9-8.3-8.1-12.3
					c-1-0.9-10.4-9.6-24.1-9.2c-2.7,0.1-6.9,0.3-11.3,2.7c-5.3,2.8-7.9,7.1-10.2,10.8c-3.6,5.8-2.7,7.6-8.2,24.4
					c-0.4,1.3-1.4,4.3-2.1,8.3c-0.6,3.1-0.8,5.7-0.9,7.5c9,0,43.4,1.4,50.6,6.7c7.3,5.3,10.9,14.3,10.9,23.2c0,9,4.5,13.2,9,12.9
					C2558.3,3263,2566.3,3255.6,2564.5,3247.1z"/>
			</g>
			<path class="st30" d="M2151,3210.7c7.7,0.1,13.3,6.2,17.6,21c4.3,14.8,24.7,27.8,0.9,24.7c-23.8-3.1-41.1,30.6-49.6,43.1
				c-8.5,12.5-31.4,23.6-30.8,11.4c0.6-12.2,10.6-17.9,13.5-30.4C2105.3,3268,2133.5,3210.4,2151,3210.7z"/>
			<path class="st14" d="M2555.1,2205.8c5.7-15.7,40.9-119-16.1-213.2c-46.7-77.1-127.5-102.2-139-105.6
				c-70.1-20.7-105.3,5.9-127.4-18.6c-37.5-41.6,5-183.1,87.3-211.4c92.7-32,204,90.9,249.1,171.6c59.1,105.9,44.6,211.1,41.2,232.8
				c-8.9,56.3-29.6,99.3-44.9,125.7C2588.5,2193.3,2571.8,2199.5,2555.1,2205.8z"/>
			<path class="st14" d="M2313,1637c-82.8-3.3-146.6-2-182.7,34c-38.1,38.1,0.4,81-7.9,180.6c-12.7,152.4-109.8,189.7-117.1,344.3
				c-2.5,52.1,6.4,94.7,13.2,120.3c21.3,26.5,56.2,64,107.7,95.3c74.9,45.6,118.4,37.6,226,67.1c176,48.2,191.7,105.5,279,90.9
				c88.2-14.8,165.6-89,156.3-129.8c-5.6-24.4-41.2-17.5-82.1-54.7c-52.8-48-32.4-93.8-72.5-145.4c-57.6-74.1-137.9-28.8-187-93
				c-49.7-64.9-30-192.9,11.9-262.7c27.3-45.6,39.1-98.9,62.3-146.7c1.9-4,4.2-10.5,3.2-18.6c-3.8-31.1-55.6-48-94.9-60.4
				C2368.4,1639.5,2319.8,1637.2,2313,1637z"/>
			
				<linearGradient id="SVGID_28_" gradientUnits="userSpaceOnUse" x1="1013.5494" y1="1566.1224" x2="1085.4125" y2="1680.3438" gradientTransform="matrix(1 0 0 1 1249.563 0)">
				<stop  offset="3.597120e-03" style="stop-color:#E38DDD"/>
				<stop  offset="1" style="stop-color:#9571F6"/>
			</linearGradient>
			<path class="st31" d="M2243.3,1633.5l16.3-5c0,0,4.3,22.1,56.8,24.9c29.1,0,48-16.3,48-16.3l11.2,8.1c0,0-24.5,30.6-63.4,29.8
				C2261.8,1674,2243.3,1633.5,2243.3,1633.5z"/>
			<g>
				
					<linearGradient id="SVGID_29_" gradientUnits="userSpaceOnUse" x1="4279.0063" y1="3709.8169" x2="4107.0947" y2="3595.7942" gradientTransform="matrix(1 0 0 1 1249.563 0)">
					<stop  offset="0" style="stop-color:#311944"/>
					<stop  offset="1" style="stop-color:#893976"/>
				</linearGradient>
				<path class="st32" d="M2276.5,1566.3c3.1-24.3,22.3-39.8,26.5-43.2c17.5-13.9,21.1-15.3,27.1-16.5l8.2-1.2c0,0,0.4,0,0.9,0
					c4.8,0.3,19.2,5.9,21.9,7.8c8.4,5.9,2.2,47.6-23.2,99.5c-1,4.4-2,8.8-3,13.2c22.1,3.9,27.6,7.9,27.8,11.1
					c0.4,6.9-23.9,15.7-46.3,16.3c-28.2,0.7-58.1-11.4-57.5-20.5c0.2-3.7,5.5-8.2,26-12.6c3.2-4.5,6.4-9,9.6-13.5
					C2291.6,1603.3,2274.2,1584.2,2276.5,1566.3z"/>
				
					<linearGradient id="SVGID_30_" gradientUnits="userSpaceOnUse" x1="2766.8477" y1="2564.1304" x2="2594.9351" y2="2450.1069" gradientTransform="matrix(0.9717 -0.2361 0.2361 0.9717 1534.775 640.4756)">
					<stop  offset="0" style="stop-color:#311944"/>
					<stop  offset="1" style="stop-color:#893976"/>
				</linearGradient>
				<path class="st33" d="M2311.3,1557.2c6.4-3.8,11.3,4.4,8.2,11.6c-3,7.2-13.1,11.7-19.3,7.4
					C2294.2,1571.9,2302.7,1562.3,2311.3,1557.2z"/>
				<linearGradient id="SVGID_31_" gradientUnits="userSpaceOnUse" x1="2298.4373" y1="1002.9163" x2="2960.3267" y2="2054.9436">
					<stop  offset="0" style="stop-color:#444B8C"/>
					<stop  offset="0.9964" style="stop-color:#26264F"/>
				</linearGradient>
				<path class="st34" d="M3139.7,1557.1c-84.1-91.3-279.9-66.3-388.4,7.1c-50.4,34.1-76.3,74.3-135.9,77.7
					c-45.3,2.6-117.4-14.5-155.4-63.6c-4.8-6.2-23.9-32.1-52.6-64.8c-12.7-14.4-25.3-28-44.8-31c-5-0.8-21.5-3.5-32.4,7.2
					c-8.8,8.6-11,23.6-8.4,34.5c1.6,6.5,3.6,7.2,3.3,11.4c-0.8,11.9-22.5,17.1-21.3,23.1c0.9,4.3,12.1,2.7,14.1,8.1
					c2.1,5.9-10.3,11-15.6,25.8c-10,6.7-16.3,23.3-18.5,45.5c-3.2,32.7,0.1,59.2,6.3,79.2c29.8,96.3,51.1,165.2,102.8,203.6
					c68.3,50.9,129.9,3.9,303.7-3.5c238-10.2,297.4,70.5,382.9,15.3C3186.2,1863.6,3227,1651.8,3139.7,1557.1z"/>
			</g>
			<path class="st14" d="M1891.3,1370.7c-2.1,19.9-9.3,108,51.5,182.4c56.8,69.5,137.2,83.4,152.1,85.6
				c72.3,10.9,103.5-20.2,128.7,1c42.9,36,20.1,182-57.5,221.4c-87.5,44.3-214.5-62.2-270.2-136c-73.1-96.8-73-203-72.6-225
				c1.1-57,15.7-102.4,27.3-130.6c4.8-1.4,12-3,20.9-2.7C1879.9,1367.2,1886.7,1369.1,1891.3,1370.7z"/>
			<linearGradient id="SVGID_32_" gradientUnits="userSpaceOnUse" x1="2045.0342" y1="1689.2858" x2="2421.0732" y2="2462.55">
				<stop  offset="3.597120e-03" style="stop-color:#E38DDD"/>
				<stop  offset="1" style="stop-color:#9571F6"/>
			</linearGradient>
			<path class="st35" d="M2633.8,2511.3c-21.2-21.7,2.1-65.5-29.1-98c-29-30.2-61.9-5.8-108.6-31.8
				c-59.9-33.3-43.4-94.3-100.6-127.1c-41.2-23.6-60.5,1.8-124.5-10.6c-63.9-12.3-141.7-56.4-180.1-135.1
				c-16.3-33.4-22.3-66.7-23.1-96.4c-28.7,51.3-58.5,100.5-62.4,183.5c-2.5,52.1,6.4,94.7,13.2,120.3c21.3,26.5,56.2,64,107.7,95.3
				c74.9,45.6,118.4,37.6,226,67.1c176,48.2,191.7,105.5,279,90.9c56.4-9.4,108.2-43.2,135.9-76.9
				C2685.8,2528.9,2649.2,2527.1,2633.8,2511.3z"/>
		</g>
	</g>
</g>
<g>
	<linearGradient id="SVGID_33_" gradientUnits="userSpaceOnUse" x1="1314.0162" y1="2166.0146" x2="876.0389" y2="3001.7476">
		<stop  offset="0" style="stop-color:#AA80F9"/>
		<stop  offset="0.9964" style="stop-color:#6165D7"/>
	</linearGradient>
	<path class="st36" d="M829.1,3245.6c-51.1-4.1-116.4-18.2-179.1-59.2c-67.9-44.4-156.2-135.5-133.2-193
		c8.6-21.4,33.4-39.8,55.2-38.1c32.2,2.6,35.9,47.3,91.9,96c10.3,9,63.8,55.5,90.3,39.8c13.2-7.8,17.1-29.4,15-45.8
		c-6.3-48-64.9-55.3-121.2-107.3c-57.1-52.6-104.7-144.5-77.5-206.6c15.6-35.7,57-63.9,84.2-55.9c11.6,3.4,19,12.9,54.2,89.1
		c28.9,62.5,35.4,80.8,54,86.7c19.2,6.1,49.1-1.6,60.4-20.5c29.6-49.3-98.2-122.1-109.8-260c-5.2-61.8,11.5-153.4,67.5-173.1
		c37.8-13.3,91.7,7,111.2,41.7c17.6,31.3-3.8,54.8,9.6,125.1c4.1,21.3,12.4,65.2,30.1,67.5c20.7,2.7,43.9-53.3,49.3-66.9
		c40.4-102.6-5.9-155.4,32.1-205.2c29.7-38.8,94.3-54.5,145.4-34.8c44.8,17.2,80.6,61.8,83,108.1c2.4,47.1-37.2,94-116.4,187.7
		c-37.6,44.5-67.4,74.5-65.7,118.7c0.8,21.5,9.4,51.8,24.8,54.6c34.1,6.1,50.8-131,131.5-152.2c41.3-10.8,92.6,10.5,115.2,47.7
		c27.6,45.6,9.1,110.3-25.6,144.3c-45.3,44.4-91.8,10.6-177,58.3c-37.8,21.1-97.2,66.1-88.5,103.3c3.8,16.2,20.8,32,39.4,34.2
		c41.7,4.7,55.5-63.7,122.7-93.8c48.4-21.7,115.2-19.3,131.1,7.9c22.4,38.5-57.2,125.9-99.6,164.5
		C1182.6,3155.2,1061.8,3243.8,829.1,3245.6z"/>
	<path class="st37" d="M852,3223.7c-6.7-114.4,69-347.5,124.2-457.7c54-107.8,105.6-278.4,106.1-280.1l3.4,1
		c-0.5,1.7-52.2,172.6-106.3,280.7c-55,109.8-130.5,342.1-123.8,455.9L852,3223.7z"/>
</g>
<linearGradient id="SVGID_34_" gradientUnits="userSpaceOnUse" x1="1007.9348" y1="2794.8154" x2="505.2263" y2="3397.4595">
	<stop  offset="3.597120e-03" style="stop-color:#E38DDD"/>
	<stop  offset="1" style="stop-color:#9571F6"/>
</linearGradient>
<path class="st38" d="M708.7,3260.5c-38.5-53.4-94.9-149.7-105-278.6c-4.2-53.1-12.3-156.8,51.1-246.3
	c31.6-44.6,98.7-110.6,144-91.5c29.2,12.2,47.3,58.8,39,94.2c-8.3,35.7-38.5,39-71.3,99.6c-12.2,22.4-26.1,48.7-15.4,63.6
	c8.9,12.4,33.4,14.7,51.8,7.2c37.9-15.4,26.1-62.6,67.1-96.5c29.2-24.1,77.8-35.4,98.7-15.7c18.2,17.1,15,57.1-1.1,83.8
	c-25.8,42.7-72,30.2-102.1,76.9c-13.4,20.7-22.9,52-11.2,64.4c13.3,14.1,52.5,1.9,77.7-13.7c33.2-20.6,34.4-42.5,56.3-45.2
	c24.4-3.1,54.9,20.2,59.6,45.8c6.7,36-37.5,74.8-72.4,91.6c-44.7,21.6-78,8.9-99.8,38.4c-8,10.8-15.4,28.5-8.8,39.2
	c9.4,15.3,43.3,10.2,65.8,6.9c54.8-8.2,69.9-28,89.5-18.4c19.9,9.8,30.1,42.8,21.5,66c-4.8,12.9-19.1,32.8-90.3,45.3
	C903.8,3286.3,820.2,3292.4,708.7,3260.5z"/>
</svg>
