<?xml version="1.0" encoding="utf-8"?>
<!-- Generator: Adobe Illustrator 24.0.2, SVG Export Plug-In . SVG Version: 6.00 Build 0)  -->
<svg version="1.1" xmlns="http://www.w3.org/2000/svg" xmlns:xlink="http://www.w3.org/1999/xlink" x="0px" y="0px"
	 viewBox="0 0 3710 3710" style="enable-background:new 0 0 3710 3710;" xml:space="preserve">
<style type="text/css">
	.st0{fill:#F4F7FA;}
	.st1{opacity:0.5;clip-path:url(#SVGID_3_);}
	.st2{fill:#FFFFFF;}
	.st3{opacity:0.5;clip-path:url(#SVGID_6_);}
	.st4{fill:#97A6B7;}
	.st5{fill:#D8DEE8;}
	.st6{fill:url(#SVGID_7_);}
	.st7{opacity:0.3;fill:#97A6B7;}
	.st8{fill:url(#SVGID_8_);}
	.st9{fill:url(#SVGID_9_);}
	.st10{fill:url(#SVGID_10_);}
	.st11{fill:#FCB048;}
	.st12{fill:url(#SVGID_11_);}
	.st13{fill:url(#SVGID_12_);}
	.st14{fill:url(#SVGID_13_);}
	.st15{fill:url(#SVGID_14_);}
	.st16{fill:url(#SVGID_15_);}
	.st17{fill:url(#SVGID_16_);}
	.st18{fill:url(#SVGID_17_);}
	.st19{fill:url(#SVGID_18_);}
	.st20{fill:url(#SVGID_19_);}
	.st21{fill:url(#SVGID_20_);}
	.st22{fill:url(#SVGID_21_);}
	.st23{fill:url(#SVGID_22_);}
	.st24{fill:url(#SVGID_23_);}
	.st25{fill:url(#SVGID_24_);}
	.st26{fill:url(#SVGID_25_);}
	.st27{fill:url(#SVGID_26_);}
	.st28{fill:url(#SVGID_27_);}
	.st29{fill:url(#SVGID_28_);}
	.st30{fill:url(#SVGID_29_);}
	.st31{fill:url(#SVGID_30_);}
	.st32{fill:url(#SVGID_31_);}
	.st33{fill:url(#SVGID_32_);}
	.st34{fill:url(#SVGID_33_);}
	.st35{fill:url(#SVGID_34_);}
	.st36{fill:url(#SVGID_35_);}
	.st37{fill:url(#SVGID_36_);}
	.st38{fill:url(#SVGID_37_);}
	.st39{fill:url(#SVGID_38_);}
	.st40{fill:url(#SVGID_39_);}
	.st41{fill:url(#SVGID_40_);}
	.st42{fill:url(#SVGID_41_);}
	.st43{fill:url(#SVGID_42_);}
	.st44{fill:url(#SVGID_43_);}
	.st45{fill:url(#SVGID_44_);}
	.st46{fill:url(#SVGID_45_);}
	.st47{fill:url(#SVGID_46_);}
	.st48{fill:url(#SVGID_47_);}
	.st49{fill:url(#SVGID_48_);}
	.st50{fill:url(#SVGID_49_);}
	.st51{fill:url(#SVGID_50_);}
	.st52{fill:url(#SVGID_51_);}
	.st53{fill:url(#SVGID_52_);}
	.st54{fill:url(#SVGID_53_);}
	.st55{opacity:0.3;fill:url(#SVGID_54_);}
	.st56{fill:url(#SVGID_55_);}
	.st57{fill:url(#SVGID_56_);}
	.st58{opacity:0.3;fill:url(#SVGID_57_);}
	.st59{fill:url(#SVGID_58_);}
	.st60{fill:url(#SVGID_59_);}
	.st61{fill:url(#SVGID_60_);}
	.st62{fill:url(#SVGID_61_);}
	.st63{opacity:0.5;fill:#FFFFFF;}
	.st64{fill:url(#SVGID_62_);}
	.st65{fill:url(#SVGID_63_);}
	.st66{opacity:0.3;fill:#FFFFFF;}
	.st67{fill:url(#SVGID_64_);}
	.st68{fill:url(#SVGID_65_);}
	.st69{fill:url(#SVGID_66_);}
	.st70{fill:url(#SVGID_67_);}
	.st71{fill:url(#SVGID_68_);}
	.st72{fill:url(#SVGID_69_);}
	.st73{fill:url(#SVGID_70_);}
	.st74{fill:url(#SVGID_71_);}
	.st75{fill:url(#SVGID_72_);}
	.st76{fill:url(#SVGID_73_);}
	.st77{fill:url(#SVGID_74_);}
	.st78{fill:url(#SVGID_75_);}
	.st79{fill:url(#SVGID_76_);}
</style>
<g id="Background">
</g>
<g id="Illustration">
	<path class="st0" d="M3105.5,1271.5c72.9-663.7-570.6-894.2-1026.7-724.3c-459.8,171.3-566.4-112.7-1213.1-31.5
		C211,597.9,543.4,1625.6,543.4,1625.6S647.6,2519.3,771,2931.2c122.8,409.7,1297.8,261.5,1583.6,249.3
		c284.2-12.2,531.1,11.3,778.4-438.6C3379.8,2292.9,3032.8,1933,3105.5,1271.5z"/>
	<g>
		<g>
			<g>
				<defs>
					<path id="SVGID_1_" d="M2154.1,2328.3c48.4-89.6,105.4-228,96.8-393.8c-11.3-217.4-125.7-291-229.1-631.1
						c-65.4-215-108.9-365.7-28-481.1c63.4-90.4,195.5-148.3,297.5-118.2c84.8,25.1,158.7,113.9,195.2,182.7
						c29.7,56.1,36.2,101.9,80.9,121.8c45.7,20.3,77.4-10.4,118.1,2.3c82.4,25.9,97.1,197.8,99.5,225.6
						c26.4,309.2-172.7,590.1-261.1,711.7C2450.8,2048.8,2332.9,2189.6,2154.1,2328.3z"/>
				</defs>
				<linearGradient id="SVGID_2_" gradientUnits="userSpaceOnUse" x1="1949.8723" y1="1512.2609" x2="2787.3347" y2="1512.2609">
					<stop  offset="0" style="stop-color:#FF9085"/>
					<stop  offset="1" style="stop-color:#FB6FBB"/>
				</linearGradient>
				<use xlink:href="#SVGID_1_"  style="overflow:visible;fill:url(#SVGID_2_);"/>
				<clipPath id="SVGID_3_">
					<use xlink:href="#SVGID_1_"  style="overflow:visible;"/>
				</clipPath>
				<g class="st1">
					<g>
						<path class="st2" d="M2091.6,2408.4l-4.5-5.5c187.7-153.5,406.8-393,384.6-662.1c-8.2-99-47.8-191.2-102.6-318.7
							c-43.8-101.9-84-170.1-119.5-230.3c-46.4-78.7-83-140.9-105.5-241.4c-22.8-102-23.1-210.9-0.7-323.6l7,1.4
							c-22.2,111.8-22,219.7,0.6,320.7c22.3,99.4,58.7,161.2,104.7,239.4c35.6,60.4,75.9,128.8,119.9,231.1
							c53,123.4,94.9,220.8,103.2,321c10.5,128.1-32.6,261.9-128.3,397.8C2286,2229.7,2198.9,2320.7,2091.6,2408.4z"/>
					</g>
					<g>
						<path class="st2" d="M2341.8,1349.6l-4-0.4c-0.8-0.1-81-7.7-174.7-56.2c-86.5-44.8-202.8-134.5-265.3-307.8l6.7-2.4
							c61.7,171.2,176.4,259.8,261.8,303.9c80.7,41.7,150.9,52.8,168.1,55c-6-208.6,56.1-361.5,109.4-453.1
							c58.2-100.1,119-151.1,119.6-151.6l4.5,5.5c-0.6,0.5-60.6,50.8-118.2,149.9c-53.1,91.4-115,244.3-108.2,453.2L2341.8,1349.6z"
							/>
					</g>
					<g>
						<path class="st2" d="M2451.8,1628.3l-2.1-1.6c-1-0.8-103.5-78.2-221.4-135.7c-117.2-57.1-334.1-18.2-336.3-17.8l-1.3-7
							c2.2-0.4,221.4-39.8,340.7,18.4c109.2,53.3,205.3,123.5,220.5,134.8c194.5-139.2,256.6-724.1,257.2-730.1l7.1,0.7
							c-0.2,1.5-15.7,150.9-55.5,315.4c-53.6,221.4-123.1,363.1-206.7,421.3L2451.8,1628.3z"/>
					</g>
					<g>
						<path class="st2" d="M2374.9,2101.4l1.4-7c23.3-114.7-18.6-213.1-124.3-292.4c-79.2-59.4-166.5-85.1-167.4-85.4l2-6.8
							c0.9,0.3,89.3,26.3,169.6,86.4c104.5,78.3,148.9,179.4,128.5,292.6c23.8-12,111.2-58,213.5-137
							c110.3-85.2,260.8-227.3,351.8-420.4l176.9-375.2l6.4,3l-176.9,375.2c-91.7,194.5-243.1,337.5-354.1,423.2
							c-120.2,92.8-220,140.4-221,140.8L2374.9,2101.4z"/>
					</g>
				</g>
			</g>
		</g>
		<g>
			<g>
				<defs>
					<path id="SVGID_4_" d="M2172.8,2303.9c159.3,21.3,365.4,25.8,571.3-37.5c52.5-16.2,377.2-116,358.7-260.4
						c-6.5-50.9-50.1-64.3-60-132.2c-11.7-80.4,42-113,88.1-205.5c27.5-55.2,108-216.7,18.6-323.2
						c-53.4-63.6-165.1-104.7-255.2-95.4c-132.2,13.7-192.3,133-290.3,336.8c-86.9,180.6-76.7,229-141.5,358
						C2414.2,2040.1,2330,2169.6,2172.8,2303.9z"/>
				</defs>
				<linearGradient id="SVGID_5_" gradientUnits="userSpaceOnUse" x1="2987.6848" y1="1231.1991" x2="2617.178" y2="2225.719">
					<stop  offset="3.597120e-03" style="stop-color:#E38DDD"/>
					<stop  offset="1" style="stop-color:#9571F6"/>
				</linearGradient>
				<use xlink:href="#SVGID_4_"  style="overflow:visible;fill:url(#SVGID_5_);"/>
				<clipPath id="SVGID_6_">
					<use xlink:href="#SVGID_4_"  style="overflow:visible;"/>
				</clipPath>
				<g class="st3">
					<g>
						<path class="st2" d="M1885,2347.7c-132.8,0-267.5-27.5-401.7-82.1l2.7-6.6c168.7,68.7,338,94.2,503.3,75.9
							c591.6-65.5,882.9-690.9,958-881c42.6-107.9,52.8-232,30.3-369l7-1.2c22.8,138.3,12.4,263.7-30.7,372.8
							c-61.9,156.5-174.6,382.9-360.2,572.9c-178.6,182.8-381.7,288-603.7,312.6C1955.2,2345.8,1920.2,2347.7,1885,2347.7z"/>
					</g>
					<g>
						<path class="st2" d="M2798.5,1761.5l-1.7-2.7c-0.4-0.6-38.1-62.1-63.4-151.9c-23.4-82.9-40.8-207.8,9.2-331.4l6.6,2.7
							c-49.2,121.7-32,244.8-9,326.6c22.1,78.2,53.5,134.7,61,147.5c365.8-176.9,394.4-428.7,394.4-501.8c0-2.3,0-3.1,0.1-3.7
							l7.1,0.9c0,0.4,0,1.4,0,2.8c0,74.3-29.1,330.8-401.4,509.6L2798.5,1761.5z"/>
					</g>
					<g>
						<path class="st2" d="M2813.8,2059.4c-63.3,0-136.7-8.9-220.5-32.3l-1.8-0.5l-0.6-1.8c-0.7-2.1-66.9-209.4-13.1-472.9
							l54.2-265.7l7,1.4l-54.2,265.7c-50.8,248.7,6,446.6,12.4,467.5c202,56,342.8,27.1,425.4-7.1c89.7-37.2,132-88.4,132.5-88.9
							l5.5,4.5c-1.7,2.1-43.6,52.9-134.8,90.8C2976,2040.6,2905.6,2059.4,2813.8,2059.4z"/>
					</g>
				</g>
			</g>
		</g>
	</g>
	<g>
		<path class="st4" d="M2516.7,2958.5c0,24.6-18.7,45.5-41.8,46.7l-1467.2,76.2c-26.9,1.4-48.8-19.1-48.8-45.7V858.9
			c0-26.6,21.9-46.9,48.8-45.3l19.7-1l1447.6,90.6c23.1,1.4,41.8,22.5,41.8,47.1V2958.5z"/>
		<path class="st5" d="M2545.6,2957.5c0,24.6-18.7,45.5-41.8,46.7l-1467.2,76.2c-26.9,1.4-48.8-19.1-48.8-45.7V857.9
			c0-26.6,21.9-46.9,48.8-45.3l1467.2,89.5c23.1,1.4,41.8,22.5,41.8,47.1V2957.5z"/>
		<path class="st5" d="M1417.2,1017.3c-36.5,46.9-41.7,135.5,20.8,171.9c135.5,83.4,312.6,57.3,442.8-31.3
			c95.9-67.1,55-191.5,27.6-292.1l-288.6-17.6C1595.1,917.6,1463,956.3,1417.2,1017.3z"/>
		<path class="st2" d="M2476.6,2870.4c0,21.8-16.6,40.2-37.1,41.2l-1328.5,62.2c-23.6,1.1-42.7-17-42.7-40.4V1070
			c0-23.4,19.2-41.4,42.7-40.2l1328.5,66.9c20.5,1,37.1,19.5,37.1,41.3V2870.4z"/>
		<linearGradient id="SVGID_7_" gradientUnits="userSpaceOnUse" x1="1448.9475" y1="947.8929" x2="2130.6731" y2="947.8929">
			<stop  offset="0" style="stop-color:#444B8C"/>
			<stop  offset="0.9964" style="stop-color:#26264F"/>
		</linearGradient>
		<path class="st6" d="M2112.3,1037.5c-2-11.4-10.9-19.5-22.2-20.1l-69.9-3.8c-31.6-1.7-54.4-28-52.9-61.2l3.5-76.7
			c0.6-14.2-9.2-25.6-22.8-26.4l-22.6-1.4c-17.2-1.1-28.9-16.4-26.2-34.3c4.8-31.7-16-59-46.6-61c-30.7-2.1-59.5,22.1-64.3,53.9
			c-1.3,8.6-5.9,16.7-12.7,22.5c-6.8,5.7-15.4,8.7-23.8,8.2l-23-1.4c-13.9-0.9-27.3,9.2-31,23.4l-20,76.9
			c-8.7,33.2-40,57.1-72.9,55.3l-73.6-4c-12-0.6-23.9,6.6-29.5,17.9l-52.8,105.9l4.5,5.8l677.2,26.3L2112.3,1037.5z M1842.6,818.5
			c-9-0.6-15.1-8.6-13.7-17.9c1.4-9.3,9.8-16.4,18.8-15.8c9,0.6,15.1,8.6,13.7,17.9C1860,812,1851.6,819.1,1842.6,818.5z"/>
		<path class="st4" d="M2116.9,1043.3c-2-11.4-10.9-19.5-22.2-20.1l-69.9-3.8c-31.6-1.7-54.4-28-52.9-61.2l3.5-76.7
			c0.6-14.2-9.2-25.6-22.8-26.4l-22.6-1.4c-17.2-1.1-28.9-16.4-26.2-34.3c4.8-31.7-16-59-46.6-61c-30.7-2.1-59.5,22.1-64.3,53.9
			c-1.3,8.6-5.9,16.7-12.7,22.5c-6.8,5.7-15.4,8.7-23.8,8.2l-23-1.4c-13.9-0.9-27.3,9.2-31,23.4l-20,76.9
			c-8.7,33.2-40,57.1-72.9,55.3l-73.6-4c-12-0.6-23.9,6.6-29.5,17.9l-52.8,105.9l681.7,32.1L2116.9,1043.3z M1847.2,824.3
			c-9-0.6-15.1-8.6-13.7-17.9c1.4-9.3,9.8-16.4,18.8-15.8c9,0.6,15.1,8.6,13.7,17.9C1864.6,817.8,1856.1,824.9,1847.2,824.3z"/>
		<path class="st7" d="M2094.7,1023.2l-69.9-3.8c-21-1.1-38.1-13.2-46.8-30.8c-64.8,13.6-133-0.6-201.3,13
			c-46.9,10.4-41.7,83.4-93.8,88.6c-74.7,10.1-148.7,10.8-221.8,11.5l-7.6,15.3l681.7,32.1l-18.3-105.9
			C2114.9,1031.8,2106,1023.8,2094.7,1023.2z"/>
		<g>
			<polygon class="st5" points="2379.1,1396.9 1190.5,1368 1190.5,1212.3 2379.1,1249.3 			"/>
			<g>
				<g>
					<g>
						<path class="st5" d="M2379.1,1884.6l-1188.6-1.8v-397.2l1188.6,22.7V1884.6z M1212.7,1860.7l1144.1,2.8V1529l-1144.1-20.7
							V1860.7z"/>
					</g>
					<g>
						<polygon class="st5" points="1467,1870.1 1441.6,1870.1 1441.6,1499.9 1467,1500.3 						"/>
					</g>
					<g>
						<g>
							<polygon class="st5" points="2366.4,1649.6 1454.3,1638.2 1454.3,1616.2 2366.4,1628.5 							"/>
						</g>
						<g>
							<polygon class="st5" points="2366.4,1764.1 1454.3,1757.6 1454.3,1735.6 2366.4,1743 							"/>
						</g>
					</g>
				</g>
				<g>
					<polygon class="st5" points="2134.4,1881.2 2108.9,1881.2 2108.9,1512.3 2134.4,1512.7 					"/>
				</g>
			</g>
			<g>
				<g>
					<g>
						<path class="st5" d="M2379.1,2592.2l-1188.6,37.5v-397.2l1188.6-16.6V2592.2z M1212.7,2606.7l1144.1-34.9v-334.5l-1144.1,17.1
							V2606.7z"/>
					</g>
					<g>
						<polygon class="st5" points="1467,2608.4 1441.6,2609.2 1441.6,2238.4 1467,2237.9 						"/>
					</g>
					<g>
						<g>
							<polygon class="st5" points="2366.4,2357.6 1454.3,2376.3 1454.3,2354.3 2366.4,2336.5 							"/>
						</g>
						<g>
							<polygon class="st5" points="2366.4,2472.1 1454.3,2495.7 1454.3,2473.7 2366.4,2451 							"/>
						</g>
					</g>
				</g>
				<g>
					<polygon class="st5" points="2134.4,2596.9 2108.9,2597.6 2108.9,2228.7 2134.4,2228.4 					"/>
				</g>
			</g>
			<polygon class="st5" points="2379.1,2011.1 1190.5,2016.3 1190.5,1965.5 2379.1,1962.9 			"/>
			<polygon class="st5" points="2379.1,2125.5 1190.5,2137.1 1190.5,2086.2 2379.1,2077.3 			"/>
			<polygon class="st5" points="2379.1,2718.6 1190.5,2763.1 1190.5,2712.3 2379.1,2670.5 			"/>
		</g>
	</g>
	<g>
		<g>
			<linearGradient id="SVGID_8_" gradientUnits="userSpaceOnUse" x1="830.2648" y1="3110.5938" x2="1710.8953" y2="3110.5938">
				<stop  offset="0" style="stop-color:#FCB148"/>
				<stop  offset="5.207239e-02" style="stop-color:#FDBA46"/>
				<stop  offset="0.1424" style="stop-color:#FFC244"/>
				<stop  offset="0.3183" style="stop-color:#FFC444"/>
				<stop  offset="0.4849" style="stop-color:#FDB946"/>
				<stop  offset="0.7754" style="stop-color:#F99C4D"/>
				<stop  offset="0.8658" style="stop-color:#F8924F"/>
				<stop  offset="1" style="stop-color:#F8924F"/>
			</linearGradient>
			<path class="st8" d="M895.7,3043.3v84.9c0,27.4,171.4,49.7,382.7,49.7s382.7-22.2,382.7-49.7v-84.9H895.7z"/>
			<linearGradient id="SVGID_9_" gradientUnits="userSpaceOnUse" x1="1274.6272" y1="3011.394" x2="1321.053" y2="3400.0461">
				<stop  offset="0" style="stop-color:#FFDB44"/>
				<stop  offset="1" style="stop-color:#FEEF06"/>
			</linearGradient>
			<path class="st9" d="M1661.2,3043.3c0,27.4-171.4,49.7-382.7,49.7s-382.7-22.2-382.7-49.7c0-27.4,171.4-49.7,382.7-49.7
				S1661.2,3015.9,1661.2,3043.3z"/>
			<linearGradient id="SVGID_10_" gradientUnits="userSpaceOnUse" x1="1272.6084" y1="2994.0618" x2="1286.8666" y2="3113.4233">
				<stop  offset="0" style="stop-color:#FFDB44"/>
				<stop  offset="1" style="stop-color:#FEEF06"/>
			</linearGradient>
			<path class="st10" d="M1278.4,3096.4c-187.2,0-383-17.9-383-52.4c0-1.9,0.7-5.2,2.6-5.2c1.9,0,1.1,2.6,1.1,4.5
				c0,21.9,155.8,46.2,379.3,46.2c223.5,0,379.3-24.4,379.3-46.2c0-1.9,0.3-3.7,2.2-3.7c1.9,0,1.4,2.5,1.4,4.4
				C1661.4,3078.6,1465.6,3096.4,1278.4,3096.4z"/>
			<g>
				<path class="st11" d="M1242.3,3046.1c3.8-2.6,7.8-5.2,12-7.7c4.2-2.5,9.8-4.8,16.4-6.9c6.7-2,15.1-3.7,25.2-5
					c10.1-1.3,22.7-2,37.8-2c14.8-0.1,28.7,0.4,41.7,1.4c13,1,24.4,2.5,34.3,4.5c9.8,2,17.9,4.5,24,7.5c6.1,3,9.8,6.4,11,10.2
					l43.1,0.4c3.1,0,5.9,0.3,8.3,0.8c2.4,0.5,3.6,1.1,3.6,1.9l0,3.5l-55.4-0.5c-1.9,4.3-6.9,8.3-14.9,11.9c-7.9,3.6-18,6.7-30.4,9.4
					l-20.2-2.8c-1.8-0.3-3.3-0.6-4.5-1.1c-1.2-0.4-1.7-0.9-1.7-1.4c0-0.7,1.6-1.5,4.7-2.3c3.1-0.9,6.6-2,10.6-3.3
					c3.9-1.3,7.8-2.8,11.6-4.6c3.8-1.8,6.3-3.9,7.6-6.3l-130.8-1.3c-3.4,2.5-7.3,5-11.5,7.5c-4.3,2.4-9.9,4.6-17,6.6
					c-7,2-15.8,3.5-26.3,4.8c-10.5,1.2-23.7,1.9-39.7,1.9c-12,0.1-23.7-0.4-35.1-1.4c-11.4-1-21.6-2.4-30.4-4.3
					c-8.9-1.9-16.1-4.3-21.8-7.2c-5.7-2.8-8.8-6.1-9.5-9.8l-35.5-0.4c-3.1,0-5.9-0.3-8.4-0.7c-2.4-0.5-3.7-1.1-3.7-1.9l0-3.5
					l48.5,0.5c2.1-3.7,6.5-7,13.3-9.8c6.7-2.8,14.9-5.2,24.6-7.4l16.2,2.2c4.9,0.7,7.4,1.5,7.4,2.4c0,0.5-1,1.1-3,1.9
					c-2.1,0.7-4.5,1.6-7.3,2.7c-2.8,1-5.5,2.2-8.1,3.6c-2.6,1.4-4.6,3-5.9,4.7L1242.3,3046.1z M1122.6,3050.9c1,2.3,3.1,4.3,6.4,6
					c3.3,1.7,7.4,3.1,12.3,4.2c4.9,1.1,10.5,1.9,16.6,2.4c6.2,0.5,12.6,0.7,19.4,0.7c7.9,0,14.7-0.4,20.6-1
					c5.8-0.6,10.9-1.5,15.4-2.6c4.4-1.1,8.3-2.4,11.6-3.8c3.3-1.5,6.2-3,8.8-4.7L1122.6,3050.9z M1407.3,3047.7
					c-1-2.4-3.3-4.4-7-6.2c-3.7-1.8-8.4-3.3-14.2-4.5c-5.7-1.2-12.4-2.1-20.1-2.7c-7.6-0.6-16-0.9-25.3-0.8
					c-8.2,0-15.3,0.4-21.2,1.1c-5.9,0.7-11,1.6-15.4,2.8c-4.3,1.2-8,2.5-11,4.1c-3,1.6-5.9,3.2-8.5,5L1407.3,3047.7z"/>
			</g>
			
				<linearGradient id="SVGID_11_" gradientUnits="userSpaceOnUse" x1="383.2371" y1="1026.929" x2="397.4447" y2="1145.8676" gradientTransform="matrix(-1 0 0 -1 1669.249 4127.8389)">
				<stop  offset="3.597120e-03" style="stop-color:#F36F56"/>
				<stop  offset="0.3059" style="stop-color:#F99C4C"/>
				<stop  offset="0.545" style="stop-color:#FDB946"/>
				<stop  offset="0.6817" style="stop-color:#FFC444"/>
				<stop  offset="0.8038" style="stop-color:#FFC244"/>
				<stop  offset="0.8667" style="stop-color:#FEBA46"/>
				<stop  offset="0.916" style="stop-color:#FCAD49"/>
				<stop  offset="0.958" style="stop-color:#F99A4D"/>
				<stop  offset="0.9955" style="stop-color:#F58152"/>
				<stop  offset="1" style="stop-color:#F57E53"/>
			</linearGradient>
			<path class="st12" d="M1278.5,2999c-170.7,0-348.3,15-376.8,44.1c1.1,1,2.1,2.1,3.1,3.3c24-20.2,170.7-40.5,373.7-40.5
				c208.2,0,357.3,21.4,375.3,42.1c0.9-1.1,1.8-2.2,2.9-3.2C1633.2,3014.6,1452.2,2999,1278.5,2999z"/>
		</g>
		<g>
			<linearGradient id="SVGID_12_" gradientUnits="userSpaceOnUse" x1="723.8668" y1="3021.4238" x2="1604.4962" y2="3021.4238">
				<stop  offset="0" style="stop-color:#FCB148"/>
				<stop  offset="5.207239e-02" style="stop-color:#FDBA46"/>
				<stop  offset="0.1424" style="stop-color:#FFC244"/>
				<stop  offset="0.3183" style="stop-color:#FFC444"/>
				<stop  offset="0.4849" style="stop-color:#FDB946"/>
				<stop  offset="0.7754" style="stop-color:#F99C4D"/>
				<stop  offset="0.8658" style="stop-color:#F8924F"/>
				<stop  offset="1" style="stop-color:#F8924F"/>
			</linearGradient>
			<path class="st13" d="M789.3,2954.1v84.9c0,27.4,171.4,49.7,382.7,49.7c211.4,0,382.7-22.2,382.7-49.7v-84.9H789.3z"/>
			<linearGradient id="SVGID_13_" gradientUnits="userSpaceOnUse" x1="1168.2286" y1="2922.2249" x2="1214.6544" y2="3310.877">
				<stop  offset="0" style="stop-color:#FFDB44"/>
				<stop  offset="1" style="stop-color:#FEEF06"/>
			</linearGradient>
			<path class="st14" d="M1554.8,2954.1c0,27.4-171.4,49.7-382.7,49.7c-211.4,0-382.7-22.2-382.7-49.7c0-27.4,171.4-49.7,382.7-49.7
				C1383.4,2904.5,1554.8,2926.7,1554.8,2954.1z"/>
			<linearGradient id="SVGID_14_" gradientUnits="userSpaceOnUse" x1="1166.2101" y1="2904.8926" x2="1180.4681" y2="3024.2537">
				<stop  offset="0" style="stop-color:#FFDB44"/>
				<stop  offset="1" style="stop-color:#FEEF06"/>
			</linearGradient>
			<path class="st15" d="M1172,3007.2c-187.2,0-383-17.9-383-52.4c0-1.9,0.7-5.2,2.6-5.2c1.9,0,1.1,2.6,1.1,4.5
				c0,21.9,155.8,46.2,379.3,46.2s379.3-24.4,379.3-46.2c0-1.9,0.3-3.7,2.2-3.7c1.9,0,1.4,2.5,1.4,4.4
				C1555,2989.4,1359.2,3007.2,1172,3007.2z"/>
			<g>
				<path class="st11" d="M1135.9,2956.9c3.8-2.6,7.8-5.2,12-7.7c4.2-2.5,9.8-4.8,16.4-6.9c6.7-2,15.1-3.7,25.2-5
					c10.1-1.3,22.7-2,37.8-2c14.8-0.1,28.7,0.4,41.7,1.4c13,1,24.4,2.5,34.3,4.5c9.8,2,17.9,4.5,24,7.5c6.1,3,9.8,6.4,11,10.2
					l43.1,0.4c3.1,0,5.9,0.3,8.3,0.8c2.4,0.5,3.6,1.1,3.6,1.9l0,3.5l-55.4-0.5c-1.9,4.3-6.9,8.3-14.9,11.9c-7.9,3.6-18,6.7-30.4,9.4
					l-20.2-2.8c-1.8-0.3-3.3-0.6-4.5-1.1c-1.2-0.4-1.7-0.9-1.7-1.4c0-0.7,1.6-1.5,4.7-2.3c3.1-0.9,6.6-2,10.6-3.3
					c3.9-1.3,7.8-2.8,11.6-4.6c3.8-1.8,6.3-3.9,7.6-6.3l-130.8-1.3c-3.4,2.5-7.3,5-11.5,7.5c-4.3,2.4-9.9,4.6-17,6.6
					c-7,2-15.8,3.5-26.3,4.8c-10.5,1.2-23.7,1.9-39.7,1.9c-12,0.1-23.7-0.4-35.1-1.4c-11.4-1-21.6-2.4-30.4-4.3
					c-8.9-1.9-16.1-4.3-21.8-7.2c-5.7-2.8-8.8-6.1-9.5-9.8L943,2961c-3.1,0-5.9-0.3-8.4-0.7c-2.4-0.5-3.7-1.1-3.7-1.9l0-3.5
					l48.5,0.5c2.1-3.7,6.5-7,13.3-9.8c6.7-2.8,14.9-5.2,24.6-7.4l16.2,2.2c4.9,0.7,7.4,1.5,7.4,2.4c0,0.5-1,1.1-3,1.9
					c-2.1,0.7-4.5,1.6-7.3,2.7c-2.8,1-5.5,2.2-8.1,3.6c-2.6,1.4-4.6,3-5.9,4.7L1135.9,2956.9z M1016.2,2961.7c1,2.3,3.1,4.3,6.4,6
					c3.3,1.7,7.4,3.1,12.3,4.2c4.9,1.1,10.5,1.9,16.6,2.4c6.2,0.5,12.6,0.7,19.4,0.7c7.9,0,14.7-0.4,20.6-1
					c5.8-0.6,10.9-1.5,15.4-2.6c4.4-1.1,8.3-2.4,11.6-3.8c3.3-1.5,6.2-3,8.8-4.7L1016.2,2961.7z M1300.9,2958.6
					c-1-2.4-3.3-4.4-7-6.2c-3.7-1.8-8.4-3.3-14.2-4.5c-5.7-1.2-12.4-2.1-20.1-2.7c-7.6-0.6-16-0.9-25.3-0.8
					c-8.2,0-15.3,0.4-21.2,1.1c-5.9,0.7-11,1.6-15.4,2.8c-4.3,1.2-8,2.5-11,4.1c-3,1.6-5.9,3.2-8.5,5L1300.9,2958.6z"/>
			</g>
			
				<linearGradient id="SVGID_15_" gradientUnits="userSpaceOnUse" x1="489.6361" y1="1116.0988" x2="503.8437" y2="1235.037" gradientTransform="matrix(-1 0 0 -1 1669.249 4127.8389)">
				<stop  offset="3.597120e-03" style="stop-color:#F36F56"/>
				<stop  offset="0.3059" style="stop-color:#F99C4C"/>
				<stop  offset="0.545" style="stop-color:#FDB946"/>
				<stop  offset="0.6817" style="stop-color:#FFC444"/>
				<stop  offset="0.8038" style="stop-color:#FFC244"/>
				<stop  offset="0.8667" style="stop-color:#FEBA46"/>
				<stop  offset="0.916" style="stop-color:#FCAD49"/>
				<stop  offset="0.958" style="stop-color:#F99A4D"/>
				<stop  offset="0.9955" style="stop-color:#F58152"/>
				<stop  offset="1" style="stop-color:#F57E53"/>
			</linearGradient>
			<path class="st16" d="M1172.1,2909.9c-170.7,0-348.3,15-376.8,44.1c1.1,1,2.1,2.1,3.1,3.3c24-20.2,170.7-40.5,373.7-40.5
				c208.2,0,357.3,21.4,375.3,42.1c0.9-1.1,1.8-2.2,2.9-3.2C1526.8,2925.4,1345.8,2909.9,1172.1,2909.9z"/>
		</g>
		<g>
			<linearGradient id="SVGID_16_" gradientUnits="userSpaceOnUse" x1="815.6735" y1="2932.5156" x2="1696.304" y2="2932.5156">
				<stop  offset="0" style="stop-color:#FCB148"/>
				<stop  offset="5.207239e-02" style="stop-color:#FDBA46"/>
				<stop  offset="0.1424" style="stop-color:#FFC244"/>
				<stop  offset="0.3183" style="stop-color:#FFC444"/>
				<stop  offset="0.4849" style="stop-color:#FDB946"/>
				<stop  offset="0.7754" style="stop-color:#F99C4D"/>
				<stop  offset="0.8658" style="stop-color:#F8924F"/>
				<stop  offset="1" style="stop-color:#F8924F"/>
			</linearGradient>
			<path class="st17" d="M881.1,2865.2v84.9c0,27.4,171.4,49.7,382.7,49.7c211.4,0,382.7-22.2,382.7-49.7v-84.9H881.1z"/>
			<linearGradient id="SVGID_17_" gradientUnits="userSpaceOnUse" x1="1260.0359" y1="2833.3167" x2="1306.4617" y2="3221.9688">
				<stop  offset="0" style="stop-color:#FFDB44"/>
				<stop  offset="1" style="stop-color:#FEEF06"/>
			</linearGradient>
			<path class="st18" d="M1646.6,2865.2c0,27.4-171.4,49.7-382.7,49.7c-211.4,0-382.7-22.2-382.7-49.7c0-27.4,171.4-49.7,382.7-49.7
				C1475.2,2815.6,1646.6,2837.8,1646.6,2865.2z"/>
			<linearGradient id="SVGID_18_" gradientUnits="userSpaceOnUse" x1="1258.0177" y1="2815.9844" x2="1272.2758" y2="2935.3455">
				<stop  offset="0" style="stop-color:#FFDB44"/>
				<stop  offset="1" style="stop-color:#FEEF06"/>
			</linearGradient>
			<path class="st19" d="M1263.8,2918.3c-187.2,0-383-17.9-383-52.4c0-1.9,0.7-5.2,2.6-5.2c1.9,0,1.1,2.6,1.1,4.5
				c0,21.9,155.8,46.2,379.3,46.2c223.5,0,379.3-24.4,379.3-46.2c0-1.9,0.3-3.7,2.2-3.7c1.9,0,1.4,2.5,1.4,4.4
				C1646.8,2900.5,1451.1,2918.3,1263.8,2918.3z"/>
			<g>
				<path class="st11" d="M1227.7,2868c3.8-2.6,7.8-5.2,12-7.7c4.2-2.5,9.8-4.8,16.4-6.9c6.7-2,15.1-3.7,25.2-5
					c10.1-1.3,22.7-2,37.8-2c14.8-0.1,28.7,0.4,41.7,1.4c13,1,24.4,2.5,34.3,4.5c9.8,2,17.9,4.5,24,7.5c6.1,3,9.8,6.4,11,10.2
					l43.1,0.4c3.1,0,5.9,0.3,8.3,0.8c2.4,0.5,3.6,1.1,3.6,1.9l0,3.5l-55.4-0.5c-1.9,4.3-6.9,8.3-14.9,11.9c-7.9,3.6-18,6.7-30.4,9.4
					l-20.2-2.8c-1.8-0.3-3.3-0.6-4.5-1.1c-1.2-0.4-1.7-0.9-1.7-1.4c0-0.7,1.6-1.5,4.7-2.3c3.1-0.9,6.6-2,10.6-3.3
					c3.9-1.3,7.8-2.8,11.6-4.6c3.8-1.8,6.3-3.9,7.6-6.3l-130.8-1.3c-3.4,2.5-7.3,5-11.5,7.5c-4.3,2.4-9.9,4.6-17,6.6
					c-7,2-15.8,3.5-26.3,4.8c-10.5,1.2-23.7,1.9-39.7,1.9c-12,0.1-23.7-0.4-35.1-1.4c-11.4-1-21.6-2.4-30.4-4.3
					c-8.9-1.9-16.1-4.3-21.8-7.2c-5.7-2.8-8.8-6.1-9.5-9.8l-35.5-0.4c-3.1,0-5.9-0.3-8.4-0.7c-2.4-0.5-3.7-1.1-3.7-1.9l0-3.5
					l48.5,0.5c2.1-3.7,6.5-7,13.3-9.8c6.7-2.8,14.9-5.2,24.6-7.4l16.2,2.2c4.9,0.7,7.4,1.5,7.4,2.4c0,0.5-1,1.1-3,1.9
					c-2.1,0.7-4.5,1.6-7.3,2.7c-2.8,1-5.5,2.2-8.1,3.6c-2.6,1.4-4.6,3-5.9,4.7L1227.7,2868z M1108,2872.8c1,2.3,3.1,4.3,6.4,6
					c3.3,1.7,7.4,3.1,12.3,4.2c4.9,1.1,10.5,1.9,16.6,2.4c6.2,0.5,12.6,0.7,19.4,0.7c7.9,0,14.7-0.4,20.6-1
					c5.8-0.6,10.9-1.5,15.4-2.6c4.4-1.1,8.3-2.4,11.6-3.8c3.3-1.5,6.2-3,8.8-4.7L1108,2872.8z M1392.7,2869.7c-1-2.4-3.3-4.4-7-6.2
					c-3.7-1.8-8.4-3.3-14.2-4.5c-5.7-1.2-12.4-2.1-20.1-2.7c-7.6-0.6-16-0.9-25.3-0.8c-8.2,0-15.3,0.4-21.2,1.1
					c-5.9,0.7-11,1.6-15.4,2.8c-4.3,1.2-8,2.5-11,4.1c-3,1.6-5.9,3.2-8.5,5L1392.7,2869.7z"/>
			</g>
			
				<linearGradient id="SVGID_19_" gradientUnits="userSpaceOnUse" x1="397.8284" y1="1205.0071" x2="412.036" y2="1323.9453" gradientTransform="matrix(-1 0 0 -1 1669.249 4127.8389)">
				<stop  offset="3.597120e-03" style="stop-color:#F36F56"/>
				<stop  offset="0.3059" style="stop-color:#F99C4C"/>
				<stop  offset="0.545" style="stop-color:#FDB946"/>
				<stop  offset="0.6817" style="stop-color:#FFC444"/>
				<stop  offset="0.8038" style="stop-color:#FFC244"/>
				<stop  offset="0.8667" style="stop-color:#FEBA46"/>
				<stop  offset="0.916" style="stop-color:#FCAD49"/>
				<stop  offset="0.958" style="stop-color:#F99A4D"/>
				<stop  offset="0.9955" style="stop-color:#F58152"/>
				<stop  offset="1" style="stop-color:#F57E53"/>
			</linearGradient>
			<path class="st20" d="M1263.9,2820.9c-170.7,0-348.3,15-376.8,44.1c1.1,1,2.1,2.1,3.1,3.3c24-20.2,170.7-40.5,373.7-40.5
				c208.2,0,357.3,21.4,375.3,42.1c0.9-1.1,1.8-2.2,2.9-3.2C1618.6,2836.5,1437.6,2820.9,1263.9,2820.9z"/>
		</g>
		<g>
			<linearGradient id="SVGID_20_" gradientUnits="userSpaceOnUse" x1="871.3859" y1="2843.3469" x2="1752.0155" y2="2843.3469">
				<stop  offset="0" style="stop-color:#FCB148"/>
				<stop  offset="5.207239e-02" style="stop-color:#FDBA46"/>
				<stop  offset="0.1424" style="stop-color:#FFC244"/>
				<stop  offset="0.3183" style="stop-color:#FFC444"/>
				<stop  offset="0.4849" style="stop-color:#FDB946"/>
				<stop  offset="0.7754" style="stop-color:#F99C4D"/>
				<stop  offset="0.8658" style="stop-color:#F8924F"/>
				<stop  offset="1" style="stop-color:#F8924F"/>
			</linearGradient>
			<path class="st21" d="M936.8,2776.1v84.9c0,27.4,171.4,49.7,382.7,49.7c211.4,0,382.7-22.2,382.7-49.7v-84.9H936.8z"/>
			<linearGradient id="SVGID_21_" gradientUnits="userSpaceOnUse" x1="1315.7478" y1="2744.1472" x2="1362.1737" y2="3132.7996">
				<stop  offset="0" style="stop-color:#FFDB44"/>
				<stop  offset="1" style="stop-color:#FEEF06"/>
			</linearGradient>
			<ellipse class="st22" cx="1319.6" cy="2776.1" rx="382.7" ry="49.7"/>
			<linearGradient id="SVGID_22_" gradientUnits="userSpaceOnUse" x1="1313.7285" y1="2726.8145" x2="1327.9867" y2="2846.1763">
				<stop  offset="0" style="stop-color:#FFDB44"/>
				<stop  offset="1" style="stop-color:#FEEF06"/>
			</linearGradient>
			<path class="st23" d="M1319.6,2829.2c-187.2,0-383-17.9-383-52.4c0-1.9,0.7-5.2,2.6-5.2s1.1,2.6,1.1,4.5
				c0,21.9,155.8,46.2,379.3,46.2c223.5,0,379.3-24.4,379.3-46.2c0-1.9,0.3-3.7,2.2-3.7c1.9,0,1.4,2.5,1.4,4.4
				C1702.5,2811.3,1506.8,2829.2,1319.6,2829.2z"/>
			<g>
				<path class="st11" d="M1283.4,2778.8c3.8-2.6,7.8-5.2,12-7.7c4.2-2.5,9.8-4.8,16.4-6.9c6.7-2,15.1-3.7,25.2-5
					c10.1-1.3,22.7-2,37.8-2c14.8-0.1,28.7,0.4,41.7,1.4c13,1,24.4,2.5,34.3,4.5c9.8,2,17.9,4.5,24,7.5c6.1,3,9.8,6.4,11,10.2
					l43.1,0.4c3.1,0,5.9,0.3,8.3,0.8c2.4,0.5,3.6,1.1,3.6,1.9l0,3.5l-55.4-0.5c-1.9,4.3-6.9,8.3-14.9,11.9c-7.9,3.6-18,6.7-30.4,9.4
					l-20.2-2.8c-1.8-0.3-3.3-0.6-4.5-1.1c-1.2-0.4-1.7-0.9-1.7-1.4c0-0.7,1.6-1.5,4.7-2.3c3.1-0.9,6.6-2,10.6-3.3
					c3.9-1.3,7.8-2.8,11.6-4.6c3.8-1.8,6.3-3.9,7.6-6.3l-130.8-1.3c-3.4,2.5-7.3,5-11.5,7.5c-4.3,2.4-9.9,4.6-17,6.6
					s-15.8,3.5-26.3,4.8c-10.5,1.2-23.7,1.9-39.7,1.9c-12,0.1-23.7-0.4-35.1-1.4c-11.4-1-21.6-2.4-30.4-4.3
					c-8.9-1.9-16.1-4.3-21.8-7.2c-5.7-2.8-8.8-6.1-9.5-9.8l-35.5-0.4c-3.1,0-5.9-0.3-8.4-0.7c-2.4-0.5-3.7-1.1-3.7-1.9l0-3.5
					l48.5,0.5c2.1-3.7,6.5-7,13.3-9.8c6.7-2.8,14.9-5.2,24.6-7.4l16.2,2.2c4.9,0.7,7.4,1.5,7.4,2.4c0,0.5-1,1.1-3,1.9
					c-2.1,0.7-4.5,1.6-7.3,2.7c-2.8,1-5.5,2.3-8.1,3.6c-2.6,1.4-4.6,3-5.9,4.7L1283.4,2778.8z M1163.7,2783.7c1,2.3,3.1,4.3,6.4,6
					c3.3,1.7,7.4,3.1,12.3,4.2c4.9,1.1,10.5,1.9,16.6,2.4c6.2,0.5,12.6,0.7,19.4,0.7c7.9,0,14.7-0.4,20.6-1
					c5.8-0.6,10.9-1.5,15.4-2.6c4.4-1.1,8.3-2.4,11.6-3.8c3.3-1.5,6.2-3,8.8-4.7L1163.7,2783.7z M1448.4,2780.5
					c-1-2.4-3.3-4.4-7-6.2c-3.7-1.8-8.4-3.3-14.2-4.5c-5.7-1.2-12.4-2.1-20.1-2.7c-7.6-0.6-16-0.9-25.3-0.8
					c-8.2,0-15.3,0.4-21.2,1.1c-5.9,0.7-11,1.6-15.4,2.8c-4.3,1.2-8,2.5-11,4.1c-3,1.6-5.9,3.2-8.5,5L1448.4,2780.5z"/>
			</g>
			
				<linearGradient id="SVGID_23_" gradientUnits="userSpaceOnUse" x1="342.1173" y1="1294.1761" x2="356.3249" y2="1413.1144" gradientTransform="matrix(-1 0 0 -1 1669.249 4127.8389)">
				<stop  offset="3.597120e-03" style="stop-color:#F36F56"/>
				<stop  offset="0.3059" style="stop-color:#F99C4C"/>
				<stop  offset="0.545" style="stop-color:#FDB946"/>
				<stop  offset="0.6817" style="stop-color:#FFC444"/>
				<stop  offset="0.8038" style="stop-color:#FFC244"/>
				<stop  offset="0.8667" style="stop-color:#FEBA46"/>
				<stop  offset="0.916" style="stop-color:#FCAD49"/>
				<stop  offset="0.958" style="stop-color:#F99A4D"/>
				<stop  offset="0.9955" style="stop-color:#F58152"/>
				<stop  offset="1" style="stop-color:#F57E53"/>
			</linearGradient>
			<path class="st24" d="M1319.6,2731.8c-170.7,0-348.3,15-376.8,44.1c1.1,1,2.1,2.1,3.1,3.3c24-20.2,170.7-40.5,373.7-40.5
				c208.2,0,357.3,21.4,375.3,42.1c0.9-1.1,1.8-2.2,2.9-3.2C1674.3,2747.3,1493.3,2731.8,1319.6,2731.8z"/>
		</g>
		<g>
			<linearGradient id="SVGID_24_" gradientUnits="userSpaceOnUse" x1="830.2648" y1="2747.1431" x2="1710.8953" y2="2747.1431">
				<stop  offset="0" style="stop-color:#FCB148"/>
				<stop  offset="5.207239e-02" style="stop-color:#FDBA46"/>
				<stop  offset="0.1424" style="stop-color:#FFC244"/>
				<stop  offset="0.3183" style="stop-color:#FFC444"/>
				<stop  offset="0.4849" style="stop-color:#FDB946"/>
				<stop  offset="0.7754" style="stop-color:#F99C4D"/>
				<stop  offset="0.8658" style="stop-color:#F8924F"/>
				<stop  offset="1" style="stop-color:#F8924F"/>
			</linearGradient>
			<path class="st25" d="M895.7,2679.9v84.9c0,27.4,171.4,49.7,382.7,49.7s382.7-22.2,382.7-49.7v-84.9H895.7z"/>
			<linearGradient id="SVGID_25_" gradientUnits="userSpaceOnUse" x1="1274.6271" y1="2647.9436" x2="1321.053" y2="3036.5959">
				<stop  offset="0" style="stop-color:#FFDB44"/>
				<stop  offset="1" style="stop-color:#FEEF06"/>
			</linearGradient>
			<path class="st26" d="M1661.2,2679.9c0,27.4-171.4,49.7-382.7,49.7s-382.7-22.2-382.7-49.7c0-27.4,171.4-49.7,382.7-49.7
				S1661.2,2652.4,1661.2,2679.9z"/>
			<linearGradient id="SVGID_26_" gradientUnits="userSpaceOnUse" x1="1272.6083" y1="2630.6106" x2="1286.8665" y2="2749.9724">
				<stop  offset="0" style="stop-color:#FFDB44"/>
				<stop  offset="1" style="stop-color:#FEEF06"/>
			</linearGradient>
			<path class="st27" d="M1278.4,2733c-187.2,0-383-17.9-383-52.4c0-1.9,0.7-5.2,2.6-5.2c1.9,0,1.1,2.6,1.1,4.5
				c0,21.9,155.8,46.2,379.3,46.2c223.5,0,379.3-24.4,379.3-46.2c0-1.9,0.3-3.7,2.2-3.7c1.9,0,1.4,2.5,1.4,4.4
				C1661.4,2715.1,1465.6,2733,1278.4,2733z"/>
			<g>
				<path class="st11" d="M1242.3,2682.6c3.8-2.6,7.8-5.2,12-7.7c4.2-2.5,9.8-4.8,16.4-6.9c6.7-2,15.1-3.7,25.2-5
					c10.1-1.3,22.7-2,37.8-2c14.8-0.1,28.7,0.4,41.7,1.4c13,1,24.4,2.5,34.3,4.5c9.8,2,17.9,4.5,24,7.5c6.1,3,9.8,6.4,11,10.2
					l43.1,0.4c3.1,0,5.9,0.3,8.3,0.8c2.4,0.5,3.6,1.1,3.6,1.9l0,3.5l-55.4-0.5c-1.9,4.3-6.9,8.3-14.9,11.9c-7.9,3.6-18,6.7-30.4,9.4
					l-20.2-2.8c-1.8-0.3-3.3-0.6-4.5-1.1c-1.2-0.4-1.7-0.9-1.7-1.4c0-0.7,1.6-1.5,4.7-2.3c3.1-0.9,6.6-2,10.6-3.3
					c3.9-1.3,7.8-2.8,11.6-4.6c3.8-1.8,6.3-3.9,7.6-6.3l-130.8-1.3c-3.4,2.5-7.3,5-11.5,7.5c-4.3,2.4-9.9,4.6-17,6.6
					c-7,2-15.8,3.5-26.3,4.8c-10.5,1.2-23.7,1.9-39.7,1.9c-12,0.1-23.7-0.4-35.1-1.4c-11.4-1-21.6-2.4-30.4-4.3
					c-8.9-1.9-16.1-4.3-21.8-7.2c-5.7-2.8-8.8-6.1-9.5-9.8l-35.5-0.4c-3.1,0-5.9-0.3-8.4-0.7c-2.4-0.5-3.7-1.1-3.7-1.9l0-3.5
					l48.5,0.5c2.1-3.7,6.5-7,13.3-9.8c6.7-2.8,14.9-5.2,24.6-7.4l16.2,2.2c4.9,0.7,7.4,1.5,7.4,2.4c0,0.5-1,1.1-3,1.9
					c-2.1,0.7-4.5,1.6-7.3,2.7c-2.8,1-5.5,2.3-8.1,3.6c-2.6,1.4-4.6,3-5.9,4.7L1242.3,2682.6z M1122.6,2687.5c1,2.3,3.1,4.3,6.4,6
					c3.3,1.7,7.4,3.1,12.3,4.2c4.9,1.1,10.5,1.9,16.6,2.4c6.2,0.5,12.6,0.7,19.4,0.7c7.9,0,14.7-0.4,20.6-1
					c5.8-0.6,10.9-1.5,15.4-2.6c4.4-1.1,8.3-2.4,11.6-3.8c3.3-1.5,6.2-3,8.8-4.7L1122.6,2687.5z M1407.3,2684.3
					c-1-2.4-3.3-4.4-7-6.2c-3.7-1.8-8.4-3.3-14.2-4.5c-5.7-1.2-12.4-2.1-20.1-2.7c-7.6-0.6-16-0.9-25.3-0.8
					c-8.2,0-15.3,0.4-21.2,1.1c-5.9,0.7-11,1.6-15.4,2.8c-4.3,1.2-8,2.5-11,4.1c-3,1.6-5.9,3.2-8.5,5L1407.3,2684.3z"/>
			</g>
			
				<linearGradient id="SVGID_27_" gradientUnits="userSpaceOnUse" x1="383.2372" y1="1390.3802" x2="397.4447" y2="1509.3181" gradientTransform="matrix(-1 0 0 -1 1669.249 4127.8389)">
				<stop  offset="3.597120e-03" style="stop-color:#F36F56"/>
				<stop  offset="0.3059" style="stop-color:#F99C4C"/>
				<stop  offset="0.545" style="stop-color:#FDB946"/>
				<stop  offset="0.6817" style="stop-color:#FFC444"/>
				<stop  offset="0.8038" style="stop-color:#FFC244"/>
				<stop  offset="0.8667" style="stop-color:#FEBA46"/>
				<stop  offset="0.916" style="stop-color:#FCAD49"/>
				<stop  offset="0.958" style="stop-color:#F99A4D"/>
				<stop  offset="0.9955" style="stop-color:#F58152"/>
				<stop  offset="1" style="stop-color:#F57E53"/>
			</linearGradient>
			<path class="st28" d="M1278.5,2635.6c-170.7,0-348.3,15-376.8,44.1c1.1,1,2.1,2.1,3.1,3.3c24-20.2,170.7-40.5,373.7-40.5
				c208.2,0,357.3,21.4,375.3,42.1c0.9-1.1,1.8-2.2,2.9-3.2C1633.2,2651.1,1452.2,2635.6,1278.5,2635.6z"/>
		</g>
		<g>
			<linearGradient id="SVGID_28_" gradientUnits="userSpaceOnUse" x1="723.8668" y1="2657.9731" x2="1604.4962" y2="2657.9731">
				<stop  offset="0" style="stop-color:#FCB148"/>
				<stop  offset="5.207239e-02" style="stop-color:#FDBA46"/>
				<stop  offset="0.1424" style="stop-color:#FFC244"/>
				<stop  offset="0.3183" style="stop-color:#FFC444"/>
				<stop  offset="0.4849" style="stop-color:#FDB946"/>
				<stop  offset="0.7754" style="stop-color:#F99C4D"/>
				<stop  offset="0.8658" style="stop-color:#F8924F"/>
				<stop  offset="1" style="stop-color:#F8924F"/>
			</linearGradient>
			<path class="st29" d="M789.3,2590.7v84.9c0,27.4,171.4,49.7,382.7,49.7c211.4,0,382.7-22.2,382.7-49.7v-84.9H789.3z"/>
			<linearGradient id="SVGID_29_" gradientUnits="userSpaceOnUse" x1="1168.2285" y1="2558.7739" x2="1214.6545" y2="2947.4275">
				<stop  offset="0" style="stop-color:#FFDB44"/>
				<stop  offset="1" style="stop-color:#FEEF06"/>
			</linearGradient>
			<ellipse class="st30" cx="1172" cy="2590.7" rx="382.7" ry="49.7"/>
			<linearGradient id="SVGID_30_" gradientUnits="userSpaceOnUse" x1="1166.2101" y1="2541.4414" x2="1180.4683" y2="2660.8032">
				<stop  offset="0" style="stop-color:#FFDB44"/>
				<stop  offset="1" style="stop-color:#FEEF06"/>
			</linearGradient>
			<path class="st31" d="M1172,2643.8c-187.2,0-383-17.9-383-52.4c0-1.9,0.7-5.2,2.6-5.2c1.9,0,1.1,2.6,1.1,4.5
				c0,21.9,155.8,46.2,379.3,46.2s379.3-24.4,379.3-46.2c0-1.9,0.3-3.7,2.2-3.7c1.9,0,1.4,2.5,1.4,4.4
				C1555,2625.9,1359.2,2643.8,1172,2643.8z"/>
			<g>
				<path class="st11" d="M1135.9,2593.5c3.8-2.6,7.8-5.2,12-7.7c4.2-2.5,9.8-4.8,16.4-6.9c6.7-2,15.1-3.7,25.2-5
					c10.1-1.3,22.7-2,37.8-2c14.8-0.1,28.7,0.4,41.7,1.4c13,1,24.4,2.5,34.3,4.5c9.8,2,17.9,4.5,24,7.5c6.1,3,9.8,6.4,11,10.2
					l43.1,0.4c3.1,0,5.9,0.3,8.3,0.8c2.4,0.5,3.6,1.1,3.6,1.9l0,3.5l-55.4-0.5c-1.9,4.3-6.9,8.3-14.9,11.9c-7.9,3.6-18,6.7-30.4,9.4
					l-20.2-2.8c-1.8-0.3-3.3-0.6-4.5-1.1c-1.2-0.4-1.7-0.9-1.7-1.4c0-0.7,1.6-1.5,4.7-2.3c3.1-0.9,6.6-2,10.6-3.3
					c3.9-1.3,7.8-2.8,11.6-4.6c3.8-1.8,6.3-3.9,7.6-6.3l-130.8-1.3c-3.4,2.5-7.3,5-11.5,7.5c-4.3,2.4-9.9,4.6-17,6.6
					c-7,2-15.8,3.5-26.3,4.8c-10.5,1.2-23.7,1.9-39.7,1.9c-12,0.1-23.7-0.4-35.1-1.4c-11.4-1-21.6-2.4-30.4-4.3
					c-8.9-1.9-16.1-4.3-21.8-7.2c-5.7-2.8-8.8-6.1-9.5-9.8l-35.5-0.4c-3.1,0-5.9-0.3-8.4-0.7c-2.4-0.5-3.7-1.1-3.7-1.9l0-3.5
					l48.5,0.5c2.1-3.7,6.5-7,13.3-9.8c6.7-2.8,14.9-5.2,24.6-7.4l16.2,2.2c4.9,0.7,7.4,1.5,7.4,2.4c0,0.5-1,1.1-3,1.9
					c-2.1,0.7-4.5,1.6-7.3,2.7c-2.8,1-5.5,2.2-8.1,3.6c-2.6,1.4-4.6,3-5.9,4.7L1135.9,2593.5z M1016.2,2598.3c1,2.3,3.1,4.3,6.4,6
					c3.3,1.7,7.4,3.1,12.3,4.2c4.9,1.1,10.5,1.9,16.6,2.4c6.2,0.5,12.6,0.7,19.4,0.7c7.9,0,14.7-0.4,20.6-1
					c5.8-0.6,10.9-1.5,15.4-2.6c4.4-1.1,8.3-2.4,11.6-3.8c3.3-1.5,6.2-3,8.8-4.7L1016.2,2598.3z M1300.9,2595.1
					c-1-2.4-3.3-4.4-7-6.2c-3.7-1.8-8.4-3.3-14.2-4.5c-5.7-1.2-12.4-2.1-20.1-2.7c-7.6-0.6-16-0.9-25.3-0.8
					c-8.2,0-15.3,0.4-21.2,1.1c-5.9,0.7-11,1.6-15.4,2.8c-4.3,1.2-8,2.5-11,4.1c-3,1.6-5.9,3.2-8.5,5L1300.9,2595.1z"/>
			</g>
			
				<linearGradient id="SVGID_31_" gradientUnits="userSpaceOnUse" x1="489.6361" y1="1479.55" x2="503.8437" y2="1598.4879" gradientTransform="matrix(-1 0 0 -1 1669.249 4127.8389)">
				<stop  offset="3.597120e-03" style="stop-color:#F36F56"/>
				<stop  offset="0.3059" style="stop-color:#F99C4C"/>
				<stop  offset="0.545" style="stop-color:#FDB946"/>
				<stop  offset="0.6817" style="stop-color:#FFC444"/>
				<stop  offset="0.8038" style="stop-color:#FFC244"/>
				<stop  offset="0.8667" style="stop-color:#FEBA46"/>
				<stop  offset="0.916" style="stop-color:#FCAD49"/>
				<stop  offset="0.958" style="stop-color:#F99A4D"/>
				<stop  offset="0.9955" style="stop-color:#F58152"/>
				<stop  offset="1" style="stop-color:#F57E53"/>
			</linearGradient>
			<path class="st32" d="M1172.1,2546.4c-170.7,0-348.3,15-376.8,44.1c1.1,1,2.1,2.1,3.1,3.3c24-20.2,170.7-40.5,373.7-40.5
				c208.2,0,357.3,21.4,375.3,42.1c0.9-1.1,1.8-2.2,2.9-3.2C1526.8,2562,1345.8,2546.4,1172.1,2546.4z"/>
		</g>
		<g>
			<linearGradient id="SVGID_32_" gradientUnits="userSpaceOnUse" x1="815.6735" y1="2569.0657" x2="1696.304" y2="2569.0657">
				<stop  offset="0" style="stop-color:#FCB148"/>
				<stop  offset="5.207239e-02" style="stop-color:#FDBA46"/>
				<stop  offset="0.1424" style="stop-color:#FFC244"/>
				<stop  offset="0.3183" style="stop-color:#FFC444"/>
				<stop  offset="0.4849" style="stop-color:#FDB946"/>
				<stop  offset="0.7754" style="stop-color:#F99C4D"/>
				<stop  offset="0.8658" style="stop-color:#F8924F"/>
				<stop  offset="1" style="stop-color:#F8924F"/>
			</linearGradient>
			<path class="st33" d="M881.1,2501.8v84.9c0,27.4,171.4,49.7,382.7,49.7c211.4,0,382.7-22.2,382.7-49.7v-84.9H881.1z"/>
			<linearGradient id="SVGID_33_" gradientUnits="userSpaceOnUse" x1="1260.0358" y1="2469.8657" x2="1306.4618" y2="2858.519">
				<stop  offset="0" style="stop-color:#FFDB44"/>
				<stop  offset="1" style="stop-color:#FEEF06"/>
			</linearGradient>
			<ellipse class="st34" cx="1263.8" cy="2501.8" rx="382.7" ry="49.7"/>
			<linearGradient id="SVGID_34_" gradientUnits="userSpaceOnUse" x1="1258.0177" y1="2452.5332" x2="1272.2759" y2="2571.895">
				<stop  offset="0" style="stop-color:#FFDB44"/>
				<stop  offset="1" style="stop-color:#FEEF06"/>
			</linearGradient>
			<path class="st35" d="M1263.8,2554.9c-187.2,0-383-17.9-383-52.4c0-1.9,0.7-5.2,2.6-5.2c1.9,0,1.1,2.6,1.1,4.5
				c0,21.9,155.8,46.2,379.3,46.2c223.5,0,379.3-24.4,379.3-46.2c0-1.9,0.3-3.7,2.2-3.7c1.9,0,1.4,2.5,1.4,4.4
				C1646.8,2537,1451.1,2554.9,1263.8,2554.9z"/>
			<g>
				<path class="st11" d="M1227.7,2504.6c3.8-2.6,7.8-5.2,12-7.7c4.2-2.5,9.8-4.8,16.4-6.9c6.7-2,15.1-3.7,25.2-5
					c10.1-1.3,22.7-2,37.8-2c14.8-0.1,28.7,0.4,41.7,1.4c13,1,24.4,2.5,34.3,4.5c9.8,2,17.9,4.5,24,7.5c6.1,3,9.8,6.4,11,10.2
					l43.1,0.4c3.1,0,5.9,0.3,8.3,0.8c2.4,0.5,3.6,1.1,3.6,1.9l0,3.5l-55.4-0.5c-1.9,4.3-6.9,8.3-14.9,11.9c-7.9,3.6-18,6.7-30.4,9.4
					l-20.2-2.8c-1.8-0.3-3.3-0.6-4.5-1.1c-1.2-0.4-1.7-0.9-1.7-1.4c0-0.7,1.6-1.5,4.7-2.3c3.1-0.9,6.6-2,10.6-3.3
					c3.9-1.3,7.8-2.8,11.6-4.6c3.8-1.8,6.3-3.9,7.6-6.3l-130.8-1.3c-3.4,2.5-7.3,5-11.5,7.5c-4.3,2.4-9.9,4.6-17,6.6
					c-7,2-15.8,3.5-26.3,4.8c-10.5,1.2-23.7,1.9-39.7,1.9c-12,0.1-23.7-0.4-35.1-1.4c-11.4-1-21.6-2.4-30.4-4.3
					c-8.9-1.9-16.1-4.3-21.8-7.2c-5.7-2.8-8.8-6.1-9.5-9.8l-35.5-0.4c-3.1,0-5.9-0.3-8.4-0.7c-2.4-0.5-3.7-1.1-3.7-1.9l0-3.5
					l48.5,0.5c2.1-3.7,6.5-7,13.3-9.8c6.7-2.8,14.9-5.2,24.6-7.4l16.2,2.2c4.9,0.7,7.4,1.5,7.4,2.4c0,0.5-1,1.1-3,1.9
					c-2.1,0.7-4.5,1.6-7.3,2.7c-2.8,1-5.5,2.2-8.1,3.6c-2.6,1.4-4.6,3-5.9,4.7L1227.7,2504.6z M1108,2509.4c1,2.3,3.1,4.3,6.4,6
					c3.3,1.7,7.4,3.1,12.3,4.2c4.9,1.1,10.5,1.9,16.6,2.4c6.2,0.5,12.6,0.7,19.4,0.7c7.9,0,14.7-0.4,20.6-1
					c5.8-0.6,10.9-1.5,15.4-2.6c4.4-1.1,8.3-2.4,11.6-3.8c3.3-1.5,6.2-3,8.8-4.7L1108,2509.4z M1392.7,2506.2c-1-2.4-3.3-4.4-7-6.2
					c-3.7-1.8-8.4-3.3-14.2-4.5c-5.7-1.2-12.4-2.1-20.1-2.7c-7.6-0.6-16-0.9-25.3-0.8c-8.2,0-15.3,0.4-21.2,1.1
					c-5.9,0.7-11,1.6-15.4,2.8c-4.3,1.2-8,2.5-11,4.1c-3,1.6-5.9,3.2-8.5,5L1392.7,2506.2z"/>
			</g>
			
				<linearGradient id="SVGID_35_" gradientUnits="userSpaceOnUse" x1="397.8285" y1="1568.4584" x2="412.036" y2="1687.3962" gradientTransform="matrix(-1 0 0 -1 1669.249 4127.8389)">
				<stop  offset="3.597120e-03" style="stop-color:#F36F56"/>
				<stop  offset="0.3059" style="stop-color:#F99C4C"/>
				<stop  offset="0.545" style="stop-color:#FDB946"/>
				<stop  offset="0.6817" style="stop-color:#FFC444"/>
				<stop  offset="0.8038" style="stop-color:#FFC244"/>
				<stop  offset="0.8667" style="stop-color:#FEBA46"/>
				<stop  offset="0.916" style="stop-color:#FCAD49"/>
				<stop  offset="0.958" style="stop-color:#F99A4D"/>
				<stop  offset="0.9955" style="stop-color:#F58152"/>
				<stop  offset="1" style="stop-color:#F57E53"/>
			</linearGradient>
			<path class="st36" d="M1263.9,2457.5c-170.7,0-348.3,15-376.8,44.1c1.1,1,2.1,2.1,3.1,3.3c24-20.2,170.7-40.5,373.7-40.5
				c208.2,0,357.3,21.4,375.3,42.1c0.9-1.1,1.8-2.2,2.9-3.2C1618.6,2473.1,1437.6,2457.5,1263.9,2457.5z"/>
		</g>
		<g>
			<linearGradient id="SVGID_36_" gradientUnits="userSpaceOnUse" x1="767.9214" y1="2479.8962" x2="1648.5511" y2="2479.8962">
				<stop  offset="0" style="stop-color:#FCB148"/>
				<stop  offset="5.207239e-02" style="stop-color:#FDBA46"/>
				<stop  offset="0.1424" style="stop-color:#FFC244"/>
				<stop  offset="0.3183" style="stop-color:#FFC444"/>
				<stop  offset="0.4849" style="stop-color:#FDB946"/>
				<stop  offset="0.7754" style="stop-color:#F99C4D"/>
				<stop  offset="0.8658" style="stop-color:#F8924F"/>
				<stop  offset="1" style="stop-color:#F8924F"/>
			</linearGradient>
			<path class="st37" d="M833.4,2412.6v84.9c0,27.4,171.4,49.7,382.7,49.7c211.4,0,382.7-22.2,382.7-49.7v-84.9H833.4z"/>
			<linearGradient id="SVGID_37_" gradientUnits="userSpaceOnUse" x1="1212.2833" y1="2380.6965" x2="1258.7095" y2="2769.3508">
				<stop  offset="0" style="stop-color:#FFDB44"/>
				<stop  offset="1" style="stop-color:#FEEF06"/>
			</linearGradient>
			<ellipse class="st38" cx="1216.1" cy="2412.6" rx="382.7" ry="49.7"/>
			<linearGradient id="SVGID_38_" gradientUnits="userSpaceOnUse" x1="1210.2648" y1="2363.364" x2="1224.5228" y2="2482.7251">
				<stop  offset="0" style="stop-color:#FFDB44"/>
				<stop  offset="1" style="stop-color:#FEEF06"/>
			</linearGradient>
			<path class="st39" d="M1216.1,2465.7c-187.2,0-383-17.9-383-52.4c0-1.9,0.7-5.2,2.6-5.2c1.9,0,1.1,2.6,1.1,4.5
				c0,21.9,155.8,46.2,379.3,46.2c223.5,0,379.3-24.4,379.3-46.2c0-1.9,0.3-3.7,2.2-3.7c1.9,0,1.4,2.5,1.4,4.4
				C1599.1,2447.9,1403.3,2465.7,1216.1,2465.7z"/>
			<g>
				<path class="st11" d="M1179.9,2415.4c3.8-2.6,7.8-5.2,12-7.7c4.2-2.5,9.8-4.8,16.4-6.9c6.7-2,15.1-3.7,25.2-5
					c10.1-1.3,22.7-2,37.8-2c14.8-0.1,28.7,0.4,41.7,1.4c13,1,24.4,2.5,34.3,4.5c9.8,2,17.9,4.5,24,7.5c6.1,3,9.8,6.4,11,10.2
					l43.1,0.4c3.1,0,5.9,0.3,8.3,0.8c2.4,0.5,3.6,1.1,3.6,1.9l0,3.5l-55.4-0.5c-1.9,4.3-6.9,8.3-14.9,11.9c-7.9,3.6-18,6.7-30.4,9.4
					l-20.2-2.8c-1.8-0.3-3.3-0.6-4.5-1.1c-1.2-0.4-1.7-0.9-1.7-1.4c0-0.7,1.6-1.5,4.7-2.3c3.1-0.9,6.6-2,10.6-3.3
					c3.9-1.3,7.8-2.8,11.6-4.6c3.8-1.8,6.3-3.9,7.6-6.3l-130.8-1.3c-3.4,2.5-7.3,5-11.5,7.5c-4.3,2.4-9.9,4.6-17,6.6
					c-7,2-15.8,3.5-26.3,4.8c-10.5,1.2-23.7,1.9-39.7,1.9c-12,0.1-23.7-0.4-35.1-1.4c-11.4-1-21.6-2.4-30.4-4.3
					c-8.9-1.9-16.1-4.3-21.8-7.2c-5.7-2.8-8.8-6.1-9.5-9.8l-35.5-0.4c-3.1,0-5.9-0.3-8.4-0.7c-2.4-0.5-3.7-1.1-3.7-1.9l0-3.5
					l48.5,0.5c2.1-3.7,6.5-7,13.3-9.8c6.7-2.8,14.9-5.2,24.6-7.4l16.2,2.2c4.9,0.7,7.4,1.5,7.4,2.4c0,0.5-1,1.1-3,1.9
					c-2.1,0.7-4.5,1.6-7.3,2.7c-2.8,1-5.5,2.2-8.1,3.6c-2.6,1.4-4.6,3-5.9,4.7L1179.9,2415.4z M1060.3,2420.2c1,2.3,3.1,4.3,6.4,6
					c3.3,1.7,7.4,3.1,12.3,4.2c4.9,1.1,10.5,1.9,16.6,2.4c6.2,0.5,12.6,0.7,19.4,0.7c7.9,0,14.7-0.4,20.6-1
					c5.8-0.6,10.9-1.5,15.4-2.6c4.4-1.1,8.3-2.4,11.6-3.8c3.3-1.5,6.2-3,8.8-4.7L1060.3,2420.2z M1344.9,2417c-1-2.4-3.3-4.4-7-6.2
					c-3.7-1.8-8.4-3.3-14.2-4.5c-5.7-1.2-12.4-2.1-20.1-2.7c-7.6-0.6-16-0.9-25.3-0.8c-8.2,0-15.3,0.4-21.2,1.1
					c-5.9,0.7-11,1.6-15.4,2.8c-4.3,1.2-8,2.5-11,4.1c-3,1.6-5.9,3.2-8.5,5L1344.9,2417z"/>
			</g>
			
				<linearGradient id="SVGID_39_" gradientUnits="userSpaceOnUse" x1="445.5809" y1="1657.6273" x2="459.7885" y2="1776.5653" gradientTransform="matrix(-1 0 0 -1 1669.249 4127.8389)">
				<stop  offset="3.597120e-03" style="stop-color:#F36F56"/>
				<stop  offset="0.3059" style="stop-color:#F99C4C"/>
				<stop  offset="0.545" style="stop-color:#FDB946"/>
				<stop  offset="0.6817" style="stop-color:#FFC444"/>
				<stop  offset="0.8038" style="stop-color:#FFC244"/>
				<stop  offset="0.8667" style="stop-color:#FEBA46"/>
				<stop  offset="0.916" style="stop-color:#FCAD49"/>
				<stop  offset="0.958" style="stop-color:#F99A4D"/>
				<stop  offset="0.9955" style="stop-color:#F58152"/>
				<stop  offset="1" style="stop-color:#F57E53"/>
			</linearGradient>
			<path class="st40" d="M1216.1,2368.3c-170.7,0-348.3,15-376.8,44.1c1.1,1,2.1,2.1,3.1,3.3c24-20.2,170.7-40.5,373.7-40.5
				c208.2,0,357.3,21.4,375.3,42.1c0.9-1.1,1.8-2.2,2.9-3.2C1570.9,2383.9,1389.8,2368.3,1216.1,2368.3z"/>
		</g>
		<g>
			
				<linearGradient id="SVGID_40_" gradientUnits="userSpaceOnUse" x1="1843.4099" y1="2046.6995" x2="2724.0437" y2="2046.6995" gradientTransform="matrix(0.5796 0.8149 -0.8149 0.5796 2214.3765 -230.3409)">
				<stop  offset="0" style="stop-color:#FCB148"/>
				<stop  offset="5.207239e-02" style="stop-color:#FDBA46"/>
				<stop  offset="0.1424" style="stop-color:#FFC244"/>
				<stop  offset="0.3183" style="stop-color:#FFC444"/>
				<stop  offset="0.4849" style="stop-color:#FDB946"/>
				<stop  offset="0.7754" style="stop-color:#F99C4D"/>
				<stop  offset="0.8658" style="stop-color:#F8924F"/>
				<stop  offset="1" style="stop-color:#F8924F"/>
			</linearGradient>
			<path class="st41" d="M1707.7,2472.5l-69.2,49.2c-22.4,15.9,58.8,168.4,181.4,340.7c122.5,172.2,240,299,262.3,283.1l69.2-49.2
				L1707.7,2472.5z"/>
			
				<linearGradient id="SVGID_41_" gradientUnits="userSpaceOnUse" x1="2287.7729" y1="1947.5098" x2="2334.1931" y2="2336.1157" gradientTransform="matrix(0.5796 0.8149 -0.8149 0.5796 2214.3765 -230.3409)">
				<stop  offset="0" style="stop-color:#FFDB44"/>
				<stop  offset="1" style="stop-color:#FEEF06"/>
			</linearGradient>
			<path class="st42" d="M2151.4,3096.2c-22.4,15.9-139.8-110.8-262.3-283.1c-122.5-172.2-203.7-324.8-181.4-340.7
				c22.4-15.9,139.8,110.8,262.3,283.1C2092.5,2927.8,2173.7,3080.3,2151.4,3096.2z"/>
			
				<linearGradient id="SVGID_42_" gradientUnits="userSpaceOnUse" x1="2285.7546" y1="1930.1858" x2="2300.0103" y2="2049.5271" gradientTransform="matrix(0.5796 0.8149 -0.8149 0.5796 2214.3765 -230.3409)">
				<stop  offset="0" style="stop-color:#FFDB44"/>
				<stop  offset="1" style="stop-color:#FEEF06"/>
			</linearGradient>
			<path class="st43" d="M1886.3,2815.1c-108.5-152.5-207.4-322.4-179.3-342.4c1.5-1.1,4.6-2.5,5.7-0.9c1.1,1.5-1.5,2.4-3,3.5
				c-17.8,12.7,52.6,153.7,182.2,335.9s239.7,295,257.5,282.3c1.5-1.1,3.2-1.9,4.3-0.3c1.1,1.5-1.2,2.6-2.8,3.7
				C2122.8,3116.8,1994.8,2967.7,1886.3,2815.1z"/>
			<g>
				<path class="st11" d="M1906.3,2756.5c4.3,1.6,8.7,3.3,13.2,5.3c4.5,2,9.6,5.2,15.1,9.4c5.6,4.3,11.8,10.2,18.7,17.7
					c6.9,7.5,14.8,17.4,23.6,29.6c8.6,12,16.3,23.6,23,34.8c6.7,11.1,12.1,21.3,16.2,30.5c4.1,9.2,6.7,17.2,7.9,23.9
					c1.1,6.7,0.5,11.7-1.9,14.9l24.6,35.4c1.8,2.6,3.2,5,4.2,7.2c1,2.2,1.2,3.6,0.6,4l-2.9,2.1l-31.7-45.5
					c-4.7,0.9-10.8-0.8-18.3-5.2c-7.5-4.4-15.9-10.8-25.2-19.3l-9.4-18.1c-0.8-1.6-1.4-3-1.7-4.2c-0.3-1.2-0.3-1.9,0.1-2.2
					c0.6-0.4,2.1,0.4,4.6,2.5c2.5,2,5.4,4.3,8.8,6.7c3.3,2.4,6.8,4.7,10.4,6.8c3.6,2,6.8,2.9,9.5,2.5l-74.7-107.3
					c-4.1-1.3-8.3-3.1-12.8-5.1c-4.5-2.1-9.5-5.4-15.2-10c-5.7-4.6-12-10.8-19.1-18.7c-7.1-7.9-15.3-18.3-24.6-31.2
					c-7-9.7-13.4-19.5-19.2-29.4c-5.8-9.9-10.5-19-14.1-27.3c-3.6-8.3-5.8-15.6-6.8-21.9c-1-6.3-0.2-10.7,2.5-13.4l-20.3-29.1
					c-1.8-2.6-3.2-5-4.3-7.3c-1-2.3-1.2-3.6-0.6-4.1l2.9-2.1l27.7,39.8c4.3-0.4,9.5,1.3,15.6,5.1c6.2,3.9,12.9,9.1,20.3,15.8
					l7.6,14.5c2.3,4.4,3.1,6.9,2.3,7.4c-0.4,0.3-1.5-0.2-3.3-1.4c-1.8-1.3-3.9-2.7-6.4-4.4c-2.4-1.6-5-3.2-7.7-4.5
					c-2.7-1.3-5.1-2-7.3-2.1L1906.3,2756.5z M1833,2661.8c-1.3,2.1-1.7,5.1-1.2,8.7c0.5,3.7,1.8,7.8,3.8,12.5
					c2,4.7,4.5,9.6,7.7,14.9c3.2,5.3,6.7,10.7,10.6,16.2c4.6,6.4,8.8,11.8,12.7,16.2c3.9,4.4,7.6,8,11,11c3.4,3,6.7,5.4,9.8,7.2
					c3.1,1.8,6.1,3.3,9,4.5L1833,2661.8z M2000.6,2891.9c1.4-2.2,1.7-5.3,1-9.3c-0.7-4-2.2-8.8-4.6-14.1c-2.3-5.4-5.5-11.4-9.4-17.9
					c-3.9-6.6-8.6-13.6-14-21.1c-4.8-6.6-9.2-12.2-13.2-16.6c-4-4.4-7.7-8-11.2-10.9c-3.5-2.8-6.7-5.1-9.7-6.6c-3-1.6-6-2.9-9-4
					L2000.6,2891.9z"/>
			</g>
			
				<linearGradient id="SVGID_43_" gradientUnits="userSpaceOnUse" x1="-629.3397" y1="2090.3743" x2="-615.1348" y2="2209.2903" gradientTransform="matrix(-0.5796 -0.8149 0.8149 -0.5796 -181.2018 3522.6223)">
				<stop  offset="3.597120e-03" style="stop-color:#F36F56"/>
				<stop  offset="0.3059" style="stop-color:#F99C4C"/>
				<stop  offset="0.545" style="stop-color:#FDB946"/>
				<stop  offset="0.6817" style="stop-color:#FFC444"/>
				<stop  offset="0.8038" style="stop-color:#FFC244"/>
				<stop  offset="0.8667" style="stop-color:#FEBA46"/>
				<stop  offset="0.916" style="stop-color:#FCAD49"/>
				<stop  offset="0.958" style="stop-color:#F99A4D"/>
				<stop  offset="0.9955" style="stop-color:#F58152"/>
				<stop  offset="1" style="stop-color:#F57E53"/>
			</linearGradient>
			<path class="st44" d="M1965.7,2758.7c-98.9-139.1-214.1-275.2-254.3-281.5c-0.2,1.5-0.5,3-0.9,4.4
				c30.3,7.8,131.9,115.6,249.6,281c120.7,169.7,189.7,303.5,183.3,330.2c1.4,0.1,2.9,0.2,4.3,0.5
				C2158.6,3056.8,2066.3,2900.2,1965.7,2758.7z"/>
		</g>
	</g>
	<g>
		
			<linearGradient id="SVGID_44_" gradientUnits="userSpaceOnUse" x1="-2563.0898" y1="2073.3499" x2="-2355.5598" y2="2073.3499" gradientTransform="matrix(-1 0 0 1 -1104.5378 0)">
			<stop  offset="0" style="stop-color:#FF9085"/>
			<stop  offset="1" style="stop-color:#FB6FBB"/>
		</linearGradient>
		<path class="st45" d="M1285.7,1858c26.1-7.6,61.1,40.3,90.1,80.2c43.4,59.7,94.2,129.4,80.5,213.1
			c-13.4,82.4-84.1,146.5-104.2,137.3c-17.2-7.8,15.9-63.2-9.5-137.3c-20.5-59.8-54.4-59.8-77.1-118.4
			C1237.3,1960.2,1253.5,1867.4,1285.7,1858z"/>
		
			<linearGradient id="SVGID_45_" gradientUnits="userSpaceOnUse" x1="-1918.8875" y1="2463.0042" x2="-1516.4432" y2="2463.0042" gradientTransform="matrix(-1 0 0 1 -102.9487 0)">
			<stop  offset="0" style="stop-color:#311944"/>
			<stop  offset="1" style="stop-color:#A03976"/>
		</linearGradient>
		<path class="st46" d="M1298.6,2237.4c134.6,32.7,223.2,85.1,275,122.2c28.1,20.1,41,32.6,48,50.9
			c39.9,104.2-165,261.7-186.8,278.2c-9.5-22.2-19.1-44.5-28.6-66.7c21.2-116.2,56.4-152.6,85.9-163.4c8.2-3,22.1-6.3,21.8-10.2
			c-0.6-9.2-78.4,3.9-152.8-23.3c-74.1-27.1-148.6-95.8-135.3-141.1C1228.3,2275.6,1238.5,2251.7,1298.6,2237.4z"/>
		
			<linearGradient id="SVGID_46_" gradientUnits="userSpaceOnUse" x1="4891.0786" y1="1958.6036" x2="4908.4741" y2="2271.7212" gradientTransform="matrix(0.9565 0.2918 -0.2918 0.9565 -2636.6191 -392.2555)">
			<stop  offset="0" style="stop-color:#444B8C"/>
			<stop  offset="0.9964" style="stop-color:#26264F"/>
		</linearGradient>
		<path class="st47" d="M1429.1,2998.7c0,0-12.5,4.5-12.6,14.4c0,9.9,12.7,53.5,26.5,69.1c13.8,15.5,15.1-7.6,14.2-22.5
			c-0.9-14.9-4.5-48.3-7.9-54.7C1446,2998.5,1429.1,2998.7,1429.1,2998.7z"/>
		
			<linearGradient id="SVGID_47_" gradientUnits="userSpaceOnUse" x1="-1729.7129" y1="2478.1458" x2="-1327.2692" y2="2478.1458" gradientTransform="matrix(-1 0 0 1 -102.9487 0)">
			<stop  offset="0" style="stop-color:#311944"/>
			<stop  offset="1" style="stop-color:#A03976"/>
		</linearGradient>
		<path class="st48" d="M1469.3,2389.6c24.5-0.5,81.7-5,97,23.3c12.7,23.6-9.6,59.4-23.3,81.5c-37.3,59.9-73.5,66-98.9,102.8
			c-9.9,14.2-18.8,34.1-21.6,62.6c-5.4-12.6-10.8-25.2-16.2-37.8c21.2-116.2,56.4-152.6,85.9-163.4c8.2-3,22.1-6.3,21.8-10.2
			c-0.6-9.2-78.4,3.9-152.8-23.3c-67.6-24.7-135.2-83.9-136.6-128.5C1331.6,2373.3,1412.1,2390.8,1469.3,2389.6z"/>
		<linearGradient id="SVGID_48_" gradientUnits="userSpaceOnUse" x1="1421.8815" y1="3003.7976" x2="1448.0508" y2="3003.7976">
			<stop  offset="0" style="stop-color:#FFC444"/>
			<stop  offset="0.9964" style="stop-color:#F36F56"/>
		</linearGradient>
		<path class="st49" d="M1421.9,2956.6c0.7,15.3,2,28,3.2,37.5c2.6,21,5,29.3,8.2,36.8c2.8,6.6,9.9,21,13.3,20
			c3.4-1-0.1-16.9-2.8-61.2c-0.4-6.4-1.6-26.9-1.6-26.9l0,0L1421.9,2956.6z"/>
		
			<linearGradient id="SVGID_49_" gradientUnits="userSpaceOnUse" x1="-1703.9963" y1="2213.1306" x2="-1343.1555" y2="2651.5713" gradientTransform="matrix(-1 0 0 1 -102.9487 0)">
			<stop  offset="0" style="stop-color:#311944"/>
			<stop  offset="1" style="stop-color:#A03976"/>
		</linearGradient>
		<path class="st50" d="M1221,2246.1c77.5,46.8,127.9,99.9,157.1,135.8c34.5,42.4,87.1,106.8,106.1,202.9
			c10.1,51.2,5.2,97.2-5.2,187c-10.3,89.2-25.1,161.8-36.7,211.4c-6,2.4-11.9,4.8-17.9,7.2c-16-29.3-36.9-75.8-44.4-135.2
			c-12.3-97.2,24.1-128.1,6.7-197c-15.1-59.7-58.9-96.3-146.5-169.5c-72-60.2-138.3-95.8-163-170.9c-4.2-12.7-7.7-28.4-0.9-42.7
			C1091.1,2244.3,1147.3,2233.6,1221,2246.1z"/>
		
			<linearGradient id="SVGID_50_" gradientUnits="userSpaceOnUse" x1="-682.8582" y1="1549.6704" x2="-1160.1014" y2="1949.3138" gradientTransform="matrix(-0.9987 -5.090000e-02 -5.090000e-02 0.9987 -8.7567 27.2223)">
			<stop  offset="0" style="stop-color:#311944"/>
			<stop  offset="1" style="stop-color:#6B3976"/>
		</linearGradient>
		<path class="st51" d="M1159.1,1863.5c20.1-4.3,53.2-3.5,84.8-28.3c9.5-7.5,43.2-34,39.1-71.9c-3.6-33.4-35.2-51.3-39.1-53.5
			c-22.4-12.3-44.7-9.6-69.5-6.2c-32.1,4.4-42.8,13.2-65.1,19.2c-55.2,14.9-73.9-16.2-129.4-13.6c-71,3.3-77.2,55.8-136.9,57.1
			c-67.1,1.5-80-64.2-146.2-75.3c-91.9-15.4-231.1,83.5-228.3,197.7c1.6,65.9,50.7,141.4,113.4,164.1c36.5,13.2,76,9,87.2,32.8
			c8,16.9-10,29.9-8.3,59.4c2.2,38,34.9,64.6,40.2,68.9c49,40,158.9,19.8,234-36.8C1070.2,2075.2,1049.7,1887.1,1159.1,1863.5z"/>
		<linearGradient id="SVGID_51_" gradientUnits="userSpaceOnUse" x1="979.0383" y1="2226.1274" x2="1366.6119" y2="1877.6663">
			<stop  offset="0" style="stop-color:#FF9085"/>
			<stop  offset="1" style="stop-color:#FB6FBB"/>
		</linearGradient>
		<path class="st52" d="M1003.7,1850c45.6-5.6,98.2-9.9,156.6-10.7c123.4-1.7,141.1,14,145.6,25.6c8.4,21.6-6,32.4,2.2,70.1
			c4.9,22.5,0.3,32.8,9.7,57c9.2,23.6,2,36.3-6.2,91.6c-10.4,70.7-15.3,106.6,4.5,135.1c13.7,19.8,29.1,21.5,27.7,30.9
			c-3.1,20-72.4,9-160.2,47.5c-25.4,11.1-48.8,24.9-68.4,36.4c-45.9,27-54.4,37.3-75.7,49.5c-67.2,38.6-168.2,42.3-221.2-4.4
			c-19.7-17.4-34.1-43-27.6-52.4c8.8-12.8,48.2,16.2,84.4-1.5c24-11.7,19.4-30.7,47.1-53c33.3-26.9,56.5-12.8,79.2-30.3
			c35.4-27.3,19.3-92.5,9.4-202C1006.8,1994.1,1002.6,1929.4,1003.7,1850z"/>
		<linearGradient id="SVGID_52_" gradientUnits="userSpaceOnUse" x1="1090.1444" y1="1826.1318" x2="1226.7942" y2="1826.1318">
			<stop  offset="0" style="stop-color:#FFC444"/>
			<stop  offset="0.9964" style="stop-color:#F36F56"/>
		</linearGradient>
		<path class="st53" d="M1137.3,1824.6c-16.8,10.4-44.1,24.1-47.1,27.8c-3,3.7,82.5,18.3,135.6-8.5c0,0,8.2-4.6-23.8-11
			c-6.8-1.4-5.5-14.7-4.6-28.4l-6.4-11.9C1191,1792.6,1154.1,1814.1,1137.3,1824.6z"/>
		<linearGradient id="SVGID_53_" gradientUnits="userSpaceOnUse" x1="1218.17" y1="1753.932" x2="1000.9368" y2="2796.6509">
			<stop  offset="0" style="stop-color:#FFC444"/>
			<stop  offset="0.9964" style="stop-color:#F36F56"/>
		</linearGradient>
		<path class="st54" d="M1179.7,1784.5c0,0-6.6,28,18.1,41.9c22.1,12.4,59.5-38.4,52.5-57.3c-2.3-6.3-10.6-14.4-19.3-17.1
			c-6.1-1.9-29.3-1.2-39.2,18.3c-2.6-5.7-7.2-8.7-10.4-7.7c-4,1.2-4.5,8.4-4.7,10C1176.3,1778.2,1178.6,1782.6,1179.7,1784.5z"/>
		<linearGradient id="SVGID_54_" gradientUnits="userSpaceOnUse" x1="991.7709" y1="2240.2888" x2="1379.3464" y2="1891.8258">
			<stop  offset="0" style="stop-color:#FF9085"/>
			<stop  offset="1" style="stop-color:#FB6FBB"/>
		</linearGradient>
		<path class="st55" d="M1218,2233.6c-25.4,10.5-28.9,33.3-64,46.2c-33.5,12.3-44.8-3.1-78.2,7.1c-50.2,15.4-69.4,63.8-77,59.3
			c-7-4.2-0.3-50.6,32-80.6c37.1-34.5,77-18.7,100.7-54.5c9.2-13.9,16.3-36.2,8.3-53.3c-10.9-23.2-39.4-15.2-54.5-34.4
			c-27.1-34.5,36.4-96.7,19-149.3c-6.9-21-29.1-47.3-100.4-64.9c1,52.7,4,96.8,7,130.3c9.9,109.5,26,174.7-9.4,202
			c-22.7,17.5-45.9,3.4-79.2,30.3c-27.7,22.3-23.1,41.3-47.1,53c-36.2,17.7-75.6-11.3-84.4,1.5c-6.5,9.4,7.9,35,27.6,52.4
			c52.9,46.7,153.9,43,221.2,4.4c21.3-12.2,29.8-22.5,75.7-49.5c19.6-11.5,43-25.2,68.4-36.4c61.6-27,114-29.6,140.9-35.7
			C1271.2,2225.7,1238.6,2225.1,1218,2233.6z"/>
		<g>
			<linearGradient id="SVGID_55_" gradientUnits="userSpaceOnUse" x1="1140.6605" y1="2301.5898" x2="1445.8477" y2="2301.5898">
				<stop  offset="0" style="stop-color:#444B8C"/>
				<stop  offset="0.9964" style="stop-color:#26264F"/>
			</linearGradient>
			<path class="st56" d="M1438.4,2278.9l-279.2,13.6c-3.8,0.2-7.3,2.2-9.4,5.5l-7.7,12.4c-3.8,6.2,0.8,14.1,8,13.9l295.8-11.3
				L1438.4,2278.9z"/>
			<linearGradient id="SVGID_56_" gradientUnits="userSpaceOnUse" x1="1319.8597" y1="2220.2068" x2="1738.7524" y2="2220.2068">
				<stop  offset="0" style="stop-color:#444B8C"/>
				<stop  offset="0.9964" style="stop-color:#26264F"/>
			</linearGradient>
			<path class="st57" d="M1728.8,2123.4l-288.5,5.6c-8.5,0.2-16.4,4.8-20.6,12.2l-99.9,175.7l304.7-12.1c8.4-0.3,16-4.9,20.3-12
				l92.5-154.6C1741.3,2131.6,1736.5,2123.3,1728.8,2123.4z"/>
			
				<linearGradient id="SVGID_57_" gradientUnits="userSpaceOnUse" x1="99.2644" y1="2109.0759" x2="299.3539" y2="2307.5647" gradientTransform="matrix(-1 0 0 1 1740.2787 0)">
				<stop  offset="0" style="stop-color:#444B8C"/>
				<stop  offset="0.9964" style="stop-color:#26264F"/>
			</linearGradient>
			<path class="st58" d="M1419.7,2141.2c4.2-7.4,12-12.1,20.6-12.2l6.3-0.1c0.9,9.3,3.8,17.8,9.5,24.7c17.8,21.5,47.3,8.2,69.4,30.9
				c24.2,25,1.8,54.7,23.5,77.9c22.8,24.4,59.6,4.5,101.9,20.2l-6.1,10.2c-4.3,7.2-11.9,11.7-20.3,12l-304.7,12.1L1419.7,2141.2z"/>
		</g>
		<g>
			<linearGradient id="SVGID_58_" gradientUnits="userSpaceOnUse" x1="1139.6421" y1="2223.5232" x2="843.6654" y2="1932.2825">
				<stop  offset="0" style="stop-color:#FF9085"/>
				<stop  offset="1" style="stop-color:#FB6FBB"/>
			</linearGradient>
			<path class="st59" d="M1193.7,2269.6c3.6-9.6,7.3-19.2,10.9-28.8c-40.2-11-95.7-27.3-152.7-47.6c-14.1-5-19.2-11.5-23-16.5
				c-29.2-38.7,45.1-107.1,43.8-195.8c-0.9-61.5-38.2-131.8-71-132.6c-66.8-1.6-213.9,281.6-90,402.5
				C973.2,2310.8,1088.2,2317.7,1193.7,2269.6z"/>
		</g>
		<linearGradient id="SVGID_59_" gradientUnits="userSpaceOnUse" x1="1191.2677" y1="2257.7378" x2="1292.4337" y2="2257.7378">
			<stop  offset="0" style="stop-color:#FFC444"/>
			<stop  offset="0.9964" style="stop-color:#F36F56"/>
		</linearGradient>
		<path class="st60" d="M1204.6,2240.8c25.2-13.4,55.4,0.3,57.3,1.3c5.5,2.6,13.6,7.3,21.8,15.6c0.9,1.3,11.9,16.4,7.9,21.3
			c-3.2,3.9-15.6,0.7-30.4-8.6c-6.2-0.9-15.5-1.7-26.6-0.7c-20.4,1.9-29.8,8.3-37.2,2.8c-5.4-4.1-7.3-12.7-5.3-19.1
			C1194.1,2246.5,1200.3,2243.1,1204.6,2240.8z"/>
	</g>
	<g>
		
			<linearGradient id="SVGID_60_" gradientUnits="userSpaceOnUse" x1="2211.4294" y1="2215.0413" x2="2655.8838" y2="3347.4329" gradientTransform="matrix(1 0 7.550000e-02 0.9864 -71.0208 13.0808)">
			<stop  offset="0" style="stop-color:#311944"/>
			<stop  offset="1" style="stop-color:#A03976"/>
		</linearGradient>
		<path class="st61" d="M2799.2,2193.9l-616.6-12c-27.3-0.5-48,20.2-46,46.3l64.5,841.9c2,26.1,25.8,46.2,53,44.9l613.4-28.8
			c24.8-1.2,43.3-22.2,41.4-47l-61.2-799.6C2845.7,2214.9,2824.1,2194.4,2799.2,2193.9z"/>
		
			<linearGradient id="SVGID_61_" gradientUnits="userSpaceOnUse" x1="2226.9304" y1="2215.0413" x2="2671.385" y2="3347.4329" gradientTransform="matrix(1 0 7.550000e-02 0.9864 -71.0208 13.0808)">
			<stop  offset="0" style="stop-color:#FF9085"/>
			<stop  offset="1" style="stop-color:#FB6FBB"/>
		</linearGradient>
		<path class="st62" d="M2814.7,2193.9l-616.6-12c-27.3-0.5-48,20.2-46,46.3l64.5,841.9c2,26.1,25.8,46.2,53,44.9l613.4-28.8
			c24.8-1.2,43.3-22.2,41.4-47l-61.2-799.6C2861.2,2214.9,2839.6,2194.4,2814.7,2193.9z"/>
		<path class="st63" d="M2268.5,3100.8c-18.9,0.9-35.5-13.2-36.9-31.3l-64.4-841c-1.4-18.1,13-32.6,32-32.3l616.5,11.3
			c17.3,0.3,32.5,14.6,33.8,31.9l61.3,800.4c1.3,17.3-11.6,32-28.9,32.7L2268.5,3100.8z"/>
		
			<linearGradient id="SVGID_62_" gradientUnits="userSpaceOnUse" x1="2295.9675" y1="2116.9316" x2="2516.8679" y2="2567.0679" gradientTransform="matrix(1 0 7.550000e-02 0.9864 -71.0208 13.0808)">
			<stop  offset="0" style="stop-color:#311944"/>
			<stop  offset="1" style="stop-color:#A03976"/>
		</linearGradient>
		<path class="st64" d="M2782.7,2250.7l-540.5-8.2c-12.5-0.2-21.9,9.3-21,21.3l10.1,132c0.9,11.9,11.8,21.7,24.3,21.7l540,1.5
			c11.5,0,20.1-9.2,19.3-20.7l-9.7-126.5C2804.3,2260.3,2794.3,2250.8,2782.7,2250.7z"/>
		<g>
			
				<linearGradient id="SVGID_63_" gradientUnits="userSpaceOnUse" x1="2171.167" y1="2485.3413" x2="2242.1768" y2="2630.04" gradientTransform="matrix(1 0 7.550000e-02 0.9864 -71.0208 13.0808)">
				<stop  offset="0" style="stop-color:#311944"/>
				<stop  offset="1" style="stop-color:#A03976"/>
			</linearGradient>
			<path class="st65" d="M2397.2,2502.6l-138.7,0.5c-10.4,0-18.3,8.2-17.5,18.2l2.8,36c0.8,10,9.9,18,20.3,18l138.7-1.2
				c10.2-0.1,17.9-8.2,17.1-18l-2.7-35.6C2416.3,2510.5,2407.4,2502.5,2397.2,2502.6z"/>
			<path class="st66" d="M2262.9,2561c-2.2,0-4.2-1.7-4.3-3.8l-2.8-36c-0.2-2.1,1.5-3.9,3.7-3.9l138.7-0.6c2.2,0,4.1,1.7,4.2,3.8
				l2.7,35.6c0.2,2.1-1.5,3.8-3.7,3.9L2262.9,2561z"/>
			
				<linearGradient id="SVGID_64_" gradientUnits="userSpaceOnUse" x1="2381.2112" y1="2485.783" x2="2450.614" y2="2627.2075" gradientTransform="matrix(1 0 7.550000e-02 0.9864 -71.0208 13.0808)">
				<stop  offset="0" style="stop-color:#311944"/>
				<stop  offset="1" style="stop-color:#A03976"/>
			</linearGradient>
			<path class="st67" d="M2604.3,2501.9l-134.6,0.5c-10.1,0-17.8,8.1-17,17.9l2.7,35.5c0.8,9.9,9.6,17.8,19.7,17.7l134.6-1.1
				c9.9-0.1,17.4-8,16.6-17.8l-2.7-35.1C2622.9,2509.7,2614.2,2501.8,2604.3,2501.9z"/>
			<path class="st66" d="M2474,2559.4c-2.2,0-4-1.7-4.2-3.8l-2.7-35.5c-0.2-2.1,1.5-3.8,3.6-3.8l134.6-0.6c2.1,0,4,1.7,4.1,3.7
				l2.7,35.1c0.2,2.1-1.4,3.8-3.5,3.8L2474,2559.4z"/>
			
				<linearGradient id="SVGID_65_" gradientUnits="userSpaceOnUse" x1="2585.0593" y1="2486.1943" x2="2652.9192" y2="2624.4746" gradientTransform="matrix(1 0 7.550000e-02 0.9864 -71.0208 13.0808)">
				<stop  offset="0" style="stop-color:#311944"/>
				<stop  offset="1" style="stop-color:#A03976"/>
			</linearGradient>
			<path class="st68" d="M2805.3,2501.2l-130.7,0.4c-9.8,0-17.2,7.9-16.5,17.6l2.7,35c0.7,9.7,9.3,17.5,19.2,17.4l130.6-1.1
				c9.6-0.1,16.8-7.9,16.1-17.5l-2.6-34.5C2823.3,2508.9,2814.9,2501.2,2805.3,2501.2z"/>
			<path class="st66" d="M2678.9,2557.9c-2.1,0-3.9-1.7-4.1-3.7l-2.7-34.9c-0.2-2.1,1.4-3.8,3.5-3.8l130.7-0.6c2.1,0,3.9,1.6,4,3.7
				l2.6,34.6c0.2,2-1.4,3.7-3.4,3.7L2678.9,2557.9z"/>
			
				<linearGradient id="SVGID_66_" gradientUnits="userSpaceOnUse" x1="2160.3477" y1="2592.4182" x2="2252.0398" y2="2779.2625" gradientTransform="matrix(1 0 7.550000e-02 0.9864 -71.0208 13.0808)">
				<stop  offset="0" style="stop-color:#311944"/>
				<stop  offset="1" style="stop-color:#A03976"/>
			</linearGradient>
			<path class="st69" d="M2405.3,2607.9l-138.7,1.5c-10.4,0.1-18.3,8.3-17.5,18.3l6.1,79.2c0.8,10,9.9,18,20.3,17.8l138.6-2.7
				c10.2-0.2,17.9-8.4,17.1-18.2l-6-78.2C2424.4,2615.7,2415.5,2607.7,2405.3,2607.9z"/>
			<path class="st66" d="M2274.4,2710.4c-2.2,0-4.2-1.7-4.3-3.8l-6.1-79.1c-0.2-2.1,1.5-3.9,3.7-3.9l138.6-1.7
				c2.2,0,4.1,1.7,4.2,3.8l6,78.3c0.2,2.1-1.5,3.9-3.7,3.9L2274.4,2710.4z"/>
			
				<linearGradient id="SVGID_67_" gradientUnits="userSpaceOnUse" x1="2370.5491" y1="2591.2485" x2="2460.3367" y2="2774.2117" gradientTransform="matrix(1 0 7.550000e-02 0.9864 -71.0208 13.0808)">
				<stop  offset="0" style="stop-color:#311944"/>
				<stop  offset="1" style="stop-color:#A03976"/>
			</linearGradient>
			<path class="st70" d="M2612.2,2605.6l-134.5,1.5c-10.1,0.1-17.7,8.2-17,18l6,78c0.8,9.9,9.6,17.7,19.7,17.5l134.5-2.6
				c9.9-0.2,17.3-8.2,16.6-18l-5.9-77C2630.8,2613.3,2622.2,2605.5,2612.2,2605.6z"/>
			<path class="st66" d="M2485.3,2706.6c-2.2,0-4-1.6-4.2-3.7l-6-77.9c-0.2-2.1,1.5-3.8,3.6-3.9l134.5-1.6c2.1,0,4,1.6,4.1,3.7
				l5.9,77.1c0.2,2.1-1.4,3.8-3.5,3.8L2485.3,2706.6z"/>
			
				<linearGradient id="SVGID_68_" gradientUnits="userSpaceOnUse" x1="2574.5503" y1="2590.0964" x2="2662.5054" y2="2769.3254" gradientTransform="matrix(1 0 7.550000e-02 0.9864 -71.0208 13.0808)">
				<stop  offset="0" style="stop-color:#311944"/>
				<stop  offset="1" style="stop-color:#A03976"/>
			</linearGradient>
			<path class="st71" d="M2813.1,2603.4l-130.6,1.4c-9.8,0.1-17.2,8.1-16.5,17.8l5.9,76.8c0.7,9.7,9.3,17.4,19.2,17.2l130.5-2.5
				c9.6-0.2,16.8-8.1,16.1-17.7l-5.8-75.9C2831.2,2611,2822.8,2603.3,2813.1,2603.4z"/>
			<path class="st66" d="M2690,2702.9c-2.1,0-3.9-1.6-4.1-3.7l-5.9-76.8c-0.2-2.1,1.4-3.8,3.5-3.8l130.6-1.6c2.1,0,3.9,1.6,4,3.7
				l5.8,76c0.2,2-1.4,3.7-3.4,3.8L2690,2702.9z"/>
			
				<linearGradient id="SVGID_69_" gradientUnits="userSpaceOnUse" x1="2160.781" y1="2744.0266" x2="2251.6514" y2="2929.1963" gradientTransform="matrix(1 0 7.550000e-02 0.9864 -71.0208 13.0808)">
				<stop  offset="0" style="stop-color:#311944"/>
				<stop  offset="1" style="stop-color:#A03976"/>
			</linearGradient>
			<path class="st72" d="M2416.6,2755.8l-138.5,3c-10.4,0.2-18.3,8.5-17.5,18.5l6.1,79.2c0.8,10,9.9,17.9,20.3,17.6l138.5-4.1
				c10.2-0.3,17.9-8.6,17.1-18.4l-6-78.2C2435.7,2763.4,2426.8,2755.6,2416.6,2755.8z"/>
			<path class="st66" d="M2285.8,2859.8c-2.2,0.1-4.2-1.6-4.3-3.7l-6.1-79.1c-0.2-2.1,1.5-3.9,3.7-4l138.5-3.1
				c2.2,0,4.1,1.6,4.2,3.7l6,78.3c0.2,2.1-1.5,3.9-3.7,3.9L2285.8,2859.8z"/>
			
				<linearGradient id="SVGID_70_" gradientUnits="userSpaceOnUse" x1="2370.9692" y1="2740.5767" x2="2459.9604" y2="2921.9172" gradientTransform="matrix(1 0 7.550000e-02 0.9864 -71.0208 13.0808)">
				<stop  offset="0" style="stop-color:#311944"/>
				<stop  offset="1" style="stop-color:#A03976"/>
			</linearGradient>
			<path class="st73" d="M2623.4,2751.3l-134.4,2.9c-10.1,0.2-17.7,8.4-17,18.2l6,78c0.8,9.9,9.6,17.6,19.7,17.3l134.3-4
				c9.9-0.3,17.3-8.4,16.6-18.2l-5.9-77C2641.9,2758.8,2633.3,2751.1,2623.4,2751.3z"/>
			<path class="st66" d="M2496.6,2853.8c-2.2,0.1-4-1.6-4.2-3.7l-6-77.9c-0.2-2.1,1.5-3.8,3.6-3.9l134.4-3c2.1,0,4,1.6,4.1,3.7
				l5.9,77.1c0.2,2.1-1.4,3.8-3.5,3.9L2496.6,2853.8z"/>
			
				<linearGradient id="SVGID_71_" gradientUnits="userSpaceOnUse" x1="2574.9578" y1="2737.2119" x2="2662.1406" y2="2914.8677" gradientTransform="matrix(1 0 7.550000e-02 0.9864 -71.0208 13.0808)">
				<stop  offset="0" style="stop-color:#311944"/>
				<stop  offset="1" style="stop-color:#A03976"/>
			</linearGradient>
			<path class="st74" d="M2824.1,2747l-130.5,2.8c-9.8,0.2-17.2,8.3-16.5,18l5.9,76.8c0.7,9.7,9.3,17.3,19.1,17l130.4-3.9
				c9.6-0.3,16.8-8.3,16.1-17.9l-5.8-75.9C2842.2,2754.4,2833.8,2746.8,2824.1,2747z"/>
			<path class="st66" d="M2701.1,2847.9c-2.1,0.1-3.9-1.6-4.1-3.6l-5.9-76.8c-0.2-2.1,1.4-3.8,3.5-3.8l130.5-2.9
				c2.1,0,3.8,1.6,4,3.6l5.8,76c0.2,2-1.4,3.8-3.4,3.8L2701.1,2847.9z"/>
			
				<linearGradient id="SVGID_72_" gradientUnits="userSpaceOnUse" x1="2161.2131" y1="2895.6326" x2="2251.2642" y2="3079.1326" gradientTransform="matrix(1 0 7.550000e-02 0.9864 -71.0208 13.0808)">
				<stop  offset="0" style="stop-color:#311944"/>
				<stop  offset="1" style="stop-color:#A03976"/>
			</linearGradient>
			<path class="st75" d="M2427.9,2903.8l-138.4,4.5c-10.4,0.3-18.3,8.7-17.5,18.7l6.1,79.2c0.8,10,9.8,17.8,20.3,17.4l138.3-5.6
				c10.2-0.4,17.8-8.8,17.1-18.6l-6-78.2C2447,2911.2,2438.1,2903.4,2427.9,2903.8z"/>
			<path class="st66" d="M2297.2,3009.3c-2.2,0.1-4.2-1.6-4.3-3.7l-6.1-79.1c-0.2-2.1,1.5-3.9,3.7-4l138.4-4.6
				c2.2-0.1,4.1,1.6,4.2,3.7l6,78.3c0.2,2.1-1.5,3.9-3.7,4L2297.2,3009.3z"/>
			
				<linearGradient id="SVGID_73_" gradientUnits="userSpaceOnUse" x1="2371.3882" y1="2889.9028" x2="2459.5852" y2="3069.625" gradientTransform="matrix(1 0 7.550000e-02 0.9864 -71.0208 13.0808)">
				<stop  offset="0" style="stop-color:#311944"/>
				<stop  offset="1" style="stop-color:#A03976"/>
			</linearGradient>
			<path class="st76" d="M2634.6,2897.1l-134.3,4.3c-10.1,0.3-17.7,8.6-17,18.4l6,78c0.8,9.9,9.6,17.5,19.7,17.1l134.2-5.4
				c9.9-0.4,17.3-8.6,16.6-18.3l-5.9-77C2653.1,2904.4,2644.5,2896.8,2634.6,2897.1z"/>
			<path class="st66" d="M2507.9,3000.9c-2.2,0.1-4-1.6-4.2-3.7l-6-77.9c-0.2-2.1,1.5-3.9,3.6-3.9l134.3-4.5c2.1-0.1,4,1.6,4.1,3.6
				l5.9,77.1c0.2,2.1-1.4,3.8-3.5,3.9L2507.9,3000.9z"/>
			
				<linearGradient id="SVGID_74_" gradientUnits="userSpaceOnUse" x1="2575.3638" y1="2884.3254" x2="2661.7769" y2="3060.4124" gradientTransform="matrix(1 0 7.550000e-02 0.9864 -71.0208 13.0808)">
				<stop  offset="0" style="stop-color:#FCB148"/>
				<stop  offset="5.207239e-02" style="stop-color:#FDBA46"/>
				<stop  offset="0.1424" style="stop-color:#FFC244"/>
				<stop  offset="0.3183" style="stop-color:#FFC444"/>
				<stop  offset="0.4849" style="stop-color:#FDB946"/>
				<stop  offset="0.7754" style="stop-color:#F99C4D"/>
				<stop  offset="0.8658" style="stop-color:#F8924F"/>
				<stop  offset="1" style="stop-color:#F8924F"/>
			</linearGradient>
			<path class="st77" d="M2835.1,2890.6l-130.4,4.2c-9.8,0.3-17.2,8.4-16.4,18.2l5.9,76.8c0.7,9.7,9.3,17.3,19.1,16.9l130.3-5.3
				c9.6-0.4,16.8-8.5,16.1-18.1l-5.8-75.9C2853.1,2897.8,2844.8,2890.3,2835.1,2890.6z"/>
			<path class="st63" d="M2712.3,2992.9c-2.1,0.1-3.9-1.5-4.1-3.6l-5.9-76.8c-0.2-2.1,1.4-3.8,3.5-3.9l130.4-4.3
				c2.1-0.1,3.8,1.5,4,3.6l5.8,76c0.2,2-1.4,3.8-3.4,3.9L2712.3,2992.9z"/>
		</g>
	</g>
	<g>
		<g>
			<linearGradient id="SVGID_75_" gradientUnits="userSpaceOnUse" x1="1117.6239" y1="670.3143" x2="770.1428" y2="2044.2017">
				<stop  offset="3.597120e-03" style="stop-color:#E38DDD"/>
				<stop  offset="1" style="stop-color:#9571F6"/>
			</linearGradient>
			<circle class="st78" cx="1026.7" cy="1029.7" r="406.2"/>
			<linearGradient id="SVGID_76_" gradientUnits="userSpaceOnUse" x1="1204.4767" y1="326.9114" x2="856.9955" y2="1700.7992">
				<stop  offset="3.597120e-03" style="stop-color:#E38DDD"/>
				<stop  offset="1" style="stop-color:#9571F6"/>
			</linearGradient>
			<circle class="st79" cx="1026.7" cy="1029.7" r="360.8"/>
		</g>
		<g>
			<path class="st2" d="M993.2,1253.9v-49.4c-44-2.2-86.8-14.3-110.4-26.9l19.8-79.1c27.5,13.2,67,27.5,109.9,27.5
				c29.1,0,51.1-6.6,51.1-24.7c0-16.5-17-25.8-62.7-36.8c-64.3-15.4-114.8-44.5-114.8-104.4c0-53.3,38.4-93.9,107.1-105.5v-48.9
				h65.4v45.1c43.4,1.6,71.4,9.9,92.8,18.7l-19.2,76.4c-15.9-6-47.2-20.9-95-20.9c-35.2,0-44,11.5-44,22.5
				c0,13.7,23.6,24.7,72.5,38.5c76.4,20.9,104.9,51.6,104.9,106c0,52.2-39,96.1-112.1,107.7v54.4H993.2z"/>
		</g>
	</g>
</g>
</svg>
