<svg xmlns="http://www.w3.org/2000/svg" xmlns:xlink="http://www.w3.org/1999/xlink" viewBox="0 0 2830.27 2649.24"><defs><style>.cls-1{isolation:isolate;}.cls-2{fill:#abc;}.cls-3{opacity:0.8;}.cls-3,.cls-66,.cls-67,.cls-9{mix-blend-mode:soft-light;}.cls-11,.cls-4,.cls-67,.cls-9{fill:#fff;}.cls-5{fill:url(#linear-gradient);}.cls-6{fill:url(#linear-gradient-2);}.cls-7{fill:#bfc8d6;}.cls-8{fill:#d8dee8;}.cls-9{opacity:0.48;}.cls-10{fill:url(#linear-gradient-3);}.cls-11{opacity:0.6;}.cls-12{fill:url(#linear-gradient-4);}.cls-13{fill:url(#linear-gradient-5);}.cls-14{fill:url(#linear-gradient-6);}.cls-15{fill:#fcb048;}.cls-16{fill:url(#linear-gradient-7);}.cls-17{fill:url(#linear-gradient-8);}.cls-18{fill:url(#linear-gradient-9);}.cls-19{fill:url(#linear-gradient-10);}.cls-20{fill:url(#linear-gradient-11);}.cls-21{fill:url(#linear-gradient-12);}.cls-22{fill:url(#linear-gradient-13);}.cls-23{fill:url(#linear-gradient-14);}.cls-24{fill:url(#linear-gradient-15);}.cls-25{fill:url(#linear-gradient-16);}.cls-26{fill:url(#linear-gradient-17);}.cls-27{fill:url(#linear-gradient-18);}.cls-28{fill:url(#linear-gradient-19);}.cls-29{fill:url(#linear-gradient-20);}.cls-30{fill:url(#linear-gradient-21);}.cls-31{fill:url(#linear-gradient-22);}.cls-32{fill:url(#linear-gradient-23);}.cls-33{fill:url(#linear-gradient-24);}.cls-34{fill:url(#linear-gradient-25);}.cls-35{fill:url(#linear-gradient-26);}.cls-36{fill:url(#linear-gradient-27);}.cls-37{fill:url(#linear-gradient-28);}.cls-38{fill:url(#linear-gradient-29);}.cls-39{fill:url(#linear-gradient-30);}.cls-40{fill:url(#linear-gradient-31);}.cls-41{fill:url(#linear-gradient-32);}.cls-42{fill:url(#linear-gradient-33);}.cls-43{fill:url(#linear-gradient-34);}.cls-44{fill:url(#linear-gradient-35);}.cls-45{fill:url(#linear-gradient-36);}.cls-46{fill:url(#linear-gradient-37);}.cls-47{fill:url(#linear-gradient-38);}.cls-48{fill:url(#linear-gradient-39);}.cls-49{fill:url(#linear-gradient-40);}.cls-50,.cls-53,.cls-62,.cls-67,.cls-84{opacity:0.3;}.cls-50,.cls-53,.cls-55,.cls-68,.cls-84{mix-blend-mode:multiply;}.cls-51{fill:url(#linear-gradient-41);}.cls-52{fill:url(#linear-gradient-42);}.cls-53{fill:url(#linear-gradient-43);}.cls-54{fill:url(#linear-gradient-44);}.cls-55{fill:url(#linear-gradient-45);}.cls-56{fill:url(#linear-gradient-46);}.cls-57{fill:url(#linear-gradient-47);}.cls-58{fill:url(#linear-gradient-48);}.cls-59{fill:url(#linear-gradient-49);}.cls-60{fill:url(#linear-gradient-50);}.cls-61{fill:url(#linear-gradient-51);}.cls-62{mix-blend-mode:color-burn;}.cls-63{fill:url(#linear-gradient-52);}.cls-64{fill:url(#linear-gradient-53);}.cls-65{fill:url(#linear-gradient-54);}.cls-66{opacity:0.5;}.cls-68{opacity:0.4;fill:url(#linear-gradient-55);}.cls-69{fill:url(#linear-gradient-56);}.cls-70{fill:url(#linear-gradient-57);}.cls-71{fill:url(#linear-gradient-58);}.cls-72{fill:url(#linear-gradient-59);}.cls-73{fill:url(#linear-gradient-60);}.cls-74{fill:url(#linear-gradient-61);}.cls-75{fill:url(#linear-gradient-62);}.cls-76{fill:url(#linear-gradient-63);}.cls-77{fill:url(#linear-gradient-64);}.cls-78{fill:url(#linear-gradient-65);}.cls-79{fill:url(#linear-gradient-66);}.cls-80{fill:url(#linear-gradient-67);}.cls-81{fill:url(#linear-gradient-68);}.cls-82{fill:url(#linear-gradient-69);}.cls-83{fill:url(#linear-gradient-70);}.cls-84{fill:url(#linear-gradient-71);}.cls-85{fill:url(#linear-gradient-72);}.cls-86{fill:url(#linear-gradient-73);}.cls-87{fill:url(#linear-gradient-74);}.cls-88{fill:url(#linear-gradient-75);}.cls-89{fill:url(#linear-gradient-76);}</style><linearGradient id="linear-gradient" x1="-540.87" y1="1665.49" x2="564.14" y2="1665.49" gradientTransform="matrix(-1, 0, 0, 1, 1702.44, 0)" gradientUnits="userSpaceOnUse"><stop offset="0" stop-color="#e38ddd"/><stop offset="1" stop-color="#9571f6"/></linearGradient><linearGradient id="linear-gradient-2" x1="58.91" y1="1691.18" x2="1283.33" y2="1691.18" gradientTransform="matrix(-1, 0.06, 0.06, 1, 1774.48, 32.32)" gradientUnits="userSpaceOnUse"><stop offset="0" stop-color="#ff9085"/><stop offset="1" stop-color="#fb6fbb"/></linearGradient><linearGradient id="linear-gradient-3" x1="506.75" y1="2946.64" x2="3270.13" y2="2946.64" gradientUnits="userSpaceOnUse"><stop offset="0.49" stop-color="#ebeff2"/><stop offset="1" stop-color="#fff"/></linearGradient><linearGradient id="linear-gradient-4" x1="2124.73" y1="2892" x2="3071.69" y2="2892" gradientUnits="userSpaceOnUse"><stop offset="0" stop-color="#fcb148"/><stop offset="0.05" stop-color="#fdba46"/><stop offset="0.14" stop-color="#ffc244"/><stop offset="0.32" stop-color="#ffc444"/><stop offset="0.48" stop-color="#fdb946"/><stop offset="0.78" stop-color="#f99c4d"/><stop offset="0.87" stop-color="#f8924f"/><stop offset="1" stop-color="#f8924f"/></linearGradient><linearGradient id="linear-gradient-5" x1="2602.56" y1="2785.33" x2="2652.48" y2="3203.25" gradientUnits="userSpaceOnUse"><stop offset="0" stop-color="#ffdb44"/><stop offset="1" stop-color="#feef06"/></linearGradient><linearGradient id="linear-gradient-6" x1="2600.39" y1="2766.69" x2="2615.72" y2="2895.04" xlink:href="#linear-gradient-5"/><linearGradient id="linear-gradient-7" x1="-945.56" y1="1246.25" x2="-930.28" y2="1374.15" gradientTransform="translate(1669.25 4127.84) rotate(180)" gradientUnits="userSpaceOnUse"><stop offset="0" stop-color="#f36f56"/><stop offset="0.31" stop-color="#f99c4c"/><stop offset="0.55" stop-color="#fdb946"/><stop offset="0.68" stop-color="#ffc444"/><stop offset="0.8" stop-color="#ffc244"/><stop offset="0.87" stop-color="#feba46"/><stop offset="0.92" stop-color="#fcad49"/><stop offset="0.96" stop-color="#f99a4d"/><stop offset="1" stop-color="#f68252"/><stop offset="1" stop-color="#f57e53"/></linearGradient><linearGradient id="linear-gradient-8" x1="2010.31" y1="2796.11" x2="2957.28" y2="2796.11" xlink:href="#linear-gradient-4"/><linearGradient id="linear-gradient-9" x1="2488.15" y1="2689.44" x2="2538.07" y2="3107.37" xlink:href="#linear-gradient-5"/><linearGradient id="linear-gradient-10" x1="2485.98" y1="2670.8" x2="2501.31" y2="2799.15" xlink:href="#linear-gradient-5"/><linearGradient id="linear-gradient-11" x1="-831.14" y1="1342.14" x2="-815.86" y2="1470.04" xlink:href="#linear-gradient-7"/><linearGradient id="linear-gradient-12" x1="2109.04" y1="2700.51" x2="3056" y2="2700.51" xlink:href="#linear-gradient-4"/><linearGradient id="linear-gradient-13" x1="2586.87" y1="2593.83" x2="2636.79" y2="3011.76" xlink:href="#linear-gradient-5"/><linearGradient id="linear-gradient-14" x1="2584.7" y1="2575.2" x2="2600.03" y2="2703.55" xlink:href="#linear-gradient-5"/><linearGradient id="linear-gradient-15" x1="-929.86" y1="1437.75" x2="-914.59" y2="1565.64" xlink:href="#linear-gradient-7"/><linearGradient id="linear-gradient-16" x1="2168.95" y1="2604.62" x2="3115.91" y2="2604.62" xlink:href="#linear-gradient-4"/><linearGradient id="linear-gradient-17" x1="2206.91" y1="1939.77" x2="2256.84" y2="2357.7" xlink:href="#linear-gradient-5"/><linearGradient id="linear-gradient-18" x1="2644.61" y1="2479.31" x2="2659.94" y2="2607.66" xlink:href="#linear-gradient-5"/><linearGradient id="linear-gradient-19" x1="-989.77" y1="1533.63" x2="-974.49" y2="1661.53" xlink:href="#linear-gradient-7"/><linearGradient id="linear-gradient-20" x1="2124.73" y1="2501.17" x2="3071.69" y2="2501.17" xlink:href="#linear-gradient-4"/><linearGradient id="linear-gradient-21" x1="2602.56" y1="2394.5" x2="2652.48" y2="2812.43" xlink:href="#linear-gradient-5"/><linearGradient id="linear-gradient-22" x1="2600.39" y1="2375.86" x2="2615.72" y2="2504.21" xlink:href="#linear-gradient-5"/><linearGradient id="linear-gradient-23" x1="-945.56" y1="1637.08" x2="-930.28" y2="1764.98" xlink:href="#linear-gradient-7"/><linearGradient id="linear-gradient-24" x1="2010.31" y1="2405.28" x2="2957.28" y2="2405.28" xlink:href="#linear-gradient-4"/><linearGradient id="linear-gradient-25" x1="2048.28" y1="1740.43" x2="2098.2" y2="2158.36" xlink:href="#linear-gradient-5"/><linearGradient id="linear-gradient-26" x1="2485.98" y1="2279.97" x2="2501.31" y2="2408.33" xlink:href="#linear-gradient-5"/><linearGradient id="linear-gradient-27" x1="-831.14" y1="1732.97" x2="-815.86" y2="1860.87" xlink:href="#linear-gradient-7"/><linearGradient id="linear-gradient-28" x1="2109.04" y1="2309.68" x2="3056" y2="2309.68" xlink:href="#linear-gradient-4"/><linearGradient id="linear-gradient-29" x1="2147" y1="1644.83" x2="2196.93" y2="2062.76" xlink:href="#linear-gradient-5"/><linearGradient id="linear-gradient-30" x1="2584.7" y1="2184.37" x2="2600.03" y2="2312.72" xlink:href="#linear-gradient-5"/><linearGradient id="linear-gradient-31" x1="-929.86" y1="1828.58" x2="-914.59" y2="1956.47" xlink:href="#linear-gradient-7"/><linearGradient id="linear-gradient-32" x1="2057.69" y1="2213.79" x2="3004.65" y2="2213.79" xlink:href="#linear-gradient-4"/><linearGradient id="linear-gradient-33" x1="2095.66" y1="1548.94" x2="2145.58" y2="1966.87" xlink:href="#linear-gradient-5"/><linearGradient id="linear-gradient-34" x1="2533.35" y1="2088.48" x2="2548.68" y2="2216.83" xlink:href="#linear-gradient-5"/><linearGradient id="linear-gradient-35" x1="-878.52" y1="1924.46" x2="-863.24" y2="2052.36" xlink:href="#linear-gradient-7"/><linearGradient id="linear-gradient-36" x1="-666.33" y1="813.92" x2="-317.61" y2="813.92" gradientTransform="matrix(-0.78, -0.62, -0.62, 0.78, 2663.52, 725.21)" gradientUnits="userSpaceOnUse"><stop offset="0" stop-color="#444b8c"/><stop offset="1" stop-color="#26264f"/></linearGradient><linearGradient id="linear-gradient-37" x1="23.19" y1="813.88" x2="371.94" y2="813.88" xlink:href="#linear-gradient-36"/><linearGradient id="linear-gradient-38" x1="2247.64" y1="2219.79" x2="2470.7" y2="1797.57" gradientUnits="userSpaceOnUse"><stop offset="0" stop-color="#ffc444"/><stop offset="1" stop-color="#f36f56"/></linearGradient><linearGradient id="linear-gradient-39" x1="1647.71" y1="1902.85" x2="1870.78" y2="1480.63" xlink:href="#linear-gradient-38"/><linearGradient id="linear-gradient-40" x1="-350.64" y1="558.6" x2="394.52" y2="-225.65" gradientTransform="matrix(-0.78, -0.62, -0.62, 0.78, 2663.52, 725.21)" xlink:href="#linear-gradient-38"/><linearGradient id="linear-gradient-41" x1="-411.09" y1="501.17" x2="334.06" y2="-283.07" gradientTransform="matrix(-0.78, -0.62, -0.62, 0.78, 2663.52, 725.21)" xlink:href="#linear-gradient-38"/><linearGradient id="linear-gradient-42" x1="2677.17" y1="1237.51" x2="2778.08" y2="855.12" xlink:href="#linear-gradient-38"/><linearGradient id="linear-gradient-43" x1="-371.18" y1="-51.92" x2="-91.99" y2="-345.76" gradientTransform="matrix(-0.78, -0.62, -0.62, 0.78, 2663.52, 725.21)" xlink:href="#linear-gradient-38"/><linearGradient id="linear-gradient-44" x1="-395.22" y1="251.68" x2="100.74" y2="251.68" gradientTransform="matrix(0, -1, -1, 0, 2874.3, 866.66)" gradientUnits="userSpaceOnUse"><stop offset="0" stop-color="#ebeff2"/><stop offset="1" stop-color="#fff"/></linearGradient><linearGradient id="linear-gradient-45" x1="-395.22" y1="259.81" x2="100.75" y2="259.81" gradientTransform="matrix(-0.78, -0.62, -0.62, 0.78, 2663.52, 725.21)" xlink:href="#linear-gradient-44"/><linearGradient id="linear-gradient-46" x1="-70.17" y1="93.17" x2="-192.06" y2="343.87" xlink:href="#linear-gradient-44"/><linearGradient id="linear-gradient-47" x1="-363.25" y1="566.91" x2="6.02" y2="28.04" gradientTransform="matrix(0, -1, -1, 0, 2874.3, 866.66)" xlink:href="#linear-gradient-36"/><linearGradient id="linear-gradient-48" x1="-160.6" y1="1035.75" x2="-145.26" y2="835.64" gradientTransform="matrix(0, -1, -1, 0, 3100.5, 1336.13)" xlink:href="#linear-gradient-38"/><linearGradient id="linear-gradient-49" x1="-317.17" y1="893.2" x2="22.77" y2="893.2" gradientTransform="matrix(-0.78, -0.62, -0.62, 0.78, 2663.52, 725.21)" gradientUnits="userSpaceOnUse"><stop offset="0" stop-color="#aa80f9"/><stop offset="1" stop-color="#6165d7"/></linearGradient><linearGradient id="linear-gradient-50" x1="-124.6" y1="886.34" x2="-208.18" y2="1137.83" gradientTransform="matrix(0, -1, -1, 0, 3140.47, 1417.28)" xlink:href="#linear-gradient-49"/><linearGradient id="linear-gradient-51" x1="-130.01" y1="902.63" x2="-193.53" y2="1093.76" xlink:href="#linear-gradient-36"/><linearGradient id="linear-gradient-52" x1="-386.21" y1="551.18" x2="-16.95" y2="12.32" xlink:href="#linear-gradient-36"/><linearGradient id="linear-gradient-53" x1="5260.13" y1="14820.97" x2="4741.45" y2="15731.83" gradientTransform="translate(-6361.53 15599.49) rotate(-135)" gradientUnits="userSpaceOnUse"><stop offset="0" stop-color="#311944"/><stop offset="1" stop-color="#a03976"/></linearGradient><linearGradient id="linear-gradient-54" x1="-14838.84" y1="-18324.87" x2="-15129.81" y2="-18815.42" gradientTransform="translate(-6361.53 15599.49) rotate(-135)" xlink:href="#linear-gradient-38"/><linearGradient id="linear-gradient-55" x1="1166.4" y1="2973.31" x2="2065.73" y2="967.89" gradientTransform="matrix(1, 0, 0, 1, 0, 0)" xlink:href="#linear-gradient"/><linearGradient id="linear-gradient-56" x1="5678.34" y1="1653.07" x2="5373.33" y2="3115.48" gradientTransform="translate(-4609.88)" xlink:href="#linear-gradient-2"/><linearGradient id="linear-gradient-57" x1="-3212.18" y1="3310.19" x2="-3120.83" y2="3310.19" gradientTransform="matrix(-1, 0.03, 0.03, 1, -2404.21, -31.24)" xlink:href="#linear-gradient-36"/><linearGradient id="linear-gradient-58" x1="-136.68" y1="3155.97" x2="-103.93" y2="3155.97" gradientTransform="matrix(-1, 0, 0, 1, 706.72, 0)" xlink:href="#linear-gradient-38"/><linearGradient id="linear-gradient-59" x1="-2567.03" y1="4303.14" x2="-2469.98" y2="4303.14" gradientTransform="matrix(-0.96, 0.27, 0.27, 0.96, -2417.03, -308.92)" xlink:href="#linear-gradient-36"/><linearGradient id="linear-gradient-60" x1="-428.66" y1="3145.16" x2="-388.21" y2="3145.16" gradientTransform="matrix(-1, 0, 0, 1, 706.72, 0)" xlink:href="#linear-gradient-38"/><linearGradient id="linear-gradient-61" x1="5776.87" y1="3001.68" x2="5518.01" y2="2418.16" gradientTransform="translate(-4609.88)" xlink:href="#linear-gradient-49"/><linearGradient id="linear-gradient-62" x1="5166.82" y1="3580.99" x2="4907.97" y2="2997.49" gradientTransform="matrix(0.99, -0.12, 0.12, 0.99, -4526.88, 108.12)" xlink:href="#linear-gradient-49"/><linearGradient id="linear-gradient-63" x1="5572.73" y1="1631.04" x2="5267.71" y2="3093.45" gradientTransform="translate(-4609.88)" xlink:href="#linear-gradient-2"/><linearGradient id="linear-gradient-64" x1="5310.42" y1="2881.74" x2="5426.18" y2="2331.88" gradientTransform="translate(-4609.88)" xlink:href="#linear-gradient-2"/><linearGradient id="linear-gradient-65" x1="5363.78" y1="1587.46" x2="5058.76" y2="3049.87" gradientTransform="translate(-4609.88)" xlink:href="#linear-gradient-2"/><linearGradient id="linear-gradient-66" x1="5623.83" y1="2403.92" x2="5574.47" y2="2264.07" gradientTransform="translate(-5049.75 -558.18)" gradientUnits="userSpaceOnUse"><stop offset="0" stop-color="#311944"/><stop offset="1" stop-color="#893976"/></linearGradient><linearGradient id="linear-gradient-67" x1="5408.2" y1="2201.3" x2="5426.3" y2="2326.34" gradientTransform="translate(-4609.88)" xlink:href="#linear-gradient-66"/><linearGradient id="linear-gradient-68" x1="-193.03" y1="2220.93" x2="-90.75" y2="2220.93" gradientTransform="matrix(-1, 0, 0, 1, 706.72, 0)" xlink:href="#linear-gradient-38"/><linearGradient id="linear-gradient-69" x1="5766.8" y1="2212.25" x2="5670.57" y2="2075.61" gradientTransform="translate(-4609.88)" xlink:href="#linear-gradient-36"/><linearGradient id="linear-gradient-70" x1="5582.22" y1="2438.4" x2="5792.81" y2="2010.63" gradientTransform="translate(-4609.88)" xlink:href="#linear-gradient-66"/><linearGradient id="linear-gradient-71" x1="5479.35" y1="2163.84" x2="5941.99" y2="2163.84" gradientTransform="translate(-4609.88)" xlink:href="#linear-gradient-66"/><linearGradient id="linear-gradient-72" x1="-626.45" y1="2275.44" x2="-563.57" y2="2275.44" gradientTransform="matrix(-1, 0, 0, 1, 706.72, 0)" xlink:href="#linear-gradient-38"/><linearGradient id="linear-gradient-73" x1="-208.18" y1="1787.9" x2="-25.2" y2="1787.9" gradientTransform="matrix(-1, 0, 0, 1, 706.72, 0)" xlink:href="#linear-gradient-38"/><linearGradient id="linear-gradient-74" x1="-3351.83" y1="1698.94" x2="-3420.91" y2="1523.49" gradientTransform="matrix(-1, 0, 0, 1, -2570.86, 162.92)" gradientUnits="userSpaceOnUse"><stop offset="0" stop-color="#311944"/><stop offset="1" stop-color="#6b3976"/></linearGradient><linearGradient id="linear-gradient-75" x1="-140.88" y1="1721.52" x2="-149.16" y2="1929.22" gradientTransform="matrix(-1, 0, 0, 1, 706.72, 0)" xlink:href="#linear-gradient-38"/><linearGradient id="linear-gradient-76" x1="-3372.93" y1="1707.35" x2="-3442.08" y2="1531.72" xlink:href="#linear-gradient-74"/></defs><title>guy</title><g class="cls-1"><g id="Illustration"><path class="cls-2" d="M2039.07,2850c-134.38,4.07-268.86-89.33-291.29-247.48-12.55-88.59,5.26-195.32,28.07-281,141.89-532.76,272.84-112.11,414.67-410.6s251.33-488.36,680.77-397.92c0,0,390.41,70.48,68.4,429.67-59,65.83-127.71,126.07-208.6,163.34-85,39.15-178.51,53.3-269.18,73.21-108.51,23.83-108.71,155.34-117.74,243.82-11.23,110-23.72,220.85-91.38,312.57C2196.68,2811.7,2117.89,2847.63,2039.07,2850Z" transform="translate(-439.87 -558.18)"/><g class="cls-3"><path class="cls-4" d="M1942.9,2785.63a3.46,3.46,0,0,1-1.81-3.78c.44-2.12,45-215.1,144-434.93,58.16-129.23,123.47-235.54,194.1-316,88.53-100.85,185.75-161.17,289-179.27a3.46,3.46,0,0,1,1.2,6.81c-230.46,40.42-387.12,289.48-478,491.3-98.65,219.14-143.09,431.37-143.53,433.49a3.46,3.46,0,0,1-4.08,2.69A3.53,3.53,0,0,1,1942.9,2785.63Z" transform="translate(-439.87 -558.18)"/></g><path class="cls-5" d="M1637.79,2599.78c142.32,78.29,338.37,51.78,449.48-106,62.23-88.38,101.78-213,124.35-317.69,140.4-651.16-231.84-270.67-220.23-669.79s-1.75-663.58-513.46-802.5c0,0-458.76-138.91-309.92,424.6,27.27,103.27,68,205.86,134.56,290.44,69.9,88.88,162.71,155.53,249.3,226.82,103.62,85.31,31.5,226.89-7.45,327-48.4,124.46-96,250.62-73.62,386.5C1489.32,2471.88,1554.31,2553.86,1637.79,2599.78Z" transform="translate(-439.87 -558.18)"/><g class="cls-3"><path class="cls-4" d="M1776.66,2583.41a4.17,4.17,0,0,0,4-3.06c.69-2.53,69.86-256.17,84.32-547.08,8.51-171-3.27-321.3-35-446.7-39.77-157.18-111.18-275.54-212.25-351.79a4.18,4.18,0,1,0-5,6.67c225.67,170.24,257.21,524.33,243.93,791.4-14.42,290-83.34,542.76-84,545.28a4.16,4.16,0,0,0,2.91,5.13A3.9,3.9,0,0,0,1776.66,2583.41Z" transform="translate(-439.87 -558.18)"/></g><path class="cls-6" d="M1738.33,2671c19.44-2.73,37.31-16.17,52.27-44.47,62.11-117.48-54-295.37-56.44-418.77-2.5-124.06,24.7-245,54.8-364.37,31-123.07,47-253.86-37.44-360.07-72.82-91.56-197.76-161.35-311.34-93.46-210.39,125.71-204.85-84.54-241.21-226.34-41.86-163.21-224.68-352.81-406.14-317.94C630.11,876.81,563,1107.38,563,1250.35c0,74.65,27.46,188.65,84.75,242.28,131.86,123.43,430.56,122.58,315.18,361.83-38.9,80.66-75.46,167-1.65,240.58,75.61,75.39,200.61,82,295.12,119.77,107.52,43,180.27,131.19,245.43,223.07C1533.47,2482.52,1651.61,2683.16,1738.33,2671Z" transform="translate(-439.87 -558.18)"/><g class="cls-3"><path class="cls-4" d="M1749.6,2633.62a4.13,4.13,0,0,0,1.18-.24,4.18,4.18,0,0,0,2.5-5.35c-.94-2.58-95.42-262.09-238.79-558-84.23-173.86-168.61-326.12-250.8-452.53-102.86-158.22-202.61-276.24-296.49-350.81a4.17,4.17,0,0,0-5.19,6.54c211.18,167.73,412.91,527.86,545,800.43,143.19,295.57,237.52,554.67,238.46,557.25A4.16,4.16,0,0,0,1749.6,2633.62Z" transform="translate(-439.87 -558.18)"/></g><path class="cls-7" d="M3270.13,2926.26,506.75,2902.38v70.67c0,19.19,12,35.5,28.37,38.4l781.41,139.18a108,108,0,0,0,28,1.3L3240.1,2993.25c16.93-1.41,30-17.78,30-37.48Z" transform="translate(-439.87 -558.18)"/><path class="cls-7" d="M2253.2,2813,496.85,2942.3c-31.43,2.31-57-22.27-57-54.92V1579.47c0-32.64,25.55-59.11,57-59.11H2253.2c25.9,0,46.83,23.93,46.83,53.44V2756.12C2300,2785.63,2279.1,2811.1,2253.2,2813Z" transform="translate(-439.87 -558.18)"/><path class="cls-4" d="M2281.21,2813,524.85,2942.3c-31.42,2.31-57-22.27-57-54.92V1579.47c0-32.64,25.56-59.11,57-59.11H2281.21c25.89,0,46.83,23.93,46.83,53.44V2756.12C2328,2785.63,2307.1,2811.1,2281.21,2813Z" transform="translate(-439.87 -558.18)"/><path class="cls-8" d="M2226.49,2729.65,590.63,2842c-25.57,1.76-46.36-18.42-46.36-45.07V1651.81c0-26.65,20.79-48.35,46.36-48.46l1635.86-7c21.36-.09,38.64,19.51,38.64,43.79V2683C2265.13,2707.32,2247.85,2728.18,2226.49,2729.65Z" transform="translate(-439.87 -558.18)"/><path class="cls-4" d="M1465.06,1556.14c0,12.15-9,22-20.2,22.06s-20.25-9.8-20.25-22,9.07-22.07,20.25-22.07S1465.06,1544,1465.06,1556.14Z" transform="translate(-439.87 -558.18)"/><path class="cls-9" d="M524.85,2942.3l1747.47-128.64,8.89-.66c11.88-.87,22.68-6.74,30.93-15.65-125.75-6.88-203.85-51.51-254.24-97.62-101.18-92.6-83.63-183.92-192.74-244.8-136.09-75.94-243.1,20.28-346.37-74.66-62.61-57.55-31.87-100.48-108.91-186.49-85.33-95.27-140.88-63.25-226.64-149-108.42-108.41-54.2-192.76-147.59-270.6-113.31-94.43-235.5-7-343.36-97.59-46.52-39.06-72-95.85-85.37-156.24H524.85c-31.42,0-57,26.47-57,59.11V2887.38C467.87,2920,493.42,2944.6,524.85,2942.3Z" transform="translate(-439.87 -558.18)"/><path class="cls-10" d="M2364,2805.83,506.75,2941.92l809.78,144.23a108.4,108.4,0,0,0,28,1.31l1925.57-161.2-876.63-119.5A141.69,141.69,0,0,0,2364,2805.83Z" transform="translate(-439.87 -558.18)"/><polygon class="cls-8" points="337.88 2384.92 1884.06 2269.93 2362.59 2334.64 829.73 2457.56 337.88 2384.92"/><path class="cls-11" d="M1709.82,1956.77c-53-170.14-223.4-268.38-380.62-219.41S1087.51,1964,1140.5,2134.1s223.4,268.38,380.61,219.41S1762.81,2126.92,1709.82,1956.77Zm-246.44,207.74,1.08,46.43-44.62,1-1-43.24c-30.53-.65-60.31-8.16-77.85-17.77l12.42-53.58c19.37,10,46.45,19,76,18.27,26-.6,43.47-11,43-29.24-.4-17.3-15.22-27.89-49.17-38.49-49.09-15.25-82.85-37.24-83.88-81.4-.93-40.06,26.57-72.13,75-82.82l-1-43.25,44.62-1,.92,40.06c30.54.66,51.17,6.55,66.36,13.49l-12,51.75c-12-4.73-33.14-14.72-65.92-14-29.59.69-38.85,13.66-38.56,26.41.35,15,16.51,24.21,55.54,37.88,54.62,17.86,77,42.39,78,83.35C1543.4,2118.92,1515.52,2154.18,1463.38,2164.51Z" transform="translate(-439.87 -558.18)"/><path class="cls-11" d="M1735.72,2581.19c0,21.52-17,39.94-38.75,41.13l-537.67,29.55c-25.61,1.41-47-16.56-47-40.16v-89c0-23.59,21.57-43.35,47.18-44.13l537.1-16.38a37.55,37.55,0,0,1,39.09,37.78Z" transform="translate(-439.87 -558.18)"/><path class="cls-12" d="M2195.1,2819.65v91.29c0,29.49,184.26,53.41,411.56,53.41s411.57-23.92,411.57-53.41v-91.29Z" transform="translate(-439.87 -558.18)"/><path class="cls-13" d="M3018.23,2819.65c0,29.5-184.27,53.41-411.57,53.41s-411.56-23.91-411.56-53.41,184.26-53.41,411.56-53.41S3018.23,2790.15,3018.23,2819.65Z" transform="translate(-439.87 -558.18)"/><path class="cls-14" d="M2606.66,2876.74c-201.3,0-411.8-19.23-411.8-56.31,0-2,.72-5.62,2.76-5.62s1.16,2.8,1.16,4.84c0,23.52,167.51,49.72,407.88,49.72s407.88-26.2,407.88-49.72c0-2,.35-4,2.39-4s1.54,2.72,1.54,4.76C3018.47,2857.54,2808,2876.74,2606.66,2876.74Z" transform="translate(-439.87 -558.18)"/><path class="cls-15" d="M2567.77,2822.63c4-2.8,8.34-5.56,12.94-8.28a81.42,81.42,0,0,1,17.68-7.37,169,169,0,0,1,27.13-5.36,342.54,342.54,0,0,1,40.63-2.2q23.86-.12,44.8,1.52a302.87,302.87,0,0,1,36.84,4.88q15.86,3.24,25.86,8t11.82,10.95l46.34.47a46.1,46.1,0,0,1,8.88.83c2.59.52,3.85,1.19,3.85,2l0,3.82-59.58-.58q-3.14,7-16,12.83t-32.67,10.08l-21.69-3a25.57,25.57,0,0,1-4.8-1.14c-1.25-.45-1.85-.95-1.86-1.49q0-1.1,5-2.51t11.37-3.5a113.34,113.34,0,0,0,12.43-4.91c4-1.89,6.75-4.15,8.16-6.78l-140.62-1.39a132.29,132.29,0,0,1-12.42,8,80.82,80.82,0,0,1-18.24,7.09,190.55,190.55,0,0,1-28.3,5.11,400.65,400.65,0,0,1-42.66,2.09c-12.89.06-25.44-.43-37.73-1.47a258.43,258.43,0,0,1-32.74-4.66c-9.54-2.08-17.35-4.64-23.49-7.69s-9.51-6.57-10.22-10.53l-38.15-.4a49.8,49.8,0,0,1-9-.79c-2.63-.51-4-1.18-4-2l0-3.82,52.16.5c2.31-4,7-7.53,14.26-10.51a163.53,163.53,0,0,1,26.47-8l17.47,2.4c5.31.74,7.94,1.62,7.95,2.62,0,.54-1.08,1.21-3.27,2s-4.82,1.76-7.83,2.87a72.14,72.14,0,0,0-8.69,3.92,18.41,18.41,0,0,0-6.35,5.09Zm-128.69,5.2c1.05,2.5,3.38,4.65,6.93,6.46a55.17,55.17,0,0,0,13.25,4.48,135.92,135.92,0,0,0,17.86,2.57q10,.82,20.83.77a218.09,218.09,0,0,0,22.11-1.09,128.25,128.25,0,0,0,16.53-2.8,78.14,78.14,0,0,0,12.44-4.11,68.11,68.11,0,0,0,9.5-5.08Zm306.12-3.42c-1-2.53-3.6-4.75-7.57-6.66a67.78,67.78,0,0,0-15.24-4.81,168.35,168.35,0,0,0-21.61-2.9q-12.3-1-27.16-.88a208.33,208.33,0,0,0-22.76,1.18,117,117,0,0,0-16.54,3,60.49,60.49,0,0,0-11.87,4.39,82.79,82.79,0,0,0-9.11,5.37Z" transform="translate(-439.87 -558.18)"/><path class="cls-16" d="M2606.72,2772c-183.51,0-374.59,16.15-405.15,47.41a35.77,35.77,0,0,1,3.34,3.52c25.76-21.71,183.53-43.56,401.81-43.56,223.87,0,384.18,23,403.59,45.23a39.21,39.21,0,0,1,3.08-3.49C2988.15,2788.76,2793.49,2772,2606.72,2772Z" transform="translate(-439.87 -558.18)"/><path class="cls-17" d="M2080.68,2723.76v91.29c0,29.5,184.27,53.41,411.57,53.41s411.56-23.91,411.56-53.41v-91.29Z" transform="translate(-439.87 -558.18)"/><path class="cls-18" d="M2903.81,2723.76c0,29.5-184.26,53.41-411.56,53.41s-411.57-23.91-411.57-53.41,184.27-53.41,411.57-53.41S2903.81,2694.27,2903.81,2723.76Z" transform="translate(-439.87 -558.18)"/><path class="cls-19" d="M2492.25,2780.86c-201.31,0-411.81-19.23-411.81-56.32,0-2,.73-5.61,2.77-5.61s1.16,2.8,1.16,4.83c0,23.52,167.51,49.73,407.88,49.73s407.88-26.21,407.88-49.73c0-2,.35-3.94,2.38-3.94s1.55,2.72,1.55,4.75C2904.06,2761.66,2693.55,2780.86,2492.25,2780.86Z" transform="translate(-439.87 -558.18)"/><path class="cls-15" d="M2453.36,2726.74c4-2.8,8.33-5.55,12.93-8.27a81.14,81.14,0,0,1,17.68-7.37,168,168,0,0,1,27.13-5.37,345.15,345.15,0,0,1,40.64-2.19q23.87-.12,44.8,1.51a306.42,306.42,0,0,1,36.83,4.88q15.87,3.24,25.86,8t11.82,11l46.35.47a45.37,45.37,0,0,1,8.88.82c2.59.53,3.84,1.19,3.85,2l0,3.82-59.58-.57q-3.14,7-16,12.82t-32.67,10.08l-21.7-3a25.52,25.52,0,0,1-4.79-1.13c-1.25-.46-1.86-.95-1.86-1.49,0-.74,1.67-1.57,5-2.51s7.15-2.11,11.36-3.5a116.43,116.43,0,0,0,12.44-4.92q6.06-2.84,8.15-6.77l-140.61-1.4a135.7,135.7,0,0,1-12.42,8,81.24,81.24,0,0,1-18.25,7.08,190.14,190.14,0,0,1-28.29,5.11,398.07,398.07,0,0,1-42.67,2.09c-12.88.06-25.43-.43-37.72-1.46a258,258,0,0,1-32.74-4.67c-9.54-2.07-17.35-4.64-23.49-7.69s-9.52-6.56-10.22-10.53l-38.16-.39a49.71,49.71,0,0,1-9-.8c-2.63-.5-4-1.18-4-2v-3.81l52.16.49c2.3-4,7-7.52,14.26-10.5a163.16,163.16,0,0,1,26.47-8l17.47,2.4c5.3.75,7.94,1.62,7.94,2.62,0,.54-1.07,1.21-3.26,2s-4.82,1.76-7.84,2.87a72.71,72.71,0,0,0-8.68,3.92,18.55,18.55,0,0,0-6.36,5.09Zm-128.69,5.2c1,2.5,3.38,4.66,6.93,6.47a55,55,0,0,0,13.25,4.47,134.26,134.26,0,0,0,17.86,2.57q10,.83,20.82.77a215.21,215.21,0,0,0,22.11-1.09,128.42,128.42,0,0,0,16.54-2.8,77.15,77.15,0,0,0,12.44-4.11,69.76,69.76,0,0,0,9.5-5.07Zm306.12-3.41c-1.05-2.54-3.6-4.76-7.57-6.67a68.82,68.82,0,0,0-15.24-4.81,168.35,168.35,0,0,0-21.61-2.9q-12.3-.95-27.17-.88a208.13,208.13,0,0,0-22.75,1.18,118.16,118.16,0,0,0-16.54,3,60.18,60.18,0,0,0-11.88,4.4,85.35,85.35,0,0,0-9.11,5.36Z" transform="translate(-439.87 -558.18)"/><path class="cls-20" d="M2492.3,2676.13c-183.51,0-374.58,16.15-405.14,47.41a38.29,38.29,0,0,1,3.34,3.52c25.76-21.71,183.53-43.56,401.8-43.56,223.88,0,384.18,23,403.6,45.23a39.21,39.21,0,0,1,3.08-3.49C2873.74,2692.88,2679.07,2676.13,2492.3,2676.13Z" transform="translate(-439.87 -558.18)"/><path class="cls-21" d="M2179.4,2628.16v91.28c0,29.5,184.27,53.41,411.57,53.41s411.57-23.91,411.57-53.41v-91.28Z" transform="translate(-439.87 -558.18)"/><path class="cls-22" d="M3002.54,2628.16c0,29.49-184.27,53.41-411.57,53.41s-411.57-23.92-411.57-53.41,184.27-53.41,411.57-53.41S3002.54,2598.66,3002.54,2628.16Z" transform="translate(-439.87 -558.18)"/><path class="cls-23" d="M2591,2685.25c-201.3,0-411.8-19.23-411.8-56.31,0-2,.72-5.62,2.76-5.62s1.16,2.8,1.16,4.84c0,23.52,167.51,49.72,407.88,49.72s407.88-26.2,407.88-49.72c0-2,.35-3.95,2.39-3.95s1.54,2.72,1.54,4.76C3002.78,2666.05,2792.28,2685.25,2591,2685.25Z" transform="translate(-439.87 -558.18)"/><path class="cls-15" d="M2552.08,2631.13q6.06-4.18,12.93-8.27a81.74,81.74,0,0,1,17.69-7.37,168.88,168.88,0,0,1,27.13-5.37,345,345,0,0,1,40.63-2.19q23.86-.12,44.8,1.52a305,305,0,0,1,36.84,4.87q15.86,3.25,25.86,8t11.82,11l46.34.47a46.15,46.15,0,0,1,8.88.82c2.59.53,3.85,1.2,3.85,2l0,3.81-59.58-.57q-3.14,7-16,12.83t-32.67,10.07l-21.7-3a25.64,25.64,0,0,1-4.79-1.14c-1.25-.45-1.85-1-1.86-1.49q0-1.09,5-2.51t11.37-3.5a114.13,114.13,0,0,0,12.43-4.91c4-1.89,6.75-4.15,8.16-6.78L2588.67,2638a132.29,132.29,0,0,1-12.42,8,81.29,81.29,0,0,1-18.24,7.09,191.85,191.85,0,0,1-28.3,5.11,398.35,398.35,0,0,1-42.66,2.08c-12.89.07-25.44-.42-37.73-1.46a258.43,258.43,0,0,1-32.74-4.66c-9.54-2.08-17.35-4.64-23.49-7.69s-9.51-6.57-10.22-10.54l-38.15-.39a49.8,49.8,0,0,1-9-.79c-2.63-.51-4-1.19-4-2l0-3.82,52.16.5c2.31-4,7-7.53,14.26-10.51a163.53,163.53,0,0,1,26.47-8l17.47,2.4c5.31.74,7.94,1.61,7.95,2.62,0,.54-1.08,1.21-3.27,2s-4.82,1.76-7.83,2.87a70.61,70.61,0,0,0-8.69,3.92,18.3,18.3,0,0,0-6.35,5.09Zm-128.69,5.2c1.05,2.51,3.39,4.66,6.93,6.47a55.17,55.17,0,0,0,13.25,4.48,136.17,136.17,0,0,0,17.86,2.57q10,.81,20.83.77a217.46,217.46,0,0,0,22.1-1.1,126.82,126.82,0,0,0,16.54-2.79,78.14,78.14,0,0,0,12.44-4.11,68.11,68.11,0,0,0,9.5-5.08Zm306.12-3.41c-1-2.53-3.6-4.76-7.57-6.66a67.78,67.78,0,0,0-15.24-4.81,166.6,166.6,0,0,0-21.61-2.9q-12.3-1-27.16-.88a208.19,208.19,0,0,0-22.76,1.18,117,117,0,0,0-16.54,3,60.1,60.1,0,0,0-11.87,4.39,82.79,82.79,0,0,0-9.11,5.37Z" transform="translate(-439.87 -558.18)"/><path class="cls-24" d="M2591,2580.53c-183.51,0-374.59,16.15-405.15,47.41a36.82,36.82,0,0,1,3.34,3.51c25.76-21.7,183.54-43.55,401.81-43.55,223.87,0,384.18,23,403.6,45.23a37.57,37.57,0,0,1,3.07-3.49C2972.46,2597.27,2777.8,2580.53,2591,2580.53Z" transform="translate(-439.87 -558.18)"/><path class="cls-25" d="M2239.31,2532.27v91.29c0,29.5,184.27,53.41,411.57,53.41s411.57-23.91,411.57-53.41v-91.29Z" transform="translate(-439.87 -558.18)"/><ellipse class="cls-26" cx="2211.01" cy="1974.09" rx="411.57" ry="53.41"/><path class="cls-27" d="M2650.88,2589.36c-201.31,0-411.81-19.22-411.81-56.31,0-2,.73-5.62,2.77-5.62s1.16,2.8,1.16,4.84c0,23.52,167.51,49.72,407.88,49.72s407.88-26.2,407.88-49.72c0-2,.35-3.94,2.38-3.94s1.55,2.71,1.55,4.75C3062.69,2570.17,2852.18,2589.36,2650.88,2589.36Z" transform="translate(-439.87 -558.18)"/><path class="cls-15" d="M2612,2535.25c4-2.8,8.33-5.55,12.93-8.28a82.36,82.36,0,0,1,17.68-7.37,169.21,169.21,0,0,1,27.13-5.36,342.85,342.85,0,0,1,40.64-2.2q23.87-.11,44.8,1.52a304.4,304.4,0,0,1,36.83,4.88q15.87,3.24,25.86,8t11.83,11l46.34.47a45.37,45.37,0,0,1,8.88.82c2.59.53,3.84,1.19,3.85,2l0,3.82-59.58-.58q-3.13,7-16,12.83t-32.67,10.08l-21.7-3a25.52,25.52,0,0,1-4.79-1.13c-1.25-.46-1.86-.95-1.86-1.5,0-.73,1.67-1.57,5-2.5s7.15-2.11,11.36-3.5a116.43,116.43,0,0,0,12.44-4.92c4-1.89,6.75-4.15,8.16-6.77l-140.62-1.4a133.61,133.61,0,0,1-12.42,8,80.73,80.73,0,0,1-18.25,7.09,190.14,190.14,0,0,1-28.29,5.11,398.07,398.07,0,0,1-42.67,2.09c-12.88.06-25.43-.43-37.72-1.46a258.31,258.31,0,0,1-32.74-4.67c-9.54-2.07-17.35-4.64-23.49-7.69s-9.51-6.56-10.22-10.53l-38.16-.39a50.63,50.63,0,0,1-9-.8c-2.63-.51-4-1.18-4-2l0-3.81,52.16.49c2.31-4,7-7.52,14.26-10.5a163.46,163.46,0,0,1,26.47-8l17.47,2.4c5.31.75,7.94,1.62,7.94,2.62,0,.54-1.07,1.21-3.26,2s-4.82,1.76-7.83,2.87a72.14,72.14,0,0,0-8.69,3.92,18.55,18.55,0,0,0-6.36,5.09Zm-128.69,5.2c1,2.5,3.38,4.65,6.93,6.47a55.48,55.48,0,0,0,13.25,4.47,134.26,134.26,0,0,0,17.86,2.57q10,.83,20.82.77a218.09,218.09,0,0,0,22.11-1.09,128.42,128.42,0,0,0,16.54-2.8,77.15,77.15,0,0,0,12.44-4.11,68.11,68.11,0,0,0,9.5-5.08Zm306.12-3.41c-1-2.54-3.6-4.76-7.57-6.67a68.29,68.29,0,0,0-15.24-4.81,168.35,168.35,0,0,0-21.61-2.9q-12.3-.94-27.17-.88a208.13,208.13,0,0,0-22.75,1.18,118.16,118.16,0,0,0-16.54,3,60.49,60.49,0,0,0-11.87,4.39,87.27,87.27,0,0,0-9.12,5.37Z" transform="translate(-439.87 -558.18)"/><path class="cls-28" d="M2650.94,2484.64c-183.52,0-374.59,16.15-405.15,47.41a38.29,38.29,0,0,1,3.34,3.52c25.76-21.71,183.53-43.56,401.81-43.56,223.87,0,384.17,23,403.59,45.23a39.21,39.21,0,0,1,3.08-3.49C3032.37,2501.39,2837.71,2484.64,2650.94,2484.64Z" transform="translate(-439.87 -558.18)"/><path class="cls-29" d="M2195.1,2428.82v91.29c0,29.5,184.26,53.41,411.56,53.41s411.57-23.91,411.57-53.41v-91.29Z" transform="translate(-439.87 -558.18)"/><path class="cls-30" d="M3018.23,2428.82c0,29.5-184.27,53.41-411.57,53.41s-411.56-23.91-411.56-53.41,184.26-53.41,411.56-53.41S3018.23,2399.32,3018.23,2428.82Z" transform="translate(-439.87 -558.18)"/><path class="cls-31" d="M2606.66,2485.91c-201.3,0-411.8-19.22-411.8-56.31,0-2,.72-5.62,2.76-5.62s1.16,2.8,1.16,4.84c0,23.52,167.51,49.72,407.88,49.72s407.88-26.2,407.88-49.72c0-2,.35-3.94,2.39-3.94s1.54,2.71,1.54,4.75C3018.47,2466.72,2808,2485.91,2606.66,2485.91Z" transform="translate(-439.87 -558.18)"/><path class="cls-15" d="M2567.77,2431.8c4-2.8,8.34-5.55,12.94-8.28a81.92,81.92,0,0,1,17.68-7.37,169,169,0,0,1,27.13-5.36,342.54,342.54,0,0,1,40.63-2.2q23.86-.11,44.8,1.52a302.87,302.87,0,0,1,36.84,4.88q15.86,3.24,25.86,8t11.82,11l46.34.47a45.37,45.37,0,0,1,8.88.82c2.59.53,3.85,1.19,3.85,2l0,3.82-59.58-.58q-3.14,7-16,12.83t-32.67,10.08l-21.69-3a25.64,25.64,0,0,1-4.8-1.13c-1.25-.46-1.85-1-1.86-1.5,0-.73,1.68-1.57,5-2.5s7.15-2.11,11.37-3.51a113.34,113.34,0,0,0,12.43-4.91c4-1.89,6.75-4.15,8.16-6.77l-140.62-1.4a132.29,132.29,0,0,1-12.42,8,80.82,80.82,0,0,1-18.24,7.09,190.55,190.55,0,0,1-28.3,5.11,400.65,400.65,0,0,1-42.66,2.09c-12.89.06-25.44-.43-37.73-1.46a258.31,258.31,0,0,1-32.74-4.67c-9.54-2.08-17.35-4.64-23.49-7.69s-9.51-6.56-10.22-10.53l-38.15-.39a50.66,50.66,0,0,1-9-.8c-2.63-.51-4-1.18-4-2l0-3.81,52.16.49c2.31-4,7-7.52,14.26-10.5a163.46,163.46,0,0,1,26.47-8l17.47,2.4c5.31.75,7.94,1.62,7.95,2.62,0,.54-1.08,1.21-3.27,2s-4.82,1.76-7.83,2.87a72.14,72.14,0,0,0-8.69,3.92,18.41,18.41,0,0,0-6.35,5.09Zm-128.69,5.2c1.05,2.5,3.38,4.65,6.93,6.47a55.64,55.64,0,0,0,13.25,4.47,134.26,134.26,0,0,0,17.86,2.57q10,.82,20.83.77a218.09,218.09,0,0,0,22.11-1.09,128.25,128.25,0,0,0,16.53-2.8,77.15,77.15,0,0,0,12.44-4.11,68.11,68.11,0,0,0,9.5-5.08Zm306.12-3.41c-1-2.54-3.6-4.76-7.57-6.67a68.29,68.29,0,0,0-15.24-4.81,168.35,168.35,0,0,0-21.61-2.9q-12.3-.95-27.16-.88a208.33,208.33,0,0,0-22.76,1.18,118.43,118.43,0,0,0-16.54,3,60.49,60.49,0,0,0-11.87,4.39,86.08,86.08,0,0,0-9.11,5.37Z" transform="translate(-439.87 -558.18)"/><path class="cls-32" d="M2606.72,2381.19c-183.51,0-374.59,16.15-405.15,47.41a35.77,35.77,0,0,1,3.34,3.52c25.76-21.71,183.53-43.56,401.81-43.56,223.87,0,384.18,23,403.59,45.23a39.21,39.21,0,0,1,3.08-3.49C2988.15,2397.94,2793.49,2381.19,2606.72,2381.19Z" transform="translate(-439.87 -558.18)"/><path class="cls-33" d="M2080.68,2332.93v91.29c0,29.5,184.27,53.41,411.57,53.41s411.56-23.91,411.56-53.41v-91.29Z" transform="translate(-439.87 -558.18)"/><ellipse class="cls-34" cx="2052.38" cy="1774.76" rx="411.57" ry="53.41"/><path class="cls-35" d="M2492.25,2390c-201.31,0-411.81-19.23-411.81-56.32,0-2,.73-5.61,2.77-5.61s1.16,2.8,1.16,4.83c0,23.52,167.51,49.73,407.88,49.73s407.88-26.21,407.88-49.73c0-2,.35-3.94,2.38-3.94s1.55,2.72,1.55,4.75C2904.06,2370.83,2693.55,2390,2492.25,2390Z" transform="translate(-439.87 -558.18)"/><path class="cls-15" d="M2453.36,2335.91c4-2.79,8.33-5.55,12.93-8.27a81.14,81.14,0,0,1,17.68-7.37,169.1,169.1,0,0,1,27.13-5.37,345.15,345.15,0,0,1,40.64-2.19q23.87-.12,44.8,1.51a306.42,306.42,0,0,1,36.83,4.88q15.87,3.26,25.86,8t11.82,11l46.35.47a45.37,45.37,0,0,1,8.88.82c2.59.53,3.84,1.2,3.85,2l0,3.81-59.58-.57q-3.14,7-16,12.82t-32.67,10.08l-21.7-3a24.76,24.76,0,0,1-4.79-1.13c-1.25-.46-1.86-.95-1.86-1.49,0-.74,1.67-1.57,5-2.51s7.15-2.11,11.36-3.5a114.36,114.36,0,0,0,12.44-4.92q6.06-2.84,8.15-6.77l-140.61-1.4a135.7,135.7,0,0,1-12.42,8,80.76,80.76,0,0,1-18.25,7.08A190.14,190.14,0,0,1,2431,2363a398.07,398.07,0,0,1-42.67,2.09c-12.88.07-25.43-.42-37.72-1.46a258,258,0,0,1-32.74-4.67c-9.54-2.07-17.35-4.63-23.49-7.69s-9.52-6.56-10.22-10.53l-38.16-.39a49.77,49.77,0,0,1-9-.79c-2.63-.51-4-1.19-4-2v-3.82l52.16.5c2.3-4,7-7.53,14.26-10.51a162.23,162.23,0,0,1,26.47-8l17.47,2.39c5.3.75,7.94,1.62,7.94,2.62,0,.54-1.07,1.21-3.26,2s-4.82,1.77-7.84,2.88a69.67,69.67,0,0,0-8.68,3.92,18.54,18.54,0,0,0-6.36,5.08Zm-128.69,5.2c1,2.5,3.38,4.66,6.93,6.47a55,55,0,0,0,13.25,4.48,137.62,137.62,0,0,0,17.86,2.57q10,.81,20.82.76a215.21,215.21,0,0,0,22.11-1.09,128.42,128.42,0,0,0,16.54-2.8,77.15,77.15,0,0,0,12.44-4.11,69.76,69.76,0,0,0,9.5-5.07Zm306.12-3.41c-1.05-2.54-3.6-4.76-7.57-6.67a68.82,68.82,0,0,0-15.24-4.81,168.35,168.35,0,0,0-21.61-2.9q-12.3-.95-27.17-.88a210.67,210.67,0,0,0-22.75,1.18,118.05,118.05,0,0,0-16.54,3A60.21,60.21,0,0,0,2508,2331a85.35,85.35,0,0,0-9.11,5.36Z" transform="translate(-439.87 -558.18)"/><path class="cls-36" d="M2492.3,2285.31c-183.51,0-374.58,16.14-405.14,47.4a39.62,39.62,0,0,1,3.34,3.52c25.76-21.7,183.53-43.55,401.8-43.55,223.88,0,384.18,23,403.6,45.22a39.08,39.08,0,0,1,3.08-3.48C2873.74,2302.05,2679.07,2285.31,2492.3,2285.31Z" transform="translate(-439.87 -558.18)"/><path class="cls-37" d="M2179.4,2237.33v91.29c0,29.49,184.27,53.41,411.57,53.41s411.57-23.92,411.57-53.41v-91.29Z" transform="translate(-439.87 -558.18)"/><ellipse class="cls-38" cx="2151.11" cy="1679.15" rx="411.57" ry="53.41"/><path class="cls-39" d="M2591,2294.42c-201.3,0-411.8-19.23-411.8-56.31,0-2,.72-5.62,2.76-5.62s1.16,2.8,1.16,4.84c0,23.52,167.51,49.72,407.88,49.72s407.88-26.2,407.88-49.72c0-2,.35-3.95,2.39-3.95s1.54,2.72,1.54,4.76C3002.78,2275.22,2792.28,2294.42,2591,2294.42Z" transform="translate(-439.87 -558.18)"/><path class="cls-15" d="M2552.08,2240.31q6.06-4.2,12.93-8.28a81.74,81.74,0,0,1,17.69-7.37,169,169,0,0,1,27.13-5.36,342.54,342.54,0,0,1,40.63-2.2q23.86-.12,44.8,1.52a302.87,302.87,0,0,1,36.84,4.88q15.86,3.24,25.86,8t11.82,10.95l46.34.47a46.1,46.1,0,0,1,8.88.83c2.59.52,3.85,1.19,3.85,2l0,3.82-59.58-.58q-3.14,7-16,12.83t-32.67,10.08l-21.7-3a25.64,25.64,0,0,1-4.79-1.14c-1.25-.45-1.85-1-1.86-1.49q0-1.09,5-2.51t11.37-3.5a114.13,114.13,0,0,0,12.43-4.91c4-1.89,6.75-4.15,8.16-6.78l-140.62-1.39a132.29,132.29,0,0,1-12.42,8,80.82,80.82,0,0,1-18.24,7.09,190.55,190.55,0,0,1-28.3,5.11,400.65,400.65,0,0,1-42.66,2.09c-12.89.06-25.44-.43-37.73-1.47a258.43,258.43,0,0,1-32.74-4.66c-9.54-2.08-17.35-4.64-23.49-7.69s-9.51-6.57-10.22-10.53l-38.15-.4a49.8,49.8,0,0,1-9-.79c-2.63-.51-4-1.18-4-2l0-3.82,52.16.5c2.31-4,7-7.52,14.26-10.51a163.53,163.53,0,0,1,26.47-8l17.47,2.4c5.31.74,7.94,1.62,7.95,2.62,0,.54-1.08,1.21-3.27,2s-4.82,1.76-7.83,2.87a72.14,72.14,0,0,0-8.69,3.92,18.41,18.41,0,0,0-6.35,5.09Zm-128.69,5.2c1.05,2.5,3.39,4.65,6.93,6.46a55.17,55.17,0,0,0,13.25,4.48,136.17,136.17,0,0,0,17.86,2.57q10,.83,20.83.77a217.73,217.73,0,0,0,22.1-1.09,128.42,128.42,0,0,0,16.54-2.8,77.15,77.15,0,0,0,12.44-4.11,68.11,68.11,0,0,0,9.5-5.08Zm306.12-3.42c-1-2.53-3.6-4.75-7.57-6.66a67.78,67.78,0,0,0-15.24-4.81,168.35,168.35,0,0,0-21.61-2.9q-12.3-1-27.16-.88a208.19,208.19,0,0,0-22.76,1.18,117,117,0,0,0-16.54,3,60.73,60.73,0,0,0-11.87,4.39,82.79,82.79,0,0,0-9.11,5.37Z" transform="translate(-439.87 -558.18)"/><path class="cls-40" d="M2591,2189.7c-183.51,0-374.59,16.15-405.15,47.41a35.77,35.77,0,0,1,3.34,3.52c25.76-21.71,183.54-43.56,401.81-43.56,223.87,0,384.18,23,403.6,45.23a37.57,37.57,0,0,1,3.07-3.49C2972.46,2206.45,2777.8,2189.7,2591,2189.7Z" transform="translate(-439.87 -558.18)"/><path class="cls-41" d="M2128.06,2141.44v91.29c0,29.5,184.26,53.41,411.56,53.41s411.57-23.91,411.57-53.41v-91.29Z" transform="translate(-439.87 -558.18)"/><ellipse class="cls-42" cx="2099.76" cy="1583.27" rx="411.57" ry="53.41"/><path class="cls-43" d="M2539.62,2198.54c-201.3,0-411.8-19.23-411.8-56.32,0-2,.72-5.61,2.76-5.61s1.16,2.8,1.16,4.83c0,23.52,167.51,49.73,407.88,49.73s407.88-26.21,407.88-49.73c0-2,.35-3.94,2.39-3.94s1.54,2.72,1.54,4.75C2951.43,2179.34,2740.93,2198.54,2539.62,2198.54Z" transform="translate(-439.87 -558.18)"/><path class="cls-15" d="M2500.73,2144.42q6.06-4.2,12.93-8.27a81.24,81.24,0,0,1,17.69-7.37,168.88,168.88,0,0,1,27.13-5.37,345,345,0,0,1,40.63-2.19q23.86-.12,44.8,1.51a306.88,306.88,0,0,1,36.84,4.88q15.86,3.24,25.86,8t11.82,11l46.34.47a45.37,45.37,0,0,1,8.88.82c2.59.53,3.85,1.19,3.85,2l0,3.81-59.58-.57q-3.14,7-16,12.82T2669.3,2176l-21.7-3a24.94,24.94,0,0,1-4.79-1.13c-1.25-.46-1.85-1-1.86-1.49,0-.74,1.68-1.57,5-2.51s7.15-2.11,11.37-3.5a116.27,116.27,0,0,0,12.43-4.92c4-1.89,6.75-4.15,8.16-6.77l-140.62-1.4a134.34,134.34,0,0,1-12.42,8,81.33,81.33,0,0,1-18.24,7.08,190.55,190.55,0,0,1-28.3,5.11,398,398,0,0,1-42.66,2.09c-12.89.06-25.44-.42-37.73-1.46a258.31,258.31,0,0,1-32.74-4.67c-9.54-2.07-17.35-4.64-23.49-7.69s-9.51-6.56-10.22-10.53l-38.15-.39a49.75,49.75,0,0,1-9-.8c-2.63-.5-4-1.18-4-2l0-3.81,52.16.49c2.31-4,7-7.52,14.26-10.5a162.54,162.54,0,0,1,26.47-8l17.47,2.39c5.31.75,7.94,1.62,8,2.62,0,.54-1.08,1.21-3.27,2s-4.82,1.76-7.83,2.87a72.85,72.85,0,0,0-8.69,3.92,18.41,18.41,0,0,0-6.35,5.09Zm-128.69,5.2c1.05,2.5,3.39,4.66,6.93,6.47a54.76,54.76,0,0,0,13.25,4.47,134.5,134.5,0,0,0,17.86,2.57q10,.82,20.83.77a214.85,214.85,0,0,0,22.1-1.09,128.6,128.6,0,0,0,16.55-2.8,77.34,77.34,0,0,0,12.43-4.11,69.17,69.17,0,0,0,9.5-5.07Zm306.12-3.41c-1-2.54-3.6-4.76-7.57-6.67a68.82,68.82,0,0,0-15.24-4.81,168.35,168.35,0,0,0-21.61-2.9q-12.3-.95-27.16-.88a208.33,208.33,0,0,0-22.76,1.18,118.43,118.43,0,0,0-16.54,3,60.07,60.07,0,0,0-11.87,4.4,84.37,84.37,0,0,0-9.11,5.36Z" transform="translate(-439.87 -558.18)"/><path class="cls-44" d="M2539.68,2093.81c-183.51,0-374.59,16.15-405.15,47.41a35.77,35.77,0,0,1,3.34,3.52c25.76-21.7,183.54-43.56,401.81-43.56,223.87,0,384.18,23,403.6,45.23a36.2,36.2,0,0,1,3.07-3.48C2921.11,2110.56,2726.45,2093.81,2539.68,2093.81Z" transform="translate(-439.87 -558.18)"/><path class="cls-45" d="M2565.41,1439.94s154.17,173.35,22.68,451.85c-12.25,26-48.14,28.63-64.23,4.88l-102.51-151.3a103.86,103.86,0,0,1-14.95-82.8l35.48-146.18Z" transform="translate(-439.87 -558.18)"/><path class="cls-46" d="M2221,1167s-204-110.46-445.07,81.21c-22.45,17.86-16.86,53.41,9.94,63.64l170.72,65.21a103.89,103.89,0,0,0,84-4.37l134.2-68Z" transform="translate(-439.87 -558.18)"/><path class="cls-47" d="M2580.65,1420.71s154.16,173.35,22.67,451.85c-12.25,26-48.13,28.63-64.23,4.88l-102.5-151.3a103.9,103.9,0,0,1-15-82.8l35.48-146.18Z" transform="translate(-439.87 -558.18)"/><path class="cls-48" d="M2236.2,1147.78s-204-110.46-445.07,81.21c-22.46,17.86-16.86,53.41,9.94,63.64l170.72,65.21a103.87,103.87,0,0,0,84-4.37l134.2-68Z" transform="translate(-439.87 -558.18)"/><path class="cls-49" d="M2397.35,711.51C2613.81,493,2972.27,572,2972.46,572.43c.47.09,159.27,331-3.94,591.67-148,236.42-477.14,408.13-540.36,439.59-6.8,3.38-17.84,8-21.88,1.58-78.55-125.1-183.86-204.16-310.31-245.76-7-2.3-4.81-13.91-3.13-21.08C2108.76,1270.62,2200.67,910,2397.35,711.51Z" transform="translate(-439.87 -558.18)"/><g class="cls-50"><path class="cls-51" d="M2536.73,1042c121.13-121.26,234.69-71.51,351.68-177.17,42.72-38.58,89.45-101.1,115.74-209.14,36.23,114.94,77.07,328.43-35.63,508.42-148,236.42-477.14,408.13-540.36,439.59-6.8,3.38-17.84,8-21.88,1.58-39.68-63.2-86.2-114.63-138.82-155.44,45.54-27,78.25-57.27,102.42-86.17C2467.38,1247.12,2426.37,1152.48,2536.73,1042Z" transform="translate(-439.87 -558.18)"/></g><path class="cls-52" d="M2829.62,752.7c-83.35-66-186-125.85-277.8-144.64,173.42-73.55,362.81-46.47,409.69-37.86a21.23,21.23,0,0,1,15.62,12.38c19.1,43.68,88.74,221.86,56.8,407.49C3001.07,914,2913,818.74,2829.62,752.7Z" transform="translate(-439.87 -558.18)"/><path class="cls-53" d="M3004.15,655.69c.17.54.33,1.08.5,1.62l.87,2.76c.28.93.57,1.87.86,2.8l.81,2.69c.3,1,.6,2,.9,3l.78,2.6c.31,1.07.63,2.14.94,3.22.24.84.49,1.68.73,2.53.33,1.13.65,2.28,1,3.42l.69,2.45c.33,1.2.67,2.42,1,3.63.22.79.44,1.58.65,2.37.35,1.26.69,2.54,1,3.82.21.77.41,1.55.62,2.32.35,1.32.69,2.65,1,4,.19.75.39,1.51.58,2.27.36,1.38.71,2.77,1.06,4.17.18.73.37,1.46.55,2.19.36,1.44.71,2.89,1.07,4.34l.51,2.15c.36,1.49.72,3,1.07,4.51.17.69.33,1.38.49,2.07.36,1.56.71,3.12,1.07,4.69l.45,2c.36,1.61.72,3.22,1.07,4.84l.42,2c.36,1.65.71,3.3,1.06,5,.13.65.26,1.3.4,1.95.35,1.7.69,3.4,1,5.12.12.63.24,1.26.37,1.88l1,5.29c.12.6.23,1.21.34,1.82.34,1.8.68,3.61,1,5.43.11.59.22,1.18.32,1.78q.49,2.77,1,5.58c.1.56.19,1.13.29,1.69q.48,2.86.95,5.74c.09.55.17,1.1.26,1.64.31,2,.62,3.91.91,5.88.09.53.16,1.07.24,1.6.3,2,.59,4,.88,6,.07.52.14,1,.22,1.57q.42,3,.83,6.12c.06.5.13,1,.19,1.5.27,2.07.53,4.16.79,6.25.06.49.11,1,.17,1.45q.38,3.2.74,6.39c.05.46.09.92.14,1.38q.36,3.26.69,6.52l.12,1.33c.22,2.21.43,4.42.63,6.65,0,.42.07.83.1,1.25.2,2.25.39,4.52.56,6.79l.09,1.18c.17,2.3.34,4.6.49,6.92,0,.37.05.74.07,1.11q.22,3.51.42,7c0,.35,0,.71.05,1.06q.2,3.57.35,7.16l0,1q.15,3.64.26,7.32l0,.86c.07,2.48.13,5,.17,7.46,0,.25,0,.51,0,.77q.06,3.8.08,7.6c0,.22,0,.43,0,.65,0,2.58,0,5.17,0,7.77,0,.17,0,.34,0,.52,0,2.64-.06,5.28-.12,7.94,0,.12,0,.25,0,.38-.06,2.7-.13,5.41-.23,8.12a1.15,1.15,0,0,1,0,.19,576.94,576.94,0,0,1-7.86,77.36c-21-48.62-64.58-105.07-115-156.72C2952,794.31,2984,738.33,3004.15,655.69Z" transform="translate(-439.87 -558.18)"/><ellipse class="cls-54" cx="2622.63" cy="1013.92" rx="223.32" ry="247.98" transform="translate(-240.7 1881.58) rotate(-51.61)"/><path class="cls-55" d="M2536.73,1042c98.84-99,192.65-84,287.39-132.61,50.64,82.4,51.07,185.09-7.13,258.54-76.6,96.67-225.72,106.08-333,21a278.2,278.2,0,0,1-24.67-22.07C2473.47,1126.17,2493.47,1085.3,2536.73,1042Z" transform="translate(-439.87 -558.18)"/><ellipse class="cls-56" cx="2622.63" cy="1013.92" rx="204.7" ry="227.3" transform="translate(-240.71 1881.57) rotate(-51.61)"/><ellipse class="cls-57" cx="2622.63" cy="1013.92" rx="178.32" ry="198" transform="translate(-240.71 1881.57) rotate(-51.61)"/><ellipse class="cls-58" cx="2250.23" cy="1482.57" rx="60.93" ry="206.24" transform="translate(-749.14 1767.31) rotate(-51.61)"/><path class="cls-59" d="M2234.71,1432.21l69.38,55a115.67,115.67,0,0,1,39.17,123.15l-12.55,42.89a23.18,23.18,0,0,1-36.64,11.66L2064,1482.58a23.18,23.18,0,0,1,3-38.34l38.89-22A115.66,115.66,0,0,1,2234.71,1432.21Z" transform="translate(-439.87 -558.18)"/><ellipse class="cls-60" cx="2186.3" cy="1564.48" rx="57.5" ry="170.2" transform="translate(-837.56 1748.24) rotate(-51.61)"/><path class="cls-61" d="M2084.92,1484.14c-15,18.92,18.25,70.22,74.24,114.59s113.54,65,128.53,46.08-18.25-70.21-74.25-114.58S2099.91,1465.23,2084.92,1484.14Z" transform="translate(-439.87 -558.18)"/><g class="cls-62"><path class="cls-63" d="M2536.73,1042c84.07-84.16,164.49-86,244.94-114.49,42.26,66.28,43.32,149.86-3.85,209.38-61.16,77.19-180.23,84.71-265.93,16.8a220,220,0,0,1-33.31-32.69C2491.72,1095.24,2509.66,1069.09,2536.73,1042Z" transform="translate(-439.87 -558.18)"/></g><path class="cls-64" d="M598.06,1076.39c122.39-106.45,314.61-95.11,429.5,20.49,112.22,112.91,112.22,287.29,0,394.08-114.89,109.34-307.11,110.2-429.5-2.92C472.63,1372.09,472.63,1185.49,598.06,1076.39Z" transform="translate(-439.87 -558.18)"/><path class="cls-65" d="M611,1062c122.39-106.45,314.61-95.1,429.5,20.5,112.22,112.91,112.22,287.29,0,394.08C925.65,1586,733.43,1586.82,611,1473.69,485.6,1357.75,485.6,1171.15,611,1062Z" transform="translate(-439.87 -558.18)"/><g class="cls-66"><path class="cls-4" d="M641.73,1093c104.48-90.88,268.59-81.2,366.67,17.5,95.81,96.39,95.81,245.26,0,336.43-98.08,93.34-262.19,94.08-366.67-2.5C534.64,1345.44,534.64,1186.13,641.73,1093Z" transform="translate(-439.87 -558.18)"/></g><path class="cls-67" d="M628.75,1114.24c104.49-90.88,268.59-81.2,366.68,17.5,77.38,77.86,92.22,190,44.59,278.22,62.66-90.87,52.12-215.22-31.62-299.47-98.08-98.7-262.19-108.38-366.67-17.5a236.17,236.17,0,0,0-53.28,66.35A239.38,239.38,0,0,1,628.75,1114.24Z" transform="translate(-439.87 -558.18)"/><rect class="cls-4" x="332.13" y="844.66" width="87.55" height="24.51" rx="11.09"/><path class="cls-4" d="M852.55,1439.61a8.76,8.76,0,0,1-8.76,8.75h-56a8.76,8.76,0,0,1-8.76-8.75h0a8.76,8.76,0,0,1,8.76-8.76h56a8.76,8.76,0,0,1,8.76,8.76Z" transform="translate(-439.87 -558.18)"/><path class="cls-4" d="M798.43,1334.09c12.08,50.2,12.08,51.24,12.08,51.24H832.7s0-1.53,12.27-52.52C824.05,1341.28,807.73,1338.05,798.43,1334.09Z" transform="translate(-439.87 -558.18)"/><path class="cls-4" d="M821.6,1181.48a80.63,80.63,0,0,0-69.91,120.9,173.2,173.2,0,0,1,21.15,59.46c.4,2.48.79,6,1.18,8.48,1.27,8,8.2,15,16.35,15h12c-.8-3.5-8.68-36.43-14-58.28a3.39,3.39,0,0,1,1.75-3.87,4.08,4.08,0,0,1,4.68.48c.86.67,21.9,16.66,54.12-.29a4,4,0,0,1,4.35.45c1.25,1,1.82,1.66,1.45,3.2-5.28,21.86-13.16,54.81-14,58.31h12c8.14,0,15.09-7,16.36-15,.39-2.47.78-5.47,1.18-8a172.79,172.79,0,0,1,21.15-59.72,80.85,80.85,0,0,0-69.92-121.17Z" transform="translate(-439.87 -558.18)"/><path class="cls-4" d="M828,1150.69a7,7,0,0,1-7,7h0a7,7,0,0,1-7-7v-49a7,7,0,0,1,7-7h0a7,7,0,0,1,7,7Z" transform="translate(-439.87 -558.18)"/><path class="cls-4" d="M725.32,1203.84l-40.82-26a8.07,8.07,0,1,0-8.68,13.6l40.82,26a8.07,8.07,0,0,0,8.68-13.6Z" transform="translate(-439.87 -558.18)"/><path class="cls-4" d="M713,1255l-48.38-1.75a8.07,8.07,0,1,0-.59,16.13l48.38,1.75A8.07,8.07,0,0,0,713,1255Z" transform="translate(-439.87 -558.18)"/><path class="cls-4" d="M930.26,1255l48.38-1.75a8.07,8.07,0,1,1,.59,16.13l-48.39,1.75a8.07,8.07,0,0,1-.58-16.13Z" transform="translate(-439.87 -558.18)"/><path class="cls-4" d="M969.85,1180.26a8.07,8.07,0,0,0-11.15-2.46l-40.81,26a8.07,8.07,0,0,0,8.68,13.6l40.82-26A8.08,8.08,0,0,0,969.85,1180.26Z" transform="translate(-439.87 -558.18)"/><path class="cls-4" d="M747.47,1119.9a8.07,8.07,0,1,0-14.45,7.17l21.51,43.37a8.07,8.07,0,1,0,14.46-7.17Z" transform="translate(-439.87 -558.18)"/><path class="cls-4" d="M906.55,1116.26a8.07,8.07,0,0,0-10.81,3.64l-21.52,43.37a8.07,8.07,0,1,0,14.46,7.17l21.51-43.37A8.07,8.07,0,0,0,906.55,1116.26Z" transform="translate(-439.87 -558.18)"/><path class="cls-68" d="M2115.92,1487.15s-132,262.14-338.74,269.27c-72.94,2.52-161.1-9.26-230.48,18.27-105.79,42-114.26,183.23-156.3,273.07-74.31,158.77-226.88,348.79-420.31,345.82-161.41-2.48-352,118.76-374.94,448.48l1350.7-93.15s48.37-226.95-18.17-292.72-129.58-254.88,17.51-317.92,325.69-384.64,325.69-525.89C2270.88,1612.38,2238.2,1532.94,2115.92,1487.15Z" transform="translate(-439.87 -558.18)"/><path class="cls-69" d="M1136.55,2072.33c26.53-28.34-46.93-134.78-86.25-181.42-34.35-40.75-69.66-82.63-113-77.32-38.07,4.65-75.11,44.8-77.33,83.27C854,2000.36,1098.82,2112.6,1136.55,2072.33Z" transform="translate(-439.87 -558.18)"/><path class="cls-70" d="M817.93,3166.11c-5,4.06-5.92,14.2-6.52,20.83-.27,3-.4,4.44-.07,5.48,2.41,7.63,17.21,8.43,40.41,10.8,36.66,3.75,47.57,6.63,50.44,1.18,2.69-5.11-3.82-13.48-4.55-14.41-3.94-5-8.78-6.77-18.13-9.84-17.29-5.69-29-8.81-32.52-9.76C824.9,3164.5,821.21,3163.44,817.93,3166.11Z" transform="translate(-439.87 -558.18)"/><path class="cls-71" d="M839.73,3132.61l3.67,41.78c-1,2-13.46,8.07-23.33,2.88l-9.42-41.06Z" transform="translate(-439.87 -558.18)"/><path class="cls-72" d="M1108.67,3160.74c-6,6.61-7.35,18.78-2.14,24.78s12.81,1.48,34.63,2.13c23.38.7,29.49,6.22,45.37,1.83,6.42-1.77,17.75-6.07,17.54-10.66-.15-3.22-5.92-4.88-25.2-11.34-27.35-9.16-27.23-9.66-33-10.63C1131.23,3154.44,1116.58,3152,1108.67,3160.74Z" transform="translate(-439.87 -558.18)"/><path class="cls-73" d="M1123.65,3122.61l11.73,39c-.89,2.09-12.81,9.07-23,4.65l-17.41-37.85Z" transform="translate(-439.87 -558.18)"/><path class="cls-74" d="M1019.48,2268.43A3653.35,3653.35,0,0,0,1134.92,3134L1090.05,3146c-38-35.39-85.83-91.1-108.93-169.82-14.34-48.86-9.56-74-18.66-134.06-14.48-95.69-43.81-145.82-74.13-223-27.24-69.34-59.44-171.1-76.71-307.12Z" transform="translate(-439.87 -558.18)"/><path class="cls-75" d="M884.44,2255.92Q870.71,2506,862.05,2765.24q-6.42,194.52-9.52,384.07L806.69,3155a534.33,534.33,0,0,1-47.81-123.39c-16.32-65.43-12.54-104.28-19.69-172.09-8-76-19.69-92.62-40.35-188.56-41.93-194.7-62.9-292-16.12-352.61C697.9,2298.66,745.5,2249.34,884.44,2255.92Z" transform="translate(-439.87 -558.18)"/><path class="cls-76" d="M661.74,1837a712,712,0,0,1,152.46-25.46c91.61-5.18,137.42-7.77,169.88,14,75,50.39,16.93,166.68,47.61,454.95,4.38,41.17,5.37,82.63,8.54,123.91,5.26,68.35,6.45,72.06,1.7,79-29.82,43.43-141.08-22.07-304.16,3.82-91.24,14.49-132.62,47.87-157.62,23.79-29.15-28.07-4.15-103.59,17.38-168.6,24.71-74.62,40-75.58,54-131.77,14.65-58.74,5.79-89,3.5-181.61A1643,1643,0,0,1,661.74,1837Z" transform="translate(-439.87 -558.18)"/><g class="cls-50"><path class="cls-77" d="M883.5,2378.15c-42.62-3.33-70.27,20.76-107.07,2C726,2354.38,709.77,2274.26,713,2217.56c4.88-86.16,54.08-108.87,45.6-164.57-4.59-30.11-26.09-70.1-103.3-110.95-1,34.38-.83,63.69-.26,87,2.29,92.63,11.15,122.87-3.5,181.61-14,56.19-29.29,57.15-54,131.77C576,2407.4,551,2482.92,580.15,2511c25,24.08,66.38-9.3,157.62-23.79,140.51-22.31,242.5,23.18,287.13,8.43C971,2406.52,922.07,2381.17,883.5,2378.15Z" transform="translate(-439.87 -558.18)"/></g><path class="cls-78" d="M719.88,1842.87c-30.44-25-91.65,3.3-108,10.87-91.24,42.2-173.16,155.93-152.86,276.12,3,18,17.16,102.34,88.55,143.19,64.42,36.86,151.4,27.38,221.09-24.83l28.57-25.35q14.06-15.2,28.11-30.39a225.5,225.5,0,0,0-74.9-41.26c-46.34-15-80.07,11.87-101.58-8.52-14.83-14.08-14.87-38.95-11.2-54,7.38-30.37,34.16-38.91,56.5-60.47C746.66,1977.56,756.33,1872.82,719.88,1842.87Z" transform="translate(-439.87 -558.18)"/><polygon class="cls-79" points="717.47 1677.06 309.45 1670.96 417.95 1723.33 718.52 1703.66 717.47 1677.06"/><path class="cls-80" d="M734.92,2240h0a18.16,18.16,0,0,0,12,17.06l130.37,51.11.6-35.43-128.53-43.59A11.28,11.28,0,0,0,734.92,2240Z" transform="translate(-439.87 -558.18)"/><path class="cls-81" d="M797.75,2215.84c-2.5-.56,12.2-29.85,23.74-26.47s68,36.1,73.13,49.57l5.13,13.47s-24.62,1.92-39.9-3.21S818.11,2220.38,797.75,2215.84Z" transform="translate(-439.87 -558.18)"/><path class="cls-82" d="M888.67,2024.11,859.91,2286c-1,9,11.66,22.5,20.74,22.07l421.91-25.9a14.8,14.8,0,0,0,13.88-12.27l53-252.92c1.58-9.2-15-18.71-24.3-18.45L903,2010.93A14.79,14.79,0,0,0,888.67,2024.11Z" transform="translate(-439.87 -558.18)"/><path class="cls-83" d="M898.31,2031.74l-28.76,261.87A14.79,14.79,0,0,0,885,2310l427.25-20.23a14.79,14.79,0,0,0,13.88-12.27l43.65-254.07a14.79,14.79,0,0,0-15-17.29L912.6,2018.57A14.8,14.8,0,0,0,898.31,2031.74Z" transform="translate(-439.87 -558.18)"/><path class="cls-84" d="M1149.19,2228.41c-37.3-15.81-24.14-46-68.19-83.53-58.12-49.57-117.35-28.07-138.09-66.49-6.46-12-9.54-30.59,1.71-60.72l-32,.9a14.8,14.8,0,0,0-14.29,13.17l-28.76,261.87A14.8,14.8,0,0,0,885,2310l427.25-20.23a14.79,14.79,0,0,0,13.88-12.27l6-35.06a161.56,161.56,0,0,0-46.52-17.44C1222.9,2212.29,1192.14,2246.62,1149.19,2228.41Z" transform="translate(-439.87 -558.18)"/><path class="cls-85" d="M1333,2257.12a3,3,0,0,0-2.73-4c-8.23-.42-27.31-.59-37.85,5.86-13.69,8.38-31.38,23.68-16.48,31.4l13.92,7.21a3,3,0,0,0,2,.28c4.95-1.09,25.76-5.71,28-6.85C1322,2290,1329.94,2266.42,1333,2257.12Z" transform="translate(-439.87 -558.18)"/><path class="cls-86" d="M821,1711.4a317.83,317.83,0,0,1-5.66,63.45c-3.29,16.9-5.65,21.27-8.67,24.81-4.55,5.33-11.44,9.81-50.35,19.46-21.18,5.25-23.91,5.11-24.37,7.21-2.29,10.25,55.46,45.19,115.12,36.77,36.52-5.15,69.74-26,67.7-36.93s-38.52-5.1-49.39-25c-7.57-13.85.91-33.52,10.93-49.81C866.64,1733.15,830.75,1729.59,821,1711.4Z" transform="translate(-439.87 -558.18)"/><path class="cls-87" d="M888.82,1722.14c8.61-11.45,9.14-31.43-.78-44.06-8.55-10.87-22-12.42-30-13.36-23.32-2.69-52.76,7-63,28.52-6.07,12.72,7,39.16,9.11,43.91,2.32,5.38,6.54,7.22,10.44,11.28,5.41,5.64,13.88,14.6,27.7,29.58a96.92,96.92,0,0,1,5.3-15.82,84.64,84.64,0,0,1,11.08-18.6C870.79,1728.76,880.65,1733,888.82,1722.14Z" transform="translate(-439.87 -558.18)"/><path class="cls-88" d="M822.54,1765.41s15.33,25.16,45.87,23.17c27.33-1.77,31.34-63.08,13.88-76.09-5.83-4.34-17.5-6.14-27-3.48-5.6,1.57-7.5,3.89-16.71,6.28-8.49,2.21-10.89,1.26-13.45,3.42-3.2,2.7-5.55,9.31-.2,27.23-5.22-5.28-11.48-7.3-15.91-5.21a9.29,9.29,0,0,0-3.64,3.55C801.58,1751.28,808,1760.22,822.54,1765.41Z" transform="translate(-439.87 -558.18)"/><path class="cls-89" d="M823.91,1715c1.32,1-2.71,5.9-3,12.87-.58,13.51,13.1,29.73,27.05,31.11,8.25.81,10.52-4.16,24.15-5.6a62.47,62.47,0,0,1,19.9,1.14c4.28,14.83.25,29.6-9.66,36.46-10.66,7.38-24.28,2.9-30,1-3.81-1.25-16-5.24-22.4-16.44-6.65-11.67-.13-18.7-7.75-26.59-3.85-4-8.9-5.71-13.82-13.42a37.83,37.83,0,0,1-2.78-5.19C812.67,1722.94,822,1713.62,823.91,1715Z" transform="translate(-439.87 -558.18)"/><path class="cls-4" d="M882.07,1760.06s-5.9,3.08-16.1,2.51c-.5,0-1.05.12-1.11.37-.23,1,6.31,5.31,12.34,3.62,4.28-1.21,7.62-5.26,7-6.29C884,1759.83,883,1759.89,882.07,1760.06Z" transform="translate(-439.87 -558.18)"/></g></g></svg>