<?xml version="1.0" encoding="utf-8"?>
<!-- Generator: Adobe Illustrator 24.0.2, SVG Export Plug-In . SVG Version: 6.00 Build 0)  -->
<svg version="1.1" id="Layer_1" xmlns="http://www.w3.org/2000/svg" xmlns:xlink="http://www.w3.org/1999/xlink" x="0px" y="0px"
	 viewBox="0 0 512 512" style="enable-background:new 0 0 512 512;" xml:space="preserve">
<style type="text/css">
	.st0{fill:#E28EDC;}
	.st1{fill:#9377EE;}
	.st2{fill:#6668D9;}
	.st3{fill:#7970F2;}
	.st4{fill:#FA9D4D;}
	.st5{fill:#FEBE45;}
	.st6{fill:#5B56D6;}
	.st7{fill:#F37157;}
	.st8{fill:#9478EF;}
	.st9{fill:#E1E6EC;}
	.st10{fill:#D7DEE8;}
	.st11{fill:#FEDB43;}
	.st12{fill:#FAA24B;}
</style>
<path class="st0" d="M512,256c0,141.4-114.6,256-256,256S0,397.4,0,256S114.6,0,256,0S512,114.6,512,256z"/>
<path class="st1" d="M450,423.1c-12.1-32.9-43.7-56-80.2-56H142.2c-36.5,0-68.1,23.1-80.2,56C109,477.5,178.5,512,256,512
	S403,477.5,450,423.1z"/>
<path class="st2" d="M142.2,367.1c-36.5,0-68.1,23.1-80.2,56C109,477.5,178.5,512,256,512V367.1H142.2z"/>
<path class="st3" d="M278.3,461.9c0,12.3-10,22.3-22.3,22.3s-22.3-10-22.3-22.3c0-12.3,10-22.3,22.3-22.3S278.3,449.6,278.3,461.9z"
	/>
<path class="st4" d="M307.5,367.1V248.3H204.5v118.8l51.5,19.7L307.5,367.1z"/>
<path class="st4" d="M430.4,201c0,24.2-19.6,43.7-43.7,43.7c-24.2,0-43.7-19.6-43.7-43.7s19.6-43.7,43.7-43.7
	C410.8,157.3,430.4,176.8,430.4,201z"/>
<path class="st4" d="M169.1,201c0,24.2-19.6,43.7-43.7,43.7c-24.2,0-43.7-19.6-43.7-43.7s19.6-43.7,43.7-43.7
	C149.5,157.3,169.1,176.8,169.1,201z"/>
<path class="st5" d="M256,352.9c-72.2,0-130.7-58.5-130.7-130.7V148c0-72.2,58.5-130.7,130.7-130.7c72.2,0,130.7,58.5,130.7,130.7
	v74.3C386.7,294.4,328.2,352.9,256,352.9z"/>
<path class="st4" d="M155.3,222.3V148c0-67.1,50.6-122.4,115.7-129.8c-4.9-0.6-9.9-0.9-15-0.9c-72.2,0-130.7,58.5-130.7,130.7v74.3
	c0,72.2,58.5,130.7,130.7,130.7c5.1,0,10.1-0.3,15-0.9C205.9,344.6,155.3,289.4,155.3,222.3z"/>
<path class="st6" d="M256,284c30.6,0,55.6-23.6,58-53.5c0.2-2.5-1.9-4.7-4.4-4.7H202.4c-2.5,0-4.6,2.1-4.4,4.7
	C200.4,260.4,225.4,284,256,284z"/>
<path class="st7" d="M293.9,270c-10-9.2-23.3-14.8-37.9-14.8s-27.9,5.6-37.9,14.8c10.2,8.7,23.4,14,37.9,14S283.7,278.7,293.9,270z"
	/>
<path class="st8" d="M364.7,119.4c0,0-57-20-108.7-20s-108.7,20-108.7,20s-15.6,89.5,4.9,88.1c20.5-1.4,60.1-24.3,103.8-24.3
	s83.3,22.9,103.8,24.3C380.3,209,364.7,119.4,364.7,119.4z"/>
<path class="st2" d="M177.3,119.4c0,0,46.6-16.4,93.7-19.5c-5-0.3-10-0.5-15-0.5c-51.7,0-108.7,20-108.7,20s-15.6,89.5,4.9,88.1
	c6-0.4,13.7-2.7,22.7-5.7C166.4,182.4,177.3,119.4,177.3,119.4z"/>
<path class="st8" d="M256,0c-78,0-138,54.3-154.2,70.4c-2.7,2.7-3.7,6.6-2.6,10.2l15.6,52.8h282.2l15.6-52.8
	c1.1-3.6,0.1-7.6-2.6-10.2C394.1,54.3,334,0,256,0z"/>
<path class="st2" d="M141.8,70.4c14.7-14.7,66-61.2,134.2-69.2C269.5,0.4,262.8,0,256,0c-78,0-138,54.3-154.2,70.4
	c-2.7,2.7-3.7,6.6-2.6,10.2l15.6,52.8h40l-15.6-52.8C138.2,77,139.2,73.1,141.8,70.4z"/>
<path class="st9" d="M256,32.6h-24.5c-3.6,0-6.6,2.9-6.6,6.6v40.2c0,2.3,1.2,4.5,3.2,5.7l24.5,14.6c2.1,1.2,4.7,1.2,6.7,0L283.9,85
	c2-1.2,3.2-3.3,3.2-5.7V39.2c0-3.6-3-6.6-6.6-6.6H256z"/>
<path class="st10" d="M258.1,85c-2-1.2-3.2-3.3-3.2-5.7V39.2c0-3.6,3-6.6,6.6-6.6h-30c-3.6,0-6.6,2.9-6.6,6.6v40.2
	c0,2.3,1.2,4.5,3.2,5.7l24.5,14.6c2.1,1.2,4.7,1.2,6.7,0l11.6-6.9L258.1,85z"/>
<path class="st11" d="M400,161.8H112c-3.3,0-6.1-2.7-6.1-6.1v-21.9c0-3.3,2.7-6.1,6.1-6.1H400c3.3,0,6.1,2.7,6.1,6.1v21.9
	C406,159.1,403.3,161.8,400,161.8z"/>
<path class="st12" d="M136,155.7v-21.9c0-3.3,2.7-6.1,6.1-6.1h-30c-3.3,0-6.1,2.7-6.1,6.1v21.9c0,3.3,2.7,6.1,6.1,6.1h30
	C138.7,161.8,136,159.1,136,155.7z"/>
<path class="st6" d="M204.5,342.4l-22.9,24.7l56.9,56.9c1.4,1.4,3.9,0.9,4.6-1l12.9-36.2L204.5,342.4z"/>
<path class="st3" d="M307.5,342.4l22.9,24.7L273.5,424c-1.4,1.4-3.9,0.9-4.6-1L256,386.8L307.5,342.4z"/>
</svg>
