<?xml version="1.0" encoding="utf-8"?>
<!-- Generator: Adobe Illustrator 24.0.2, SVG Export Plug-In . SVG Version: 6.00 Build 0)  -->
<svg version="1.1" id="Layer_1" xmlns="http://www.w3.org/2000/svg" xmlns:xlink="http://www.w3.org/1999/xlink" x="0px" y="0px"
	 viewBox="0 0 512 512" style="enable-background:new 0 0 512 512;" xml:space="preserve">
<style type="text/css">
	.st0{fill:#FE8C8C;}
	.st1{fill:#E2E6E7;}
	.st2{fill:#9478EF;}
	.st3{fill:#5B56D6;}
	.st4{fill:#FBFCF7;}
	.st5{fill:#EDEEF3;}
	.st6{fill:#D7DEE8;}
</style>
<path class="st0" d="M512,256c0,141.4-114.6,256-256,256S0,397.4,0,256S114.6,0,256,0S512,114.6,512,256z"/>
<path class="st1" d="M202.7,239h106.6v172.5H202.7V239z"/>
<path class="st2" d="M441,223.3C434,106.7,346,0.1,256,0.1S78,106.7,71,223.3C64,340,212,440,256,440S448,340,441,223.3z"/>
<path class="st3" d="M386.1,190.9c0,71.9-58.3,130.1-130.1,130.1s-130.1-58.3-130.1-130.1S184.1,60.7,256,60.7
	S386.1,119,386.1,190.9z"/>
<path class="st2" d="M373.8,362H138.2c-36.5,0-68.3,22.3-81.7,54.5C103.5,474.7,175.4,512,256,512s152.5-37.3,199.5-95.5
	C442.1,384.2,410.3,362,373.8,362z"/>
<path class="st3" d="M71,223.3c-3.1,52.1,24.7,100.9,60.3,138.9c-33.6,2.6-62.2,24-74.8,54.2c39.2,48.7,95.8,82.7,160.4,92.6
	c5.8-32.6,28.6-53.6,44.1-64.4c5.8-4,5.1-12.7-1.3-15.7C199.6,399.8,105.4,317,111,223.3c6.5-108,82.4-207.3,165-221.5h0
	c-1.6-0.3-3.1-0.5-4.7-0.7c-0.2,0-0.4-0.1-0.6-0.1c-1.3-0.2-2.5-0.3-3.7-0.4c-0.4,0-0.9-0.1-1.3-0.1c-1.2-0.1-2.5-0.2-3.7-0.2
	c-0.4,0-0.8,0-1.2-0.1c-1.6-0.1-3.1-0.1-4.7-0.1C166,0.1,78,106.7,71,223.3z"/>
<path class="st4" d="M396.1,187.8c0-77.4-62.7-140.1-140.1-140.1c-77.6,0-141.2,64.5-140.1,142.1c0.4,28.3,9.2,54.6,24.1,76.4
	c2.3,3.4,6.2,5.5,10.3,5.5h34.9c6.8,0,12.3,5.5,12.3,12.3v37.5c0,6.8,5.5,12.3,12.3,12.3h92.4c6.8,0,12.3-5.5,12.3-12.3v-37.5
	c0-6.8,5.5-12.3,12.3-12.3h34.9c4.1,0,8-2.1,10.3-5.5C387.2,243.9,396.1,216.9,396.1,187.8z"/>
<path class="st5" d="M170,266.3c-14.8-21.9-23.6-48.1-24.1-76.4c-1.1-72.6,54.4-133.7,125.1-141.3c-4.9-0.5-10-0.8-15.1-0.8
	c-77.6,0-141.2,64.5-140.1,142.1c0.4,28.3,9.2,54.6,24.1,76.4c2.3,3.4,6.2,5.5,10.3,5.5h30C176.2,271.8,172.3,269.7,170,266.3z"/>
<path class="st3" d="M236.3,195c0,21.4-17.4,38.8-38.8,38.8s-38.8-17.4-38.8-38.8s17.4-38.8,38.8-38.8S236.3,173.6,236.3,195z"/>
<path class="st3" d="M353.3,195c0,21.4-17.4,38.8-38.8,38.8s-38.8-17.4-38.8-38.8s17.4-38.8,38.8-38.8S353.3,173.6,353.3,195z"/>
<g>
	<path class="st6" d="M223,271.8c-4.1,0-7.5,3.4-7.5,7.5V334h15v-54.7C230.5,275.2,227.1,271.8,223,271.8z"/>
	<path class="st6" d="M256,271.8c-4.1,0-7.5,3.4-7.5,7.5V334h15v-54.7C263.5,275.2,260.1,271.8,256,271.8z"/>
	<path class="st6" d="M289,271.8c-4.1,0-7.5,3.4-7.5,7.5V334h15v-54.7C296.5,275.2,293.1,271.8,289,271.8z"/>
</g>
</svg>
