<svg id="Capa_1" data-name="Capa 1" xmlns="http://www.w3.org/2000/svg" width="512" height="512" viewBox="0 0 512 512"><defs><style>.cls-1{fill:#fff;}</style></defs><title>spaceship</title><path class="cls-1" d="M130.24,138.27l-44.36,3.42a39.61,39.61,0,0,0-30.16,17.75L4.56,236.81A27.42,27.42,0,0,0,23.24,279l40.61,6.29c9.5-50.42,32.25-100.72,66.39-147Z" transform="translate(0 0)"/><path class="cls-1" d="M226.68,448.15,233,488.76a27.4,27.4,0,0,0,42.22,18.68l77.37-51.16a39.59,39.59,0,0,0,17.75-30.16l3.42-44.36c-46.33,34.14-96.63,56.89-147,66.39Z" transform="translate(0 0)"/><path class="cls-1" d="M211.41,420a25.37,25.37,0,0,0,4.24-.36,293.62,293.62,0,0,0,60.9-17.27L109.63,235.45a293.62,293.62,0,0,0-17.27,60.9,26.14,26.14,0,0,0,7.37,22.78l93.14,93.14A26.24,26.24,0,0,0,211.41,420Z" transform="translate(0 0)"/><path class="cls-1" d="M471.17,227C512,148,513.54,64.57,511.4,25.43A26.28,26.28,0,0,0,486.57.6C480.19.25,472.64,0,464.13,0,420.36,0,351.11,6.63,285,40.83c-52.54,27.17-121.44,87-162.09,165.65a16,16,0,0,1,1.39,1.22l180,180a16,16,0,0,1,1.22,1.39C384.16,348.44,444,279.54,471.17,227ZM297.7,108.24a75,75,0,1,1-22,53,75.08,75.08,0,0,1,22-53Z" transform="translate(0 0)"/><path class="cls-1" d="M318.91,193.09a45,45,0,1,0-13.18-31.82,45,45,0,0,0,13.18,31.82Z" transform="translate(0 0)"/><path class="cls-1" d="M15.3,421.93a15,15,0,0,0,10.61-4.39l49-49a15,15,0,0,0-21.21-21.21l-49,49a15,15,0,0,0,10.6,25.6Z" transform="translate(0 0)"/><path class="cls-1" d="M119.76,392.24a15,15,0,0,0-21.21,0L4.4,486.39A15,15,0,1,0,25.61,507.6l94.15-94.15a15,15,0,0,0,0-21.21Z" transform="translate(0 0)"/><path class="cls-1" d="M143.43,437.12l-49,49a15,15,0,1,0,21.21,21.21l49-49a15,15,0,0,0-21.21-21.21Z" transform="translate(0 0)"/></svg>