<?xml version="1.0" encoding="utf-8"?>
<!-- Generator: Adobe Illustrator 24.0.2, SVG Export Plug-In . SVG Version: 6.00 Build 0)  -->
<svg version="1.1" id="Layer_1" xmlns="http://www.w3.org/2000/svg" xmlns:xlink="http://www.w3.org/1999/xlink" x="0px" y="0px"
	 width="2841.9px" height="2556.2px" viewBox="0 0 2841.9 2556.2" style="enable-background:new 0 0 2841.9 2556.2;"
	 xml:space="preserve">
<style type="text/css">
	.st0{fill:url(#SVGID_1_);}
	.st1{fill:url(#SVGID_2_);}
	.st2{fill:url(#SVGID_3_);}
	.st3{fill:url(#SVGID_4_);}
	.st4{opacity:0.3;}
	.st5{fill:url(#SVGID_5_);}
	.st6{fill:#FFFFFF;}
	.st7{opacity:0.48;fill:#FFFFFF;enable-background:new    ;}
	.st8{fill:url(#SVGID_6_);}
	.st9{opacity:0.3;fill:url(#SVGID_7_);enable-background:new    ;}
	.st10{fill:url(#SVGID_8_);}
	.st11{opacity:0.74;fill:#FFFFFF;enable-background:new    ;}
	.st12{fill:url(#SVGID_9_);}
	.st13{fill:url(#SVGID_10_);}
	.st14{opacity:0.5;}
	.st15{fill:url(#SVGID_11_);}
	.st16{fill:url(#SVGID_12_);}
	.st17{fill:url(#SVGID_13_);}
	.st18{opacity:0.15;}
	.st19{fill:url(#SVGID_14_);}
	.st20{fill:url(#SVGID_15_);}
	.st21{fill:url(#SVGID_16_);}
	.st22{fill:url(#SVGID_17_);}
</style>
<g id="Illustration">
	<g>
		
			<linearGradient id="SVGID_1_" gradientUnits="userSpaceOnUse" x1="1216.9199" y1="133.0858" x2="1019.3634" y2="50.1122" gradientTransform="matrix(1 0 0 -1 0 2455.1006)">
			<stop  offset="0" style="stop-color:#40447E"/>
			<stop  offset="0.9964" style="stop-color:#3C3B6B"/>
		</linearGradient>
		<path class="st0" d="M2841.9,2215.3L28.1,2192.1v68.5c0,18.6,12.3,34.4,28.9,37.2l795.6,134.9c9.4,1.6,19,2,28.5,1.3l1930.1-153.9
			c17.2-1.4,30.6-17.2,30.6-36.3v-28.5H2841.9z"/>
		<g>
			
				<linearGradient id="SVGID_2_" gradientUnits="userSpaceOnUse" x1="896.6604" y1="960.95" x2="694.8425" y2="876.1863" gradientTransform="matrix(1 0 0 -1 0 2455.1006)">
				<stop  offset="0" style="stop-color:#40447E"/>
				<stop  offset="0.9964" style="stop-color:#3C3B6B"/>
			</linearGradient>
			<path class="st1" d="M1820.8,2104.2L57.2,2229.6C25.6,2231.8,0,2208,0,2176.4V908.2c0-31.7,25.7-57.3,57.2-57.3h1763.6
				c26,0,47,23.2,47,51.8v1146.4C1867.8,2077.7,1846.8,2102.4,1820.8,2104.2z"/>
			
				<linearGradient id="SVGID_3_" gradientUnits="userSpaceOnUse" x1="28.1" y1="914.8298" x2="1895.9001" y2="914.8298" gradientTransform="matrix(1 0 0 -1 0 2455.1006)">
				<stop  offset="0" style="stop-color:#40447E"/>
				<stop  offset="0.9964" style="stop-color:#3C3B6B"/>
			</linearGradient>
			<path class="st2" d="M1848.9,2104.2L85.3,2229.6c-31.6,2.2-57.2-21.6-57.2-53.2V908.2c0-31.7,25.7-57.3,57.2-57.3h1763.6
				c26,0,47,23.2,47,51.8v1146.4C1895.9,2077.7,1874.9,2102.4,1848.9,2104.2z"/>
			
				<linearGradient id="SVGID_4_" gradientUnits="userSpaceOnUse" x1="1208.752" y1="1369.0066" x2="-227.225" y2="-978.5049" gradientTransform="matrix(1 0 0 -1 0 2455.1006)">
				<stop  offset="0" style="stop-color:#FFC444"/>
				<stop  offset="0.9964" style="stop-color:#F36F56"/>
			</linearGradient>
			<path class="st3" d="M1832.8,967v1011.2c0,23.5-17.3,43.8-38.8,45.2l-328.6,21.8l-1189.3,78.9l-124.8,8.3
				c-25.7,1.7-46.5-17.9-46.5-43.7V978.4c0-25.8,20.9-46.9,46.5-47l622.5-2.6l211-0.9l168.1-0.7l147.8-0.6l493.2-2.1
				C1815.4,924.5,1832.8,943.5,1832.8,967z"/>
			<g class="st4">
				
					<linearGradient id="SVGID_5_" gradientUnits="userSpaceOnUse" x1="404.3387" y1="1012.3815" x2="1984.4984" y2="1012.3815" gradientTransform="matrix(0.9925 -0.1222 -0.1222 -0.9925 -144.3764 2662.5962)">
					<stop  offset="0" style="stop-color:#FFC444"/>
					<stop  offset="0.9964" style="stop-color:#F36F56"/>
				</linearGradient>
				<path class="st5" d="M1668.7,1630.6c29.2-4.9,50.8-32.8,48.2-62.2l-8.9-100.2c-2.6-29.4-28.4-49.3-57.6-44.4l-56.4,9.3
					c-12.2-45.6-29-88.6-50-128.9l48-37.6c24-18.9,29.8-52.9,12.9-76l-57.6-78.8c-16.9-23.1-50.2-26.7-74.3-7.8l-50.6,39.5
					c-32.6-30.8-68.5-57.9-107.2-80.9l26.8-59.9c12.5-27.9,0.8-59.2-26-70l-15.2-6.1l-147.8,0.6l0,0l-27.5,61.4
					c-43.9-9.2-89.5-14-136.4-13.9l-4.2-46.8l-211,0.9c-0.7,4.3-0.9,8.8-0.4,13.2l5.8,65.9c-45.9,14.6-89.8,33.6-131.4,56.5
					l-38-51.4c-17.3-23.5-51.4-27.1-76.2-8l-84.5,65c-24.8,19.1-30.9,53.6-13.5,77.1l37.3,50.3c-34.4,35.1-65.4,73.4-92.5,114.3
					l-57.7-22.5c-27.6-10.8-60.4,3.5-73.3,31.9l-43.9,96.9c-12.9,28.5-1,60.2,26.7,70.9l55.1,21.3c-13.9,46.7-23.1,94.9-27.2,144
					l-58.5,9.7c-30.4,5-53,33.5-50.3,63.5l9.1,102.4c2.7,30,29.5,50.2,59.9,45.1l55.3-9.3c11.3,47.8,27.6,93,48.5,135.1l-43.5,34
					c-25,19.5-31,54.2-13.5,77.6l8.9,11.8l1189.2-78.9c15.4-20.2,29.7-41.2,42.9-62.8l44.2,17.1c26.7,10.3,58.4-4.1,70.8-32.1
					l42.2-95.5c12.4-28,0.8-59.1-25.9-69.5l-46.5-18.1c12.4-47,20-95.5,22.4-144.7L1668.7,1630.6z M979.3,2062.8
					c-225.3,39-425.1-111.8-445.1-337s147.7-437.4,373.2-473.9c224.2-36.3,420.9,115.1,440.7,337.8
					C1367.8,1812.3,1203.3,2024,979.3,2062.8z"/>
			</g>
			<path class="st6" d="M1029.4,885.6c0,11.8-9.1,21.4-20.3,21.4c-11.2,0-20.3-9.5-20.3-21.3s9.1-21.4,20.3-21.4
				S1029.4,873.8,1029.4,885.6z"/>
			<path class="st7" d="M1424,1756.4c-136-73.6-242.9,19.7-346-72.3c-62.5-55.8-31.8-97.4-108.8-180.7
				c-85.2-92.3-140.7-61.3-226.4-144.4c-108.3-105-54.1-186.8-147.4-262.2c-113.2-91.5-235.3-6.8-343-94.6
				c-46.5-37.8-72-92.9-85.3-151.4H61.6c-18.5,0-33.5,15.1-33.5,33.6v1314.7c0,18.6,15,32.6,33.5,31.3L1859,2102.1
				c8.8-0.6,16.6-5.8,21.7-13.3c-131.6-4.8-212.4-49.2-264.1-95.1C1515.5,1903.9,1533,1815.4,1424,1756.4z"/>
		</g>
		
			<linearGradient id="SVGID_6_" gradientUnits="userSpaceOnUse" x1="28.0999" y1="220.0185" x2="2841.8" y2="220.0185" gradientTransform="matrix(1 0 0 -1 0 2455.1006)">
			<stop  offset="0" style="stop-color:#40447E"/>
			<stop  offset="0.9964" style="stop-color:#3C3B6B"/>
		</linearGradient>
		<path class="st8" d="M1919.2,2098.6l-1891.1,132l824.5,139.8c9.4,1.6,19,2,28.5,1.3l1960.7-156.3l-892.6-115.9
			C1939.3,2098.2,1929.2,2097.9,1919.2,2098.6z"/>
		
			<linearGradient id="SVGID_7_" gradientUnits="userSpaceOnUse" x1="304" y1="241.8503" x2="2365.7" y2="241.8503" gradientTransform="matrix(1 0 0 -1 0 2455.1006)">
			<stop  offset="0" style="stop-color:#40447E"/>
			<stop  offset="0.9964" style="stop-color:#3C3B6B"/>
		</linearGradient>
		<polygon class="st9" points="304,2233.8 1878.4,2122.3 2365.7,2185.1 804.9,2304.3 		"/>
	</g>
	<g>
		<g>
			
				<linearGradient id="SVGID_8_" gradientUnits="userSpaceOnUse" x1="2032.0612" y1="2761.7625" x2="755.319" y2="208.2837" gradientTransform="matrix(1 0 0 -1 0 2455.1006)">
				<stop  offset="0" style="stop-color:#FF9085"/>
				<stop  offset="1" style="stop-color:#FB6FBB"/>
			</linearGradient>
			<path class="st10" d="M2294.1,47.7L897.8,0.1c-46.7-1.6-84.7,35.2-84.7,82.2v1019c0,47,38,84.2,84.7,83.1l1396.2-32.1
				c40.5-0.9,73.2-36.9,73.2-80.4v-943C2367.2,85.4,2334.5,49,2294.1,47.7z"/>
			<path class="st11" d="M840.2,1079.9V104.1c0-43.5,35.2-77.6,78.4-76.2L2276,72.3c37.6,1.2,67.9,34.9,67.9,75.3V1053
				c0,40.4-30.4,73.7-67.9,74.5l-1357.4,29.4C875.4,1157.9,840.2,1123.4,840.2,1079.9z"/>
			
				<linearGradient id="SVGID_9_" gradientUnits="userSpaceOnUse" x1="1456.4238" y1="2859.282" x2="1720.1915" y2="1804.2081" gradientTransform="matrix(1 0 0 -1 0 2455.1006)">
				<stop  offset="0" style="stop-color:#AB316D"/>
				<stop  offset="1" style="stop-color:#792D3D"/>
			</linearGradient>
			<path class="st12" d="M2294.1,47.7L897.8,0.1c-46.7-1.6-84.7,35.2-84.7,82.2v61l1554.1,42v-56.5
				C2367.2,85.4,2334.5,49,2294.1,47.7z"/>
			<path class="st6" d="M963.8,78.7c0,15.3-12.3,27.3-27.5,26.9c-15.2-0.4-27.6-13.2-27.6-28.5s12.3-27.3,27.6-26.8
				C951.5,50.6,963.8,63.4,963.8,78.7z"/>
			<path class="st6" d="M1059.7,81.6c0,15.2-12.2,27.2-27.2,26.7c-15.1-0.4-27.3-13.1-27.3-28.4s12.2-27.2,27.3-26.7
				C1047.6,53.7,1059.7,66.4,1059.7,81.6z"/>
			<path class="st6" d="M1154.8,84.5c0,15.1-12.1,27-27,26.6s-27.1-13.1-27.1-28.3s12.1-27.1,27.1-26.6
				C1142.7,56.7,1154.8,69.3,1154.8,84.5z"/>
			
				<linearGradient id="SVGID_10_" gradientUnits="userSpaceOnUse" x1="911.9" y1="1851.7502" x2="2281.8" y2="1851.7502" gradientTransform="matrix(1 0 0 -1 0 2455.1006)">
				<stop  offset="0" style="stop-color:#FF9085"/>
				<stop  offset="1" style="stop-color:#FB6FBB"/>
			</linearGradient>
			<polygon class="st13" points="2281.8,798.4 911.9,804.9 911.9,401.9 2281.8,422.1 			"/>
			<polygon class="st6" points="2281.8,893.4 911.9,906.6 911.9,863.3 2281.8,853 			"/>
			<polygon class="st6" points="2281.8,992.6 911.9,1012.7 911.9,969.5 2281.8,952.1 			"/>
			<g>
				<polygon class="st6" points="1648.7,314.6 911.9,300.2 911.9,343.5 1648.7,356.4 				"/>
				<polygon class="st6" points="2203.6,325.5 2203.6,366.1 2281.8,367.5 2281.8,327 				"/>
			</g>
			<g class="st14">
				<path class="st6" d="M1750.6,569.6c-163.1-237.3-445.3-162.4-623.6-424.5c-32.2-47.2-54-95.3-68.9-139.6L897.8,0.1
					c-46.7-1.6-84.7,35.2-84.7,82.2v1019c0,47,38,84.2,84.7,83.1l1061.9-24.4c-31.8-45.7-61.1-96.7-85.9-153.8
					C1778.6,787.6,1849.1,712.9,1750.6,569.6z"/>
			</g>
			<g>
				<polygon class="st6" points="1103.1,503 936.3,501.3 936.3,453.4 1103.1,455.6 				"/>
				<polygon class="st6" points="1994.6,512.5 1209.7,504.2 1209.7,456.9 1994.6,467 				"/>
				<polygon class="st6" points="1372.4,586 1209.7,584.9 1209.7,537.6 1372.4,539.1 				"/>
				<polygon class="st6" points="2242,592 1476.2,586.7 1476.2,540.1 2242,547 				"/>
				<polygon class="st6" points="1372.4,666.1 1209.7,665.6 1209.7,618.4 1372.4,619.2 				"/>
				<polygon class="st6" points="2242,668.8 1476.2,666.4 1476.2,619.8 2242,623.8 				"/>
				<polygon class="st6" points="1103.1,746.4 936.3,746.5 936.3,698.7 1103.1,698.9 				"/>
				<polygon class="st6" points="1994.6,745.8 1209.7,746.3 1209.7,699.1 1994.6,700.2 				"/>
			</g>
		</g>
		<g>
			
				<linearGradient id="SVGID_11_" gradientUnits="userSpaceOnUse" x1="1760.4001" y1="1389.4596" x2="2803.2" y2="1389.4596" gradientTransform="matrix(1 0 0 -1 0 2455.1006)">
				<stop  offset="3.597120e-03" style="stop-color:#E38DDD"/>
				<stop  offset="1" style="stop-color:#9571F6"/>
			</linearGradient>
			<path class="st15" d="M2733.7,289.6l-896.4-9.5c-42.4-0.4-76.9,35.5-76.9,80.2v1415.1c0,44.8,34.5,78.7,76.9,75.7l896.4-61.7
				c38.5-2.7,69.5-39.2,69.5-81.6V367.1C2803.2,324.7,2772.2,290,2733.7,289.6z"/>
			<path class="st11" d="M1785,1753.9V380.4c0-41.4,31.9-74.7,71.1-74.3l860.4,7.9c35.7,0.3,64.6,32.5,64.6,71.8v1304.5
				c0,39.3-28.9,73.2-64.6,75.6l-860.4,58.1C1816.9,1826.7,1785,1795.3,1785,1753.9z"/>
			
				<linearGradient id="SVGID_12_" gradientUnits="userSpaceOnUse" x1="2288.2007" y1="2124.075" x2="2184.5813" y2="1187.5096" gradientTransform="matrix(1 0 0 -1 0 2455.1006)">
				<stop  offset="0" style="stop-color:#40447E"/>
				<stop  offset="0.9964" style="stop-color:#3C3B6B"/>
			</linearGradient>
			<path class="st16" d="M2733.7,289.6l-896.4-9.4c-42.4-0.4-76.9,35.5-76.9,80.2v58.1l1042.8,3.7v-55.1
				C2803.2,324.7,2772.2,290,2733.7,289.6z"/>
			<path class="st6" d="M2734,354.6c0,14.4-11,26-24.5,26c-13.6-0.1-24.6-11.9-24.6-26.3s11-26.1,24.6-26
				C2723,328.4,2734,340.2,2734,354.6z"/>
			
				<linearGradient id="SVGID_13_" gradientUnits="userSpaceOnUse" x1="1850" y1="1383.2502" x2="2722.1001" y2="1383.2502" gradientTransform="matrix(1 0 0 -1 0 2455.1006)">
				<stop  offset="3.597120e-03" style="stop-color:#E38DDD"/>
				<stop  offset="1" style="stop-color:#9571F6"/>
			</linearGradient>
			<polygon class="st17" points="2722.1,1444.8 1850,1488.9 1850,662.6 2722.1,654.9 			"/>
			<polygon class="st6" points="2722.1,1537.5 1850,1585.9 1850,1544.6 2722.1,1498.1 			"/>
			<polygon class="st6" points="2722.1,1634.1 1850,1687 1850,1645.8 2722.1,1594.7 			"/>
			<g>
				<polygon class="st6" points="2519.8,563 1850,565.6 1850,606.9 2519.8,602.8 				"/>
				<polygon class="st6" points="2647.8,562.5 2647.8,602.1 2722.1,601.6 2722.1,562.2 				"/>
			</g>
			<g class="st18">
				<path class="st6" d="M2498.1,1135.3c-144.1-189.8-325-195.2-425.7-398.2c-72.9-147-62.6-314.4-30.2-454.8l-205-2.2
					c-42.4-0.4-76.9,35.5-76.9,80.2v1415.1c0,44.8,34.5,78.7,76.9,75.7l805.9-55.5C2668,1437.3,2581.8,1245.5,2498.1,1135.3z"/>
			</g>
			<g>
				<polygon class="st6" points="2000,745.2 1907.4,746.5 1907.6,705.3 2000.2,704.3 				"/>
				<polygon class="st6" points="2497.9,738.6 2059.3,744.4 2059.4,703.7 2498.1,699.1 				"/>
				<polygon class="st6" points="2149.6,812.3 2059,814 2059.2,773.3 2149.8,771.9 				"/>
				<polygon class="st6" points="2636.7,803.3 2207.5,811.3 2207.7,771 2636.9,764.3 				"/>
				<polygon class="st6" points="2149.3,881.4 2058.7,883.6 2058.9,842.9 2149.5,841 				"/>
				<polygon class="st6" points="2636.4,869.9 2207.2,880.1 2207.4,839.8 2636.6,830.9 				"/>
				<polygon class="st6" points="1999.3,954.9 1906.6,957.5 1906.8,916.4 1999.4,914 				"/>
				<polygon class="st6" points="2497,940.5 2058.5,953.1 2058.6,912.4 2497.2,901.1 				"/>
				<polygon class="st6" points="2148.8,1019.6 2058.2,1022.7 2058.4,982 2148.9,979.2 				"/>
				<polygon class="st6" points="2635.7,1003 2206.7,1017.6 2206.8,977.4 2635.9,964.1 				"/>
				<polygon class="st6" points="2148.5,1088.7 2057.9,1092.2 2058.1,1051.5 2148.6,1048.2 				"/>
				<polygon class="st6" points="2635.4,1069.6 2206.4,1086.4 2206.5,1046.1 2635.6,1030.6 				"/>
				<polygon class="st6" points="2148.2,1157.7 2057.7,1161.7 2057.8,1121 2148.4,1117.3 				"/>
				<polygon class="st6" points="2635.1,1136.1 2206.1,1155.1 2206.3,1114.9 2635.2,1097.2 				"/>
				<polygon class="st6" points="2295.7,1219.4 2207.2,1223.8 2207.4,1183.5 2295.9,1179.4 				"/>
				<polygon class="st6" points="2701.6,1199.3 2352.4,1216.6 2352.5,1176.8 2701.8,1160.6 				"/>
				<polygon class="st6" points="1997.9,1303.9 1905.4,1308.9 1905.5,1267.8 1998.1,1263 				"/>
				<polygon class="st6" points="2495.4,1276.7 2057.1,1300.6 2057.3,1260 2495.6,1237.4 				"/>
				<polygon class="st6" points="2147.4,1364.7 2056.9,1370.1 2057,1329.4 2147.5,1324.3 				"/>
				<polygon class="st6" points="2634.1,1335.6 2205.2,1361.2 2205.4,1321 2634.3,1296.7 				"/>
				<polygon class="st6" points="2147.1,1433.6 2056.6,1439.5 2056.7,1398.9 2147.2,1393.3 				"/>
				<polygon class="st6" points="2633.8,1402.1 2205,1429.9 2205.1,1389.7 2633.9,1363.2 				"/>
			</g>
		</g>
	</g>
	<g>
		<g>
			
				<linearGradient id="SVGID_14_" gradientUnits="userSpaceOnUse" x1="2702.5684" y1="622.7096" x2="2419.1748" y2="81.9479" gradientTransform="matrix(1 0 0 -1 0 2455.1006)">
				<stop  offset="0" style="stop-color:#AA80F9"/>
				<stop  offset="0.9964" style="stop-color:#6165D7"/>
			</linearGradient>
			<path class="st19" d="M2388.8,2531c-33-2.6-75.3-11.8-115.9-38.3c-43.9-28.7-101.1-87.7-86.2-124.9c5.6-13.9,21.6-25.8,35.7-24.6
				c20.8,1.7,23.3,30.6,59.4,62.1c6.7,5.8,41.3,35.9,58.4,25.8c8.5-5,11.1-19,9.7-29.6c-4.1-31-42-35.8-78.4-69.4
				c-36.9-34.1-67.7-93.5-50.1-133.7c10.1-23.1,36.9-41.3,54.5-36.2c7.5,2.2,12.3,8.3,35.1,57.6c18.7,40.5,22.9,52.3,35,56.1
				c12.4,3.9,31.8-1,39.1-13.3c19.1-31.9-63.5-79-71-168.2c-3.4-40,7.5-99.3,43.7-112c24.5-8.6,59.4,4.5,72,27
				c11.4,20.2-2.4,35.5,6.2,81c2.6,13.8,8,42.2,19.5,43.7c13.4,1.7,28.4-34.5,31.9-43.3c26.1-66.4-3.8-100.6,20.8-132.8
				c19.2-25.1,61-35.2,94.1-22.5c29,11.1,52.1,40,53.7,69.9c1.6,30.5-24,60.8-75.3,121.5c-24.3,28.8-43.6,48.2-42.5,76.8
				c0.5,13.9,6.1,33.5,16,35.3c22,4,32.9-84.8,85.1-98.5c26.7-7,59.9,6.8,74.5,30.9c17.9,29.5,5.9,71.4-16.6,93.4
				c-29.3,28.7-59.4,6.9-114.5,37.7c-24.5,13.7-62.9,42.8-57.3,66.8c2.5,10.5,13.4,20.7,25.5,22.1c27,3.1,35.9-41.2,79.4-60.7
				c31.3-14,74.6-12.5,84.8,5.1c14.5,24.9-37,81.5-64.4,106.5C2617.5,2472.5,2539.4,2529.8,2388.8,2531z"/>
			<g class="st14">
				<path class="st6" d="M2403.7,2516.8c-4.4-74,44.7-224.9,80.4-296.2c34.9-69.8,68.3-180.1,68.6-181.2l2.2,0.7
					c-0.3,1.1-33.8,111.7-68.8,181.6c-35.6,71.1-84.5,221.3-80.1,295L2403.7,2516.8z"/>
			</g>
		</g>
		
			<linearGradient id="SVGID_15_" gradientUnits="userSpaceOnUse" x1="2504.6016" y1="215.7822" x2="2179.3237" y2="-174.159" gradientTransform="matrix(1 0 0 -1 0 2455.1006)">
			<stop  offset="3.597120e-03" style="stop-color:#E38DDD"/>
			<stop  offset="1" style="stop-color:#9571F6"/>
		</linearGradient>
		<path class="st20" d="M2310.9,2540.7c-24.9-34.5-61.4-96.9-67.9-180.3c-2.7-34.4-8-101.5,33.1-159.4
			c20.5-28.9,63.9-71.5,93.2-59.2c18.9,7.9,30.6,38.1,25.3,61c-5.4,23.1-24.9,25.2-46.2,64.4c-7.9,14.5-16.9,31.5-10,41.2
			c5.8,8,21.6,9.5,33.5,4.7c24.5-10,16.9-40.5,43.4-62.4c18.9-15.6,50.3-22.9,63.9-10.1c11.8,11.1,9.7,37-0.7,54.2
			c-16.7,27.6-46.6,19.5-66.1,49.7c-8.6,13.4-14.8,33.6-7.2,41.6c8.6,9.1,34,1.2,50.3-8.8c21.5-13.3,22.3-27.5,36.4-29.2
			c15.8-2,35.5,13,38.6,29.7c4.3,23.3-24.2,48.4-46.8,59.3c-28.9,14-50.5,5.8-64.6,24.8c-5.2,7-9.9,18.4-5.7,25.4
			c6.1,9.9,28,6.6,42.6,4.5c35.5-5.3,45.2-18.1,57.9-11.9c12.9,6.3,19.5,27.7,13.9,42.7c-3.1,8.3-12.4,21.2-58.4,29.3
			C2437.2,2557.3,2383.1,2561.3,2310.9,2540.7z"/>
	</g>
	<g>
		
			<linearGradient id="SVGID_16_" gradientUnits="userSpaceOnUse" x1="1163.4595" y1="2390.5349" x2="161.5883" y2="386.7969" gradientTransform="matrix(0.9925 -0.1222 -0.1222 -0.9925 -144.3764 2662.5962)">
			<stop  offset="0" style="stop-color:#FB6FBB"/>
			<stop  offset="1" style="stop-color:#FF9085"/>
		</linearGradient>
		<path class="st21" d="M475.7,1602.8c0,0-451.9-654.9-10.4-1175.3l-113.1-20.4l350.6-103.7L597.9,584.9l-45.1-88.3
			C552.8,496.6,221.4,819.2,475.7,1602.8z"/>
		
			<linearGradient id="SVGID_17_" gradientUnits="userSpaceOnUse" x1="839.1001" y1="779.7256" x2="1934.5" y2="779.7256" gradientTransform="matrix(1 0 0 -1 0 2455.1006)">
			<stop  offset="3.597120e-03" style="stop-color:#E38DDD"/>
			<stop  offset="1" style="stop-color:#9571F6"/>
		</linearGradient>
		<path class="st22" d="M839.1,1913.1c0,0,694.6,236,1045.1-286.6l46.5,95.2l3.8-337.1l-223.3,163.9l89.7,17.8
			C1800.8,1566.3,1598.1,1941.4,839.1,1913.1z"/>
		<g>
			<path class="st6" d="M285.8,1622.1l5.6,62.8c1.6,18.4,18.1,30.8,36.7,27.6l33.9-5.7c6.9,29.3,17,57,29.8,82.9l-26.7,20.8
				c-15.3,12-19,33.3-8.3,47.6l36.5,48.8c10.7,14.3,31.8,16.2,47,4.2l25.2-19.8c21,20.5,44.4,38.5,69.7,53.6l-12.5,28
				c-7.8,17.5-0.6,36.8,16.3,43.2l57.3,21.6c16.8,6.3,36.7-2.7,44.5-20.2l12-26.9c29.1,6.1,59.4,8.9,90.5,8.3l2.5,27.8
				c1.6,18.2,17.8,30.4,36.1,27.1l62.3-11.1c18.2-3.2,31.7-20.6,30.1-38.8l-2.5-27.7c30-10.1,58.6-23.3,85.4-39.2l16.1,21.8
				c10.5,14.1,31,16,45.9,4.1l50.6-40.3c14.8-11.8,18.4-32.8,8-46.9l-16.7-22.6c21.4-23,40.4-48,56.7-74.7l27.1,10.5
				c16.4,6.3,35.8-2.5,43.4-19.7l25.9-58.6c7.6-17.2,0.5-36.2-15.9-42.6l-28.5-11.1c7.6-28.8,12.3-58.6,13.8-88.7l32.6-5.5
				c17.9-3,31.1-20.1,29.5-38.1l-5.5-61.5c-1.6-18-17.4-30.2-35.3-27.3l-34.6,5.7c-7.5-27.9-17.8-54.4-30.7-79l29.5-23.1
				c14.7-11.6,18.3-32.4,7.9-46.6l-35.4-48.3c-10.4-14.2-30.8-16.4-45.6-4.8l-31,24.2c-20-18.9-42-35.5-65.7-49.6l16.4-36.7
				c7.6-17.1,0.5-36.3-16-42.9l-56.2-22.5c-16.5-6.6-36.1,2-43.8,19.1l-16.9,37.7c-26.9-5.7-54.9-8.6-83.6-8.5l-3.6-40.3
				c-1.6-18.2-17.7-30.6-36-27.8l-62.4,9.8c-18.3,2.9-31.9,20-30.3,38.2l3.6,40.4c-28.1,8.9-55.1,20.6-80.6,34.7l-23.3-31.5
				c-10.6-14.4-31.5-16.6-46.7-4.9l-51.8,39.9c-15.2,11.7-18.9,32.9-8.3,47.3l22.9,30.9c-21.1,21.5-40.1,45-56.7,70.1l-35.4-13.8
				c-16.9-6.6-37,2.2-44.9,19.6l-26.9,59.4c-7.9,17.5-0.6,36.9,16.4,43.5l33.8,13.1c-8.5,28.6-14.2,58.2-16.7,88.3l-35.9,6
				C297.9,1586.2,284.1,1603.7,285.8,1622.1z M520.5,1621.1c-12.3-138.1,90.6-268.3,228.9-290.7c137.5-22.2,258.1,70.6,270.3,207.1
				c12.1,136.6-88.8,266.5-226.1,290.2C655.3,1851.7,532.7,1759.2,520.5,1621.1z"/>
		</g>
	</g>
</g>
</svg>
